<svg xmlns="http://www.w3.org/2000/svg" xmlns:xlink="http://www.w3.org/1999/xlink" viewBox="0 0 148.71 153.1"><defs><style>.cls-1{mask:url(#mask);filter:url(#luminosity-noclip-2);}.cls-2{mix-blend-mode:multiply;fill:url(#linear-gradient);}.cls-3{fill:#840d65;}.cls-4{fill:url(#linear-gradient-2);}.cls-5{mask:url(#mask-2);}.cls-6{fill:url(#linear-gradient-3);}.cls-7{fill:#d78dc0;}.cls-8{fill:#f8f9f6;}.cls-9{filter:url(#luminosity-noclip);}</style><filter id="luminosity-noclip" x="11.63" y="-11126.14" width="124.83" height="32766" filterUnits="userSpaceOnUse" color-interpolation-filters="sRGB"><feFlood flood-color="#fff" result="bg"/><feBlend in="SourceGraphic" in2="bg"/></filter><mask id="mask" x="11.63" y="-11126.14" width="124.83" height="32766" maskUnits="userSpaceOnUse"><g class="cls-9"/></mask><linearGradient id="linear-gradient" x1="74.05" y1="135.78" x2="74.05" y2="5.77" gradientUnits="userSpaceOnUse"><stop offset="0" stop-color="#fff"/><stop offset="0.54"/><stop offset="0.58" stop-color="#080808"/><stop offset="0.64" stop-color="#1c1c1c"/><stop offset="0.71" stop-color="#3f3f3f"/><stop offset="0.79" stop-color="#6e6e6e"/><stop offset="0.89" stop-color="#ababab"/><stop offset="0.99" stop-color="#f4f4f4"/><stop offset="1" stop-color="#fff"/></linearGradient><linearGradient id="linear-gradient-2" x1="74.36" y1="153.1" x2="74.36" gradientUnits="userSpaceOnUse"><stop offset="0" stop-color="#ca68ad"/><stop offset="1" stop-color="#e52eac"/></linearGradient><filter id="luminosity-noclip-2" x="11.63" y="5.77" width="124.83" height="130.01" filterUnits="userSpaceOnUse" color-interpolation-filters="sRGB"><feFlood flood-color="#fff" result="bg"/><feBlend in="SourceGraphic" in2="bg"/></filter><mask id="mask-2" x="11.63" y="5.77" width="124.83" height="130.01" maskUnits="userSpaceOnUse"><g class="cls-1"><path class="cls-2" d="M105.47,135.78a41.93,41.93,0,0,1-2.21-5.74c-2.76-8.6-5.51-14.39-8.66-18.22A19,19,0,0,0,82.13,105a11.12,11.12,0,0,0-1.41-.09l-16.56-.1h-.3c-12.94.34-18.22,7.52-20.21,11.77-1.94,4.07-4.22,8.76-6.74,13.87-1.2,2.43-2.07,4.05-2.67,5.1-1.23.06-3.08.13-5.8.13-2.45,0-5.36-.05-8.63-.15-3.75-.11-6.37-.31-8.18-.51a190.59,190.59,0,0,1,3.15-23.21c2.36-12.75,5.35-26.2,8.88-40S31,44.88,35,32.86c4-12.3,6.89-18.82,8.73-22.27A30.68,30.68,0,0,1,48.2,9.08,100.59,100.59,0,0,1,65.64,6.17c3.11-.26,6.21-.4,9.2-.4s6.23.15,9.22.44c4.86.47,6.7,1.39,7.08,1.61,1.17,1.24,4.6,5.71,10.47,19.75,5,12,10,25.19,14.75,39.32s9.21,28.08,13,41.12c3.35,11.45,5.73,20,7.08,25.45-5.16.8-11.56,1.42-19,1.85C112.19,135.61,108.17,135.77,105.47,135.78ZM69.54,42.58a14.71,14.71,0,0,0-10.83,4.86c-3.2,3.4-6.12,8.47-8.87,15.44-3.43,8.71-4.16,14.19-2.52,18.92,1.82,5.34,7.11,11.78,21.87,11.78.8,0,1.64,0,2.51,0,17-.67,22.13-8.47,23.39-14.9,1.06-5.45-1-11.51-7.45-22.37C85.41,52.52,79.47,42.58,69.54,42.58Z"/></g></mask><linearGradient id="linear-gradient-3" x1="74.05" y1="135.78" x2="74.05" y2="5.77" gradientUnits="userSpaceOnUse"><stop offset="0" stop-color="#c549a1"/><stop offset="0.54" stop-color="#e5449e"/><stop offset="0.61" stop-color="#e74ca3"/><stop offset="0.71" stop-color="#eb60af"/><stop offset="0.84" stop-color="#f382c4"/><stop offset="0.99" stop-color="#feb1e1"/><stop offset="1" stop-color="#ffb6e4"/></linearGradient></defs><title>A</title><g id="Layer_2" data-name="Layer 2"><g id="objects"><path class="cls-3" d="M65.34,83,67,83c.55,0,1,0,1.51-.09-.52-1-1.18-2.21-2-3.65-.26.61-.53,1.28-.82,2S65.21,82.46,65,83Z"/><path class="cls-4" d="M2,149.75a7.29,7.29,0,0,1-2-4.93q-.19-9.75,3.42-29.36t9.05-40.77Q17.91,53.53,24,35T34.6,9q1.8-2.93,10.6-5.28A110.79,110.79,0,0,1,64.66.44a113.15,113.15,0,0,1,20.51,0Q95,1.45,99,5.06q5.63,5.43,13.32,23.83T127.3,69q7.33,21.67,13.17,41.58t7.74,28.15c.87,4,.61,6.82-.8,8.39s-3.86,2.67-7.34,3.27a201.85,201.85,0,0,1-22,2.26q-13.12.76-16.44.35a6.07,6.07,0,0,1-2.41-.9q-3.63-2.2-7-12.72t-6.59-14.43a7.52,7.52,0,0,0-5-2.71l-16.49-.1q-7.75.2-10.06,5.13-3,6.33-6.83,14.07t-5.63,9.55a4.7,4.7,0,0,1-2.72,1.51q-4.12.9-19.45.45T2,149.75ZM67.17,61.07q-3.32,3.52-6.58,11.81T58.23,83.79q1.5,4.42,13,4t12.51-5.58q.61-3.11-6-14.23T67.17,61.07Z"/><g class="cls-5"><path class="cls-6" d="M105.47,135.78a41.93,41.93,0,0,1-2.21-5.74c-2.76-8.6-5.51-14.39-8.66-18.22A19,19,0,0,0,82.13,105a11.12,11.12,0,0,0-1.41-.09l-16.56-.1h-.3c-12.94.34-18.22,7.52-20.21,11.77-1.94,4.07-4.22,8.76-6.74,13.87-1.2,2.43-2.07,4.05-2.67,5.1-1.23.06-3.08.13-5.8.13-2.45,0-5.36-.05-8.63-.15-3.75-.11-6.37-.31-8.18-.51a190.59,190.59,0,0,1,3.15-23.21c2.36-12.75,5.35-26.2,8.88-40S31,44.88,35,32.86c4-12.3,6.89-18.82,8.73-22.27A30.68,30.68,0,0,1,48.2,9.08,100.59,100.59,0,0,1,65.64,6.17c3.11-.26,6.21-.4,9.2-.4s6.23.15,9.22.44c4.86.47,6.7,1.39,7.08,1.61,1.17,1.24,4.6,5.71,10.47,19.75,5,12,10,25.19,14.75,39.32s9.21,28.08,13,41.12c3.35,11.45,5.73,20,7.08,25.45-5.16.8-11.56,1.42-19,1.85C112.19,135.61,108.17,135.77,105.47,135.78ZM69.54,42.58a14.71,14.71,0,0,0-10.83,4.86c-3.2,3.4-6.12,8.47-8.87,15.44-3.43,8.71-4.16,14.19-2.52,18.92,1.82,5.34,7.11,11.78,21.87,11.78.8,0,1.64,0,2.51,0,17-.67,22.13-8.47,23.39-14.9,1.06-5.45-1-11.51-7.45-22.37C85.41,52.52,79.47,42.58,69.54,42.58Z"/></g><path class="cls-7" d="M74.84,2.89h0c3.4,0,6.79.16,10,.47C92.2,4.07,95.49,5.82,97,7.17c3.44,3.34,7.69,11,12.63,22.84,5.08,12.13,10.11,25.55,15,39.88s9.29,28.3,13.14,41.46,6.44,22.58,7.69,28c.92,4.26.13,5.56-.14,5.86-.65.74-2.17,1.74-5.67,2.34a198.34,198.34,0,0,1-21.65,2.23c-5.62.32-9.92.49-12.78.49a27,27,0,0,1-3.1-.12,3.33,3.33,0,0,1-1.25-.47l0,0h0c-.81-.5-3-2.58-5.74-11.14C92.63,131,90.3,126,87.9,123.07A10.37,10.37,0,0,0,81,119.34l-.18,0h-.18l-16.49-.1h-.09c-6.32.17-10.55,2.45-12.58,6.77s-4.28,8.9-6.82,14c-3.26,6.61-4.64,8.35-5.09,8.79l-.1.1-.09.12a2.08,2.08,0,0,1-1.1.51c-1.11.25-3.73.54-9.86.54-2.54,0-5.53-.05-8.89-.15-12.6-.37-15-1.81-15.33-2.05l0,0-.08-.08a4.34,4.34,0,0,1-1.21-3c-.13-6.28,1-16,3.37-28.77s5.42-26.6,9-40.58,7.45-27.28,11.46-39.48,7.45-20.64,10.32-25.42c.2-.33,1.58-2,8.9-4a108.27,108.27,0,0,1,19-3.18c3.36-.29,6.7-.43,9.94-.43m-5.65,87.8c.69,0,1.42,0,2.17,0,3.41-.14,13.79-.54,15.24-7.92.4-2.07,0-5.63-6.39-16.26C76.3,59.93,73,57,69.54,57a6,6,0,0,0-4.47,2.07c-2.49,2.64-4.84,6.81-7.17,12.73-3.24,8.24-3,11.23-2.41,12.9,2,6,10.81,6,13.7,6M74.84,0c-3.33,0-6.73.15-10.18.44A110.79,110.79,0,0,0,45.2,3.71Q36.41,6.07,34.6,9,30.07,16.52,24,35T12.48,74.69Q7,95.85,3.43,115.46T0,144.82a7.29,7.29,0,0,0,2,4.93q2.11,2.61,17.45,3.06,5.1.15,9,.15a59,59,0,0,0,10.48-.6,4.7,4.7,0,0,0,2.72-1.51q1.8-1.8,5.63-9.55t6.83-14.07q2.31-4.94,10.06-5.13l16.49.1a7.52,7.52,0,0,1,5,2.71q3.22,3.93,6.59,14.43t7,12.72a6.07,6.07,0,0,0,2.41.9,30.05,30.05,0,0,0,3.49.14q4.39,0,12.95-.49a201.85,201.85,0,0,0,22-2.26q5.22-.9,7.34-3.27c1.41-1.57,1.67-4.37.8-8.39q-1.91-8.25-7.74-28.15T127.3,69q-7.33-21.66-15-40.07T99,5.06Q95,1.45,85.17.49C81.8.16,78.35,0,74.84,0ZM69.19,87.8q-9.6,0-11-4-.91-2.61,2.36-10.91t6.58-11.81a3.19,3.19,0,0,1,2.37-1.17c2.25,0,5,2.69,8.19,8.05q6.63,11.11,6,14.23-1,5.13-12.51,5.58c-.72,0-1.4,0-2.06,0Z"/><path class="cls-8" d="M94.28,8a4.8,4.8,0,0,0-6.8,0,5,5,0,0,0-1.41,3.4v1a4.91,4.91,0,0,0,1.41,3.4,4.8,4.8,0,0,0,6.8,0,5,5,0,0,0,1.41-3.4v-1A5,5,0,0,0,94.28,8Z"/><path class="cls-8" d="M116.62,56.07a77.48,77.48,0,0,0-14-34.08c-3.6-5-12-.17-8.3,4.86a71.62,71.62,0,0,1,13,31.78C108.26,64.73,117.53,62.14,116.62,56.07Z"/></g></g></svg>