<svg xmlns="http://www.w3.org/2000/svg" xmlns:xlink="http://www.w3.org/1999/xlink" viewBox="0 0 121.94 147.5"><defs><style>.cls-1{mask:url(#mask);filter:url(#luminosity-noclip-2);}.cls-2{mix-blend-mode:multiply;fill:url(#linear-gradient);}.cls-3{fill:url(#linear-gradient-2);}.cls-4{mask:url(#mask-2);}.cls-5{fill:url(#linear-gradient-3);}.cls-6{fill:#5f5;}.cls-7{fill:#f8f9f6;}.cls-8{filter:url(#luminosity-noclip);}</style><filter id="luminosity-noclip" x="10.94" y="-10982.64" width="100.07" height="32766" filterUnits="userSpaceOnUse" color-interpolation-filters="sRGB"><feFlood flood-color="#fff" result="bg"/><feBlend in="SourceGraphic" in2="bg"/></filter><mask id="mask" x="10.94" y="-10982.64" width="100.07" height="32766" maskUnits="userSpaceOnUse"><g class="cls-8"/></mask><linearGradient id="linear-gradient" x1="60.98" y1="131.09" x2="60.98" y2="5.47" gradientUnits="userSpaceOnUse"><stop offset="0" stop-color="#fff"/><stop offset="0.54"/><stop offset="0.58" stop-color="#080808"/><stop offset="0.64" stop-color="#1c1c1c"/><stop offset="0.71" stop-color="#3f3f3f"/><stop offset="0.79" stop-color="#6e6e6e"/><stop offset="0.89" stop-color="#ababab"/><stop offset="0.99" stop-color="#f4f4f4"/><stop offset="1" stop-color="#fff"/></linearGradient><linearGradient id="linear-gradient-2" x1="60.97" y1="147.5" x2="60.97" gradientUnits="userSpaceOnUse"><stop offset="0" stop-color="#12ff00"/><stop offset="1" stop-color="#00bf01"/></linearGradient><filter id="luminosity-noclip-2" x="10.94" y="5.47" width="100.07" height="125.62" filterUnits="userSpaceOnUse" color-interpolation-filters="sRGB"><feFlood flood-color="#fff" result="bg"/><feBlend in="SourceGraphic" in2="bg"/></filter><mask id="mask-2" x="10.94" y="5.47" width="100.07" height="125.62" maskUnits="userSpaceOnUse"><g class="cls-1"><path class="cls-2" d="M46.72,131.09H43c-7.36,0-14.37-.25-20.86-.65-3.17-.2-5.4-.44-6.94-.66a96.78,96.78,0,0,1-1.6-11.08c-1.18-11.73-2-25.12-2.33-39.81s-.41-29.2-.1-42.91S12,15.1,12.5,11.53a20.5,20.5,0,0,1,3.1-1.48A70.47,70.47,0,0,1,33.82,6a111,111,0,0,1,11.41-.57c4.09,0,8.39.21,12.76.63a72.81,72.81,0,0,1,22,5.41c8.21,3.68,13.55,9.5,16.3,17.81s1.85,15.32-2.73,22.47a10.93,10.93,0,0,0,3.14,15L97,67l.41.26c6.14,3.72,10,8.27,11.91,13.91a35.07,35.07,0,0,1,.55,19.72A39.09,39.09,0,0,1,98,121a35,35,0,0,1-21.38,9.35l-.2,0c-1.34.15-4.59.37-12.43.56C58.58,131,52.77,131.09,46.72,131.09Zm-7.1-23.68c1.36,3,5.57,9.53,16.27,9.53a39.06,39.06,0,0,0,10.39-1.62C81.84,111,85.61,99.41,83.94,90c-1-5.66-4.32-13.5-14.54-18.74a29,29,0,0,0-13.23-3.42A24.24,24.24,0,0,0,46.07,70l-.13.06c-6.29,3-9.51,9.55-9.56,19.59C36.33,96.84,37.39,102.64,39.62,107.41Zm7.84-48.16a21.73,21.73,0,0,0,6.67,1.06,24.2,24.2,0,0,0,13.54-4.38c6.73-4.49,10.44-11,10.44-18.43a19.93,19.93,0,0,0-6.57-14.67c-4.19-4-10-6.07-17.16-6.18h-.16c-12.76,0-16.28,7.55-17.21,11-1.16,4.1-1.37,9-.65,14.93C37.45,51.65,41.19,57.26,47.46,59.25Z"/></g></mask><linearGradient id="linear-gradient-3" x1="60.98" y1="131.09" x2="60.98" y2="5.47" gradientUnits="userSpaceOnUse"><stop offset="0" stop-color="#12da00"/><stop offset="1" stop-color="#00bf01"/></linearGradient></defs><title>B</title><g id="Layer_2" data-name="Layer 2"><g id="objects"><path class="cls-3" d="M77.65,146.68q-3.44.39-13.38.62t-21.34.19q-11.38,0-21.48-.66T7.84,144.68q-3.34-1.34-5.15-19.43T.31,84.63Q-.26,62.12.22,41.2T2,13.25q.86-4.47,9.57-7.9A80.68,80.68,0,0,1,32.69.63,132.51,132.51,0,0,1,59,.68,83.51,83.51,0,0,1,84.41,7q16.66,7.44,22.28,24.39t-3.9,31.81l.29.19Q115.65,71,119.7,83.16a46.13,46.13,0,0,1,.8,25.71,50,50,0,0,1-15,25.57A45.93,45.93,0,0,1,77.65,146.68ZM47.55,36q-1.14,4-.33,10.72c.54,4.47,1.73,7,3.57,7.57Q56,56,61.6,52.3T67.17,43A9.21,9.21,0,0,0,64,36.2q-3.19-3-9.76-3.14C50.28,33.06,48.06,34.05,47.55,36Zm2,72.29q2.28,5.15,13.81,2t9.81-12.9q-1.24-7-8.76-10.91t-13.81-1Q47.36,87,47.31,95.21T49.55,108.3Z"/><g class="cls-4"><path class="cls-5" d="M46.72,131.09H43c-7.36,0-14.37-.25-20.86-.65-3.17-.2-5.4-.44-6.94-.66a96.78,96.78,0,0,1-1.6-11.08c-1.18-11.73-2-25.12-2.33-39.81s-.41-29.2-.1-42.91S12,15.1,12.5,11.53a20.5,20.5,0,0,1,3.1-1.48A70.47,70.47,0,0,1,33.82,6a111,111,0,0,1,11.41-.57c4.09,0,8.39.21,12.76.63a72.81,72.81,0,0,1,22,5.41c8.21,3.68,13.55,9.5,16.3,17.81s1.85,15.32-2.73,22.47a10.93,10.93,0,0,0,3.14,15L97,67l.41.26c6.14,3.72,10,8.27,11.91,13.91a35.07,35.07,0,0,1,.55,19.72A39.09,39.09,0,0,1,98,121a35,35,0,0,1-21.38,9.35l-.2,0c-1.34.15-4.59.37-12.43.56C58.58,131,52.77,131.09,46.72,131.09Zm-7.1-23.68c1.36,3,5.57,9.53,16.27,9.53a39.06,39.06,0,0,0,10.39-1.62C81.84,111,85.61,99.41,83.94,90c-1-5.66-4.32-13.5-14.54-18.74a29,29,0,0,0-13.23-3.42A24.24,24.24,0,0,0,46.07,70l-.13.06c-6.29,3-9.51,9.55-9.56,19.59C36.33,96.84,37.39,102.64,39.62,107.41Zm7.84-48.16a21.73,21.73,0,0,0,6.67,1.06,24.2,24.2,0,0,0,13.54-4.38c6.73-4.49,10.44-11,10.44-18.43a19.93,19.93,0,0,0-6.57-14.67c-4.19-4-10-6.07-17.16-6.18h-.16c-12.76,0-16.28,7.55-17.21,11-1.16,4.1-1.37,9-.65,14.93C37.45,51.65,41.19,57.26,47.46,59.25Z"/></g><path class="cls-6" d="M45.23,0V2.73c4.35,0,8.91.23,13.54.67A81.23,81.23,0,0,1,83.3,9.46c10.47,4.67,17.27,12.11,20.8,22.75s2.32,20.21-3.61,29.47L99,63.94l2.23,1.49.29.19,0,0,0,0c7.77,4.71,13,10.87,15.44,18.33a43.62,43.62,0,0,1,.74,24.22,47.58,47.58,0,0,1-14.24,24.2A43.51,43.51,0,0,1,77.39,144h0c-2.2.25-6.62.45-13.14.61-5.47.13-11.34.2-17.44.2H42.94c-7.5,0-14.68-.26-21.32-.66-7.78-.48-11.15-1.28-12.61-1.89-.37-.41-2.18-3.09-3.6-17.23C4.22,113.05,3.42,99.45,3,84.56S2.64,55.11,3,41.27s.91-23,1.76-27.51c.22-1.11,1.53-3.37,7.89-5.87A78.72,78.72,0,0,1,33,3.35a118.57,118.57,0,0,1,12.25-.62V0m-.32,35.29c-.86,3.05-1,6.9-.41,11.76.25,2.1,1,8.48,5.44,9.85a13.4,13.4,0,0,0,4.19.67,16.12,16.12,0,0,0,9-3c4.5-3,6.78-6.91,6.78-11.6a11.85,11.85,0,0,0-4-8.74c-2.64-2.52-6.54-3.83-11.65-3.9-5.31,0-8.44,1.67-9.31,5m2.16,74.15c1,2.18,3.3,4.77,8.82,4.77a31.13,31.13,0,0,0,8.2-1.32c12.11-3.36,12.57-11.48,11.77-16-1-5.56-4.41-9.89-10.2-12.86a20.88,20.88,0,0,0-9.49-2.52A16.11,16.11,0,0,0,49.43,83c-3.23,1.52-4.81,5.52-4.85,12.22,0,5.94.78,10.61,2.49,14.25M45.22,0A121.5,121.5,0,0,0,32.69.63,80.68,80.68,0,0,0,11.6,5.35Q2.89,8.77,2,13.25q-1.33,7-1.81,28T.31,84.63q.57,22.53,2.38,40.62t5.15,19.43q3.51,1.53,13.61,2.15t21.48.66h3.83q9.24,0,17.51-.2,9.95-.24,13.38-.62a45.93,45.93,0,0,0,27.81-12.24,50,50,0,0,0,15-25.57,46.13,46.13,0,0,0-.8-25.71q-4-12.19-16.62-19.81l-.29-.19q9.52-14.86,3.9-31.81T84.41,7A83.51,83.51,0,0,0,59,.68Q51.92,0,45.22,0Zm8.91,54.84a10.71,10.71,0,0,1-3.34-.54c-1.84-.57-3-3.1-3.57-7.57s-.43-8,.33-10.72c.51-2,2.73-2.95,6.67-2.95q6.57.09,9.76,3.14A9.21,9.21,0,0,1,67.17,43q0,5.61-5.57,9.33a13.48,13.48,0,0,1-7.47,2.54Zm1.76,56.63c-3.28,0-5.4-1-6.34-3.17q-2.28-4.86-2.24-13.09t3.29-9.77a13.31,13.31,0,0,1,5.57-1.21,18.17,18.17,0,0,1,8.24,2.21q7.52,3.86,8.76,10.91,1.71,9.7-9.81,12.9a28.58,28.58,0,0,1-7.47,1.22Z"/><path class="cls-7" d="M74.77,9.4c-5.87,0-5.87,9.12,0,9.12S80.64,9.4,74.77,9.4Z"/><path class="cls-7" d="M88.54,17.6c-4.92-3.24-9.49,4.65-4.6,7.87,9.57,6.29,9.27,19,.69,26-4.55,3.7,1.93,10.12,6.45,6.45C104.47,47,102.6,26.85,88.54,17.6Z"/><path class="cls-7" d="M107.53,98.9a31.51,31.51,0,0,1-17.84,27.2c-5.27,2.6-.65,10.46,4.6,7.87A40.67,40.67,0,0,0,116.65,98.9C116.85,93,107.73,93,107.53,98.9Z"/></g></g></svg>