<svg xmlns="http://www.w3.org/2000/svg" xmlns:xlink="http://www.w3.org/1999/xlink" viewBox="0 0 244.61 328.55"><defs><style>.cls-1{fill:url(#linear-gradient);}.cls-2{opacity:0.3;fill:url(#linear-gradient-2);}.cls-2,.cls-3{isolation:isolate;}.cls-3{fill:#ffc260;opacity:0.5;}.cls-4{fill:#ffffd8;}</style><linearGradient id="linear-gradient" y1="2702.29" x2="244.61" y2="2702.29" gradientTransform="matrix(1, 0, 0, -1, 0, 2866.57)" gradientUnits="userSpaceOnUse"><stop offset="0.08" stop-color="#fa0"/><stop offset="0.53" stop-color="#fea800"/><stop offset="0.69" stop-color="#fba100"/><stop offset="0.81" stop-color="#f69600"/><stop offset="0.9" stop-color="#ee8500"/></linearGradient><linearGradient id="linear-gradient-2" x1="90.13" y1="2741.07" x2="233.8" y2="2741.07" gradientTransform="matrix(1, 0, 0, -1, 0, 2866.57)" gradientUnits="userSpaceOnUse"><stop offset="0" stop-color="#ffd56a"/><stop offset="1" stop-color="#e96800"/></linearGradient></defs><title>Balloon1</title><g id="Layer_2" data-name="Layer 2"><g id="objects"><path class="cls-1" d="M127.32,328C63,321,5.08,237.19.6,155.94-.66,133.19-4.85,57.41,51.93,19.3c38-25.53,89.14-24.53,126.34-4.07,65.55,36.05,66.18,120.58,66.34,141.61.56,75.4-43.61,163.42-101,171.18A63.44,63.44,0,0,1,127.32,328Z"/><path class="cls-2" d="M216.47,244.61c-3.91.18-1.92-20.53-18.34-56.08C180.47,150.29,154,121.84,138,105,108.74,74,90,63.34,90.13,41.82c0-2.13,0-19.14,11.21-28.53,20-16.72,65.23-.45,89.66,20.38C260.44,92.88,227,244.13,216.47,244.61Z"/><path class="cls-3" d="M24.83,208c1.6-15.75,53.67,50.15,64,81.41S20.27,253.18,24.83,208Z"/><path class="cls-4" d="M78.71,275.86c-16.82-.79,1.17,9.6,10.11,13.51S90.32,276.4,78.71,275.86Z"/></g></g></svg>