<svg xmlns="http://www.w3.org/2000/svg" xmlns:xlink="http://www.w3.org/1999/xlink" viewBox="0 0 244.61 328.55"><defs><style>.cls-1{fill:url(#linear-gradient);}.cls-2{opacity:0.3;isolation:isolate;fill:url(#linear-gradient-2);}.cls-3{fill:#50ff50;}.cls-4{fill:#ffffd8;}</style><linearGradient id="linear-gradient" y1="2355.55" x2="244.61" y2="2355.55" gradientTransform="matrix(1, 0, 0, -1, 0, 2519.83)" gradientUnits="userSpaceOnUse"><stop offset="0" stop-color="#12ff00"/><stop offset="1" stop-color="#00bf01"/></linearGradient><linearGradient id="linear-gradient-2" x1="90.13" y1="2394.32" x2="233.8" y2="2394.32" gradientTransform="matrix(1, 0, 0, -1, 0, 2519.83)" gradientUnits="userSpaceOnUse"><stop offset="0" stop-color="#eaedea"/><stop offset="1" stop-color="#00aa14"/></linearGradient></defs><title>Balloon6</title><g id="Layer_2" data-name="Layer 2"><g id="objects"><path class="cls-1" d="M127.33,328C63,321,5.08,237.19.6,155.94-.66,133.2-4.85,57.41,51.93,19.31c38-25.54,89.14-24.54,126.34-4.08,65.55,36.06,66.18,120.58,66.34,141.61.56,75.4-43.61,163.42-101,171.18A63.37,63.37,0,0,1,127.33,328Z"/><path class="cls-2" d="M216.47,244.62c-3.91.19-1.92-20.53-18.34-56.07C180.47,150.3,154,121.85,138,105,108.75,74,90,63.36,90.13,41.83c0-2.13,0-19.14,11.21-28.53,20-16.71,65.23-.45,89.66,20.38C260.44,92.88,227,244.13,216.47,244.62Z"/><path class="cls-3" d="M24.84,208c1.59-15.75,53.66,50.16,64,81.42S20.27,253.18,24.84,208Z"/><path class="cls-4" d="M78.71,275.86c-16.82-.79,1.17,9.61,10.11,13.52S90.32,276.41,78.71,275.86Z"/></g></g></svg>