<svg xmlns="http://www.w3.org/2000/svg" xmlns:xlink="http://www.w3.org/1999/xlink" viewBox="0 0 244.61 328.55"><defs><style>.cls-1{fill:url(#linear-gradient);}.cls-2{opacity:0.3;isolation:isolate;fill:url(#linear-gradient-2);}.cls-3{fill:#ffb35b;opacity:0.29;}.cls-4{fill:#ffffd8;}</style><linearGradient id="linear-gradient" x1="122.31" y1="2264.67" x2="122.31" y2="2593.23" gradientTransform="matrix(1, 0, 0, -1, 0, 2593.23)" gradientUnits="userSpaceOnUse"><stop offset="0" stop-color="#ff9000"/><stop offset="1" stop-color="#ff6900"/></linearGradient><linearGradient id="linear-gradient-2" x1="90.16" y1="2467.72" x2="233.81" y2="2467.72" gradientTransform="matrix(1, 0, 0, -1, 0, 2593.23)" gradientUnits="userSpaceOnUse"><stop offset="0" stop-color="#ffd56a"/><stop offset="1" stop-color="#e96e00"/></linearGradient></defs><title>Balloon2</title><g id="Layer_2" data-name="Layer 2"><g id="objects"><path class="cls-1" d="M127.33,328C63,321,5.09,237.19.6,156-.66,133.2-4.84,57.41,51.93,19.31c38-25.54,89.14-24.54,126.34-4.08,65.56,36.06,66.19,120.59,66.34,141.62.56,75.39-43.61,163.41-101,171.17A62.48,62.48,0,0,1,127.33,328Z"/><path class="cls-2" d="M216.5,244.63c-3.92.18-1.93-20.54-18.34-56.08C180.49,150.31,154,121.85,138,105,108.77,74,90,63.36,90.16,41.83c0-2.13-.06-19.13,11.21-28.53,20-16.71,65.22-.45,89.66,20.38C260.44,92.88,227,244.13,216.5,244.63Z"/><path class="cls-3" d="M24.84,207.94c1.59-15.75,53.67,50.15,64,81.41S20.27,253.18,24.84,207.94Z"/><path class="cls-4" d="M78.71,275.86c-16.82-.79,1.17,9.61,10.11,13.52S90.33,276.41,78.71,275.86Z"/></g></g></svg>