<svg xmlns="http://www.w3.org/2000/svg" xmlns:xlink="http://www.w3.org/1999/xlink" viewBox="0 0 244.61 328.55"><defs><style>.cls-1{fill:url(#linear-gradient);}.cls-2{opacity:0.3;isolation:isolate;fill:url(#linear-gradient-2);}.cls-3{fill:#ff3e5a;}.cls-4{fill:#ffffd8;}</style><linearGradient id="linear-gradient" y1="2403.41" x2="244.61" y2="2403.41" gradientTransform="matrix(1, 0, 0, -1, 0, 2567.69)" gradientUnits="userSpaceOnUse"><stop offset="0.07" stop-color="#e90022"/><stop offset="1" stop-color="#a7001d"/></linearGradient><linearGradient id="linear-gradient-2" x1="90.13" y1="2442.18" x2="233.8" y2="2442.18" gradientTransform="matrix(1, 0, 0, -1, 0, 2567.69)" gradientUnits="userSpaceOnUse"><stop offset="0" stop-color="#ffdbea"/><stop offset="1" stop-color="#aa0017"/></linearGradient></defs><title>Balloon4</title><g id="Layer_2" data-name="Layer 2"><g id="objects"><path class="cls-1" d="M127.32,328C63,321,5.08,237.19.59,155.94-.66,133.2-4.85,57.41,51.92,19.3c38-25.53,89.15-24.53,126.34-4.07,65.56,36.06,66.19,120.58,66.34,141.61.56,75.4-43.61,163.42-101,171.18A63.37,63.37,0,0,1,127.32,328Z"/><path class="cls-2" d="M216.47,244.62c-3.91.19-1.93-20.53-18.34-56.07C180.47,150.3,153.94,121.85,138,105,108.74,74,90,63.36,90.13,41.83c0-2.13-.06-19.14,11.21-28.53,20-16.71,65.22-.45,89.66,20.38C260.44,92.88,227,244.17,216.47,244.62Z"/><path class="cls-3" d="M24.83,208c1.59-15.75,53.67,50.16,64,81.42S20.26,253.17,24.83,208Z"/><path class="cls-4" d="M78.7,275.86c-16.82-.79,1.17,9.6,10.11,13.52S90.32,276.4,78.7,275.86Z"/></g></g></svg>