<svg xmlns="http://www.w3.org/2000/svg" xmlns:xlink="http://www.w3.org/1999/xlink" viewBox="0 0 118.46 148.56"><defs><style>.cls-1{mask:url(#mask);filter:url(#luminosity-noclip-2);}.cls-2{mix-blend-mode:multiply;fill:url(#linear-gradient);}.cls-3{fill:url(#linear-gradient-2);}.cls-4{mask:url(#mask-2);}.cls-5{fill:url(#linear-gradient-3);}.cls-6{fill:#5f5;}.cls-7{fill:#f8f9f6;}.cls-8{filter:url(#luminosity-noclip);}</style><filter id="luminosity-noclip" x="11.09" y="-10940.46" width="96.26" height="32766" filterUnits="userSpaceOnUse" color-interpolation-filters="sRGB"><feFlood flood-color="#fff" result="bg"/><feBlend in="SourceGraphic" in2="bg"/></filter><mask id="mask" x="11.09" y="-10940.46" width="96.26" height="32766" maskUnits="userSpaceOnUse"><g class="cls-8"/></mask><linearGradient id="linear-gradient" x1="59.23" y1="131.91" x2="59.23" y2="5.55" gradientUnits="userSpaceOnUse"><stop offset="0" stop-color="#fff"/><stop offset="0.54"/><stop offset="0.58" stop-color="#080808"/><stop offset="0.64" stop-color="#1c1c1c"/><stop offset="0.71" stop-color="#3f3f3f"/><stop offset="0.79" stop-color="#6e6e6e"/><stop offset="0.89" stop-color="#ababab"/><stop offset="0.99" stop-color="#f4f4f4"/><stop offset="1" stop-color="#fff"/></linearGradient><linearGradient id="linear-gradient-2" x1="59.23" y1="148.56" x2="59.23" gradientUnits="userSpaceOnUse"><stop offset="0" stop-color="#12ff00"/><stop offset="1" stop-color="#00bf01"/></linearGradient><filter id="luminosity-noclip-2" x="11.09" y="5.55" width="96.26" height="126.37" filterUnits="userSpaceOnUse" color-interpolation-filters="sRGB"><feFlood flood-color="#fff" result="bg"/><feBlend in="SourceGraphic" in2="bg"/></filter><mask id="mask-2" x="11.09" y="5.55" width="96.26" height="126.37" maskUnits="userSpaceOnUse"><g class="cls-1"><path class="cls-2" d="M74.4,131.91c-11.07-.08-21-2.1-29.61-6-11.64-5.24-20.24-12.66-26.31-22.7s-8.31-21-7-34C13.64,48,21.71,31.89,36.11,20.12c12-9.81,26.14-14.57,43.27-14.57A99,99,0,0,1,90,6.13c.42,0,1.62.18,3.46,2.41.92,1.17,3.23,5,5.46,15.52,1,4.76.94,8.52-.16,10.35-2.58.13-5.13.28-7.62.45A89.61,89.61,0,0,0,81.82,36l-.31,0A49,49,0,0,0,57.77,48.34c-8.41,7.72-11.67,17.8-9.42,29.13l0,.09a24.24,24.24,0,0,0,8.87,14.52c5.78,4.55,13.12,6.86,21.82,6.86l1.22,0a99.4,99.4,0,0,0,19.39-2.15c.32-.08.63-.16.94-.26a7.94,7.94,0,0,1,1.77,2c2.1,3.26,3.61,8,4.49,14,.82,5.66.6,10.31-.64,13.43a7.32,7.32,0,0,1-.39.87l-.45.15a87.5,87.5,0,0,1-30.14,5Z"/></g></mask><linearGradient id="linear-gradient-3" x1="59.23" y1="131.91" x2="59.23" y2="5.55" gradientUnits="userSpaceOnUse"><stop offset="0" stop-color="#12da00"/><stop offset="1" stop-color="#00bf01"/></linearGradient></defs><title>C</title><g id="Layer_2" data-name="Layer 2"><g id="objects"><path class="cls-3" d="M100.31,51c-2.84.13-5.65.29-8.46.48a81.28,81.28,0,0,0-8.16,1,37.88,37.88,0,0,0-18.41,9.61q-8.26,7.59-6,18.8a13,13,0,0,0,4.83,8q6,4.74,15.94,4.5a88.1,88.1,0,0,0,17.21-1.89,10.54,10.54,0,0,1,7.92.39,17.23,17.23,0,0,1,6.48,6q4.53,7,6.23,18.56t-1.3,19.13c-1.62,4.13-4.06,6.57-7.35,7.35a98.73,98.73,0,0,1-34.89,5.65q-19-.15-34.11-7Q19.8,132.37,9,114.49T.38,73.71q3.77-36.24,28.7-56.64T91.13.64c4.12.46,7.76,2.61,10.92,6.48s5.65,10.6,7.68,20.2.82,16.62-3.62,21.07A8.39,8.39,0,0,1,100.31,51Z"/><g class="cls-4"><path class="cls-5" d="M74.4,131.91c-11.07-.08-21-2.1-29.61-6-11.64-5.24-20.24-12.66-26.31-22.7s-8.31-21-7-34C13.64,48,21.71,31.89,36.11,20.12c12-9.81,26.14-14.57,43.27-14.57A99,99,0,0,1,90,6.13c.42,0,1.62.18,3.46,2.41.92,1.17,3.23,5,5.46,15.52,1,4.76.94,8.52-.16,10.35-2.58.13-5.13.28-7.62.45A89.61,89.61,0,0,0,81.82,36l-.31,0A49,49,0,0,0,57.77,48.34c-8.41,7.72-11.67,17.8-9.42,29.13l0,.09a24.24,24.24,0,0,0,8.87,14.52c5.78,4.55,13.12,6.86,21.82,6.86l1.22,0a99.4,99.4,0,0,0,19.39-2.15c.32-.08.63-.16.94-.26a7.94,7.94,0,0,1,1.77,2c2.1,3.26,3.61,8,4.49,14,.82,5.66.6,10.31-.64,13.43a7.32,7.32,0,0,1-.39.87l-.45.15a87.5,87.5,0,0,1-30.14,5Z"/></g><path class="cls-6" d="M79.38,2.77a110.23,110.23,0,0,1,11.45.63c3.4.38,6.37,2.17,9,5.45,2.81,3.51,5.21,9.91,7.14,19,1.81,8.58.85,14.82-2.87,18.54a5.62,5.62,0,0,1-3.92,1.79h0c-2.89.14-5.76.3-8.52.49s-5.71.54-8.44,1h-.08A40.78,40.78,0,0,0,63.4,60c-6.25,5.73-8.56,12.93-6.88,21.4a15.78,15.78,0,0,0,5.83,9.64c4.28,3.39,9.9,5.1,16.71,5.1h1a91.24,91.24,0,0,0,17.75-2l.13,0,.13,0a8.66,8.66,0,0,1,2.64-.45,7.84,7.84,0,0,1,3.23.72,14.43,14.43,0,0,1,5.35,5c2.78,4.28,4.73,10.14,5.8,17.42s.66,13.16-1.15,17.72c-1.27,3.25-3,5.1-5.39,5.66l-.17,0-.15.06a95.92,95.92,0,0,1-33,5.49h-.92c-12.24-.09-23.34-2.36-33-6.76-13-5.85-23.1-14.59-30-26S1.72,88.57,3.14,74c2.42-23.3,11.74-41.73,27.7-54.78C44.18,8.31,60.51,2.78,79.38,2.77h0m0-2.77Q50,0,29.08,17.07,4.15,37.47.38,73.71-1.84,96.62,9,114.49T40.2,141.55q15.07,6.87,34.11,7h.94a98.19,98.19,0,0,0,34-5.65c3.29-.78,5.73-3.22,7.35-7.35q3-7.53,1.3-19.13t-6.23-18.56a17.23,17.23,0,0,0-6.48-6,10.69,10.69,0,0,0-4.41-1,11.14,11.14,0,0,0-3.51.59A88.1,88.1,0,0,1,80,93.38h-1q-9.28,0-15-4.51a13,13,0,0,1-4.83-8q-2.24-11.2,6-18.8a37.88,37.88,0,0,1,18.41-9.61,81.28,81.28,0,0,1,8.16-1c2.81-.19,5.62-.35,8.46-.48a8.39,8.39,0,0,0,5.8-2.61q6.66-6.68,3.62-21.07t-7.68-20.2c-3.16-3.87-6.8-6-10.92-6.48A110.64,110.64,0,0,0,79.38,0Z"/><path class="cls-7" d="M71.14,7c-6,0-6,9.24,0,9.24S77.1,7,71.14,7Z"/><path class="cls-7" d="M105.52,34.93C103.21,25.71,100.19.76,84.73,7c-5.44,2.21-3.06,11.16,2.46,8.92,5.8-2.35,8.43,17.55,9.41,21.45C98,43.16,107,40.72,105.52,34.93Z"/><path class="cls-7" d="M103.41,100.06c-3.88-4.53-10.4,2-6.54,6.54a20.92,20.92,0,0,1,2.46,23.89c-2.81,5.25,5.18,9.92,8,4.67A30.54,30.54,0,0,0,103.41,100.06Z"/></g></g></svg>