<svg xmlns="http://www.w3.org/2000/svg" xmlns:xlink="http://www.w3.org/1999/xlink" viewBox="0 0 145.79 153.13"><defs><style>.cls-1{mask:url(#mask);filter:url(#luminosity-noclip-2);}.cls-2{mix-blend-mode:multiply;fill:url(#linear-gradient);}.cls-3{isolation:isolate;}.cls-4{fill:url(#Gradient_28);}.cls-5{mask:url(#mask-2);}.cls-6{fill:#fff;opacity:0.3;mix-blend-mode:soft-light;}.cls-7{fill:#d78dc0;}.cls-8{fill:#f8f9f6;}.cls-9{filter:url(#luminosity-noclip);}</style><filter id="luminosity-noclip" x="12.48" y="-10950.79" width="120.85" height="32766" filterUnits="userSpaceOnUse" color-interpolation-filters="sRGB"><feFlood flood-color="#fff" result="bg"/><feBlend in="SourceGraphic" in2="bg"/></filter><mask id="mask" x="12.48" y="-10950.79" width="120.85" height="32766" maskUnits="userSpaceOnUse"><g class="cls-9"/></mask><linearGradient id="linear-gradient" x1="72.91" y1="136.02" x2="72.91" y2="5.7" gradientUnits="userSpaceOnUse"><stop offset="0" stop-color="#fff"/><stop offset="0.54"/><stop offset="0.58" stop-color="#080808"/><stop offset="0.64" stop-color="#1c1c1c"/><stop offset="0.71" stop-color="#3f3f3f"/><stop offset="0.79" stop-color="#6e6e6e"/><stop offset="0.89" stop-color="#ababab"/><stop offset="0.99" stop-color="#f4f4f4"/><stop offset="1" stop-color="#fff"/></linearGradient><linearGradient id="Gradient_28" x1="72.9" y1="153.13" x2="72.9" gradientUnits="userSpaceOnUse"><stop offset="0" stop-color="#ca007c"/><stop offset="1" stop-color="#f2189a"/></linearGradient><filter id="luminosity-noclip-2" x="12.48" y="5.7" width="120.85" height="130.32" filterUnits="userSpaceOnUse" color-interpolation-filters="sRGB"><feFlood flood-color="#fff" result="bg"/><feBlend in="SourceGraphic" in2="bg"/></filter><mask id="mask-2" x="12.48" y="5.7" width="120.85" height="130.32" maskUnits="userSpaceOnUse"><g class="cls-1"><path class="cls-2" d="M49.07,136H47c-6-.12-11.88-.51-17.48-1.15a67.67,67.67,0,0,1-8.12-1.32c-.86-1.65-2.6-5.9-4.32-15.52a311.23,311.23,0,0,1-4.41-45.1,345.31,345.31,0,0,1,1.47-45.77c1.2-11.44,3-15.87,3.68-17.26C19.75,9,23.6,7.73,30.89,6.76A139,139,0,0,1,48.32,5.7a179.84,179.84,0,0,1,23,1.56c13.44,1.75,24.88,6,34,12.61,12.34,9.13,20.58,21,25.16,36.27C135,71.24,134.18,85,128,98.26c-6.75,14.52-17,24.13-31.22,29.39A137.24,137.24,0,0,1,49.07,136Zm6-39.42c3,1.62,6.68,2.37,11.56,2.37h0c.66,0,1.34,0,2.07,0A43.47,43.47,0,0,0,89.25,93.7a23.65,23.65,0,0,0,12.36-18.54C102.47,66.06,98.8,58,91,51.82A40.69,40.69,0,0,0,69.1,42.71l-.36,0c-.77,0-1.56-.08-2.34-.08a38.6,38.6,0,0,0-7.55.76C52.25,44.71,47.35,48.92,45.4,55c-1.71,5.11-2.14,11.76-1.3,20.34C44.85,83,46.78,92.28,55.11,96.6Z"/></g></mask></defs><title>D</title><g class="cls-3"><g id="Layer_2" data-name="Layer 2"><g id="objects"><path class="cls-4" d="M139.49,108.43q-12.06,25.92-38,35.5a150.54,150.54,0,0,1-54.65,9.19Q37,152.91,28,151.87t-13.09-2.63q-6.3-2.38-10.11-23.68A322,322,0,0,1,.19,78.93,352.93,352.93,0,0,1,1.71,31.76Q4,9.92,10.19,6.44t18.9-5.26a172.47,172.47,0,0,1,44,.49q23.63,3.09,40,15a79.24,79.24,0,0,1,29.39,42.15Q150.35,85.1,139.49,108.43ZM57.35,63.94q-1.86,5.46-.82,16t4.84,12.46c1.15.66,3.47.93,6.95.79a30.08,30.08,0,0,0,14.34-3.52,12.17,12.17,0,0,0,6.52-9.88q.76-8.06-6.35-13.71a27.79,27.79,0,0,0-14.94-6.35,24.44,24.44,0,0,0-6.36.44A5.18,5.18,0,0,0,57.35,63.94Z"/><g class="cls-5"><path class="cls-6" d="M49.07,136H47c-6-.12-11.88-.51-17.48-1.15a67.67,67.67,0,0,1-8.12-1.32c-.86-1.65-2.6-5.9-4.32-15.52a311.23,311.23,0,0,1-4.41-45.1,345.31,345.31,0,0,1,1.47-45.77c1.2-11.44,3-15.87,3.68-17.26C19.75,9,23.6,7.73,30.89,6.76A139,139,0,0,1,48.32,5.7a179.84,179.84,0,0,1,23,1.56c13.44,1.75,24.88,6,34,12.61,12.34,9.13,20.58,21,25.16,36.27C135,71.24,134.18,85,128,98.26c-6.75,14.52-17,24.13-31.22,29.39A137.24,137.24,0,0,1,49.07,136Zm6-39.42c3,1.62,6.68,2.37,11.56,2.37h0c.66,0,1.34,0,2.07,0A43.47,43.47,0,0,0,89.25,93.7a23.65,23.65,0,0,0,12.36-18.54C102.47,66.06,98.8,58,91,51.82A40.69,40.69,0,0,0,69.1,42.71l-.36,0c-.77,0-1.56-.08-2.34-.08a38.6,38.6,0,0,0-7.55.76C52.25,44.71,47.35,48.92,45.4,55c-1.71,5.11-2.14,11.76-1.3,20.34C44.85,83,46.78,92.28,55.11,96.6Z"/></g><path class="cls-7" d="M48.32,2.85h0A187.78,187.78,0,0,1,72.61,4.5c15.12,2,28.09,6.81,38.52,14.39a76.85,76.85,0,0,1,28.34,40.69c5,16.79,4.08,32.85-2.85,47.73-7.66,16.48-19.89,27.91-36.33,34a147.57,147.57,0,0,1-51.21,9H46.87c-6.38-.13-12.61-.54-18.53-1.23-5.73-.65-9.85-1.47-12.29-2.43-1.1-.42-5-3.2-8.22-21.51A319.81,319.81,0,0,1,3.31,78.86,352.81,352.81,0,0,1,4.82,32c1.92-18.44,5.54-22.34,7-23.18C15.59,6.69,21.54,5.06,29.52,4a150.43,150.43,0,0,1,18.8-1.15m6,60.27c-1.36,4-1.67,9.63-.94,17.11.8,8.19,2.83,12.86,6.38,14.67,1.5.83,3.69,1.22,6.87,1.22.56,0,1.16,0,1.73,0a33.47,33.47,0,0,0,15.91-4,15,15,0,0,0,8-12.06c.6-6.29-1.9-11.71-7.41-16.1a31.14,31.14,0,0,0-16.69-7H68.1c-.56,0-1.13-.05-1.7-.05a28.3,28.3,0,0,0-5.54.56,8.22,8.22,0,0,0-6.5,5.69M48.32,0A151.61,151.61,0,0,0,29.09,1.18q-12.7,1.68-18.9,5.26T1.71,31.76A352.93,352.93,0,0,0,.19,78.93a322,322,0,0,0,4.56,46.63q3.81,21.3,10.11,23.68,4,1.59,13.09,2.63t18.86,1.25h2.27a150,150,0,0,0,52.38-9.2q26-9.59,38-35.5,10.88-23.34,3-49.61a79.24,79.24,0,0,0-29.39-42.15q-16.41-11.92-40-15A192.75,192.75,0,0,0,48.32,0ZM66.67,93.27q-3.86,0-5.3-.83Q57.56,90.55,56.53,80t.82-16a5.18,5.18,0,0,1,4.18-3.73,25.3,25.3,0,0,1,4.87-.49c.5,0,1,0,1.49.05a27.79,27.79,0,0,1,14.94,6.35q7.11,5.67,6.35,13.71a12.17,12.17,0,0,1-6.52,9.88,30.08,30.08,0,0,1-14.34,3.52c-.58,0-1.13,0-1.65,0Z"/><path class="cls-8" d="M93.16,14.66a4.76,4.76,0,1,0,0,9.5A4.76,4.76,0,1,0,93.16,14.66Z"/><path class="cls-8" d="M112.73,23.51c-5.17-3.8-12.57,2.89-7.35,6.72C127.75,46.69,134.07,75,119.71,98c-3.32,5.31,5.66,10.11,9,4.79C145.17,76.41,138.71,42.62,112.73,23.51Z"/></g></g></g></svg>