<svg xmlns="http://www.w3.org/2000/svg" xmlns:xlink="http://www.w3.org/1999/xlink" viewBox="0 0 112.55 148.36"><defs><style>.cls-1{mask:url(#mask);filter:url(#luminosity-noclip-2);}.cls-2{mix-blend-mode:multiply;fill:url(#linear-gradient);}.cls-3{fill:url(#linear-gradient-2);}.cls-4{mask:url(#mask-2);}.cls-5{fill:url(#linear-gradient-3);}.cls-6{fill:#8affff;}.cls-7{fill:#f8f9f6;}.cls-8{filter:url(#luminosity-noclip);}</style><filter id="luminosity-noclip" x="11.1" y="-10940.31" width="90.35" height="32766" filterUnits="userSpaceOnUse" color-interpolation-filters="sRGB"><feFlood flood-color="#fff" result="bg"/><feBlend in="SourceGraphic" in2="bg"/></filter><mask id="mask" x="11.1" y="-10940.31" width="90.35" height="32766" maskUnits="userSpaceOnUse"><g class="cls-8"/></mask><linearGradient id="linear-gradient" x1="56.27" y1="131.71" x2="56.27" y2="5.55" gradientUnits="userSpaceOnUse"><stop offset="0" stop-color="#fff"/><stop offset="0.54"/><stop offset="0.58" stop-color="#080808"/><stop offset="0.64" stop-color="#1c1c1c"/><stop offset="0.71" stop-color="#3f3f3f"/><stop offset="0.79" stop-color="#6e6e6e"/><stop offset="0.89" stop-color="#ababab"/><stop offset="0.99" stop-color="#f4f4f4"/><stop offset="1" stop-color="#fff"/></linearGradient><linearGradient id="linear-gradient-2" x1="56.27" y1="148.36" x2="56.27" gradientUnits="userSpaceOnUse"><stop offset="0.07" stop-color="#7ff9ff"/><stop offset="1" stop-color="#00bcbf"/></linearGradient><filter id="luminosity-noclip-2" x="11.1" y="5.55" width="90.35" height="126.16" filterUnits="userSpaceOnUse" color-interpolation-filters="sRGB"><feFlood flood-color="#fff" result="bg"/><feBlend in="SourceGraphic" in2="bg"/></filter><mask id="mask-2" x="11.1" y="5.55" width="90.35" height="126.16" maskUnits="userSpaceOnUse"><g class="cls-1"><path class="cls-2" d="M43.42,131.71c-4.35,0-8.69-.07-12.89-.19a119.84,119.84,0,0,1-14-1c-.36-1.57-.81-4-1.27-7.53-1.22-9.32-2.18-20.42-2.87-33s-1.12-25.8-1.24-39,0-24,.37-32.2c0-.17,0-.34,0-.51a54.74,54.74,0,0,1,.9-10.31c2-.28,5.27-.66,10.56-1,9.46-.69,19.84-1.12,30.86-1.28q3.74,0,7.35,0c8.19,0,16,.21,23.17.62,4,.23,6.73.5,8.52.75.2,1.72.4,4.31.49,8.14a97.72,97.72,0,0,1-.55,14.6c-1.08.16-2.53.32-4.45.45-8.19.54-17.91,1-28.89,1.38a11.11,11.11,0,0,0-10.72,11.1c0,1,0,2.15.12,3.4s.14,2.09.21,2.94A11.1,11.1,0,0,0,60,59.09c4.17.08,7.83.3,10.93.66A51.42,51.42,0,0,1,72.36,68a43.33,43.33,0,0,1,.22,6l-.56,0c-3.19.27-6.78.47-10.66.59a11.1,11.1,0,0,0-10.75,11.1v5.7a11.1,11.1,0,0,0,11.1,11.1h.12c11.41-.13,21.86-.46,31.05-1,1.85-.1,3.54-.16,5-.16.78,0,1.45,0,2,0,.35,2,.76,5.19,1.13,10.16a96.43,96.43,0,0,1,.17,15.77c-1.48.35-3.65.78-6.76,1.22-9,1.29-19.41,2.19-30.78,2.65C56.78,131.56,50,131.71,43.42,131.71Zm28.81-54"/></g></mask><linearGradient id="linear-gradient-3" x1="56.27" y1="131.71" x2="56.27" y2="5.55" xlink:href="#linear-gradient-2"/></defs><title>E</title><g id="Layer_2" data-name="Layer 2"><g id="objects"><path class="cls-3" d="M61.71,97q16.91-.2,30.54-1t16,1.84q2.61,2.13,3.82,18.46t-.92,23.68q-1,3.09-15.17,5.12a319.87,319.87,0,0,1-31.9,2.75q-17.69.72-33.92.24T9,145.55Q6.13,144.39,4.25,130T1.3,96.12Q.23,76.74.05,56.59T.43,23.78A64.72,64.72,0,0,1,1.59,11.07q1.17-5.74,3.58-7.2t17-2.51Q36.78.29,53.69.05T85,.63q14.4.83,16.53,3,2.61,2.13,2.94,16.77t-1.78,22.08q-1.06,3.48-13.58,4.3T59.87,48.14c0,.77,0,1.67.1,2.7s.13,1.93.19,2.71a96.94,96.94,0,0,1,17.78,1.64q1.65.48,3.24,5.75a61.07,61.07,0,0,1,2.22,11.5,51.07,51.07,0,0,1,0,11.55c-.46,3.55-1.58,5.45-3.39,5.7a39.77,39.77,0,0,1-7,1q-5.09.44-11.26.63V97Z"/><g class="cls-4"><path class="cls-5" d="M43.42,131.71c-4.35,0-8.69-.07-12.89-.19a119.84,119.84,0,0,1-14-1c-.36-1.57-.81-4-1.27-7.53-1.22-9.32-2.18-20.42-2.87-33s-1.12-25.8-1.24-39,0-24,.37-32.2c0-.17,0-.34,0-.51a54.74,54.74,0,0,1,.9-10.31c2-.28,5.27-.66,10.56-1,9.46-.69,19.84-1.12,30.86-1.28q3.74,0,7.35,0c8.19,0,16,.21,23.17.62,4,.23,6.73.5,8.52.75.2,1.72.4,4.31.49,8.14a97.72,97.72,0,0,1-.55,14.6c-1.08.16-2.53.32-4.45.45-8.19.54-17.91,1-28.89,1.38a11.11,11.11,0,0,0-10.72,11.1c0,1,0,2.15.12,3.4s.14,2.09.21,2.94A11.1,11.1,0,0,0,60,59.09c4.17.08,7.83.3,10.93.66A51.42,51.42,0,0,1,72.36,68a43.33,43.33,0,0,1,.22,6l-.56,0c-3.19.27-6.78.47-10.66.59a11.1,11.1,0,0,0-10.75,11.1v5.7a11.1,11.1,0,0,0,11.1,11.1h.12c11.41-.13,21.86-.46,31.05-1,1.85-.1,3.54-.16,5-.16.78,0,1.45,0,2,0,.35,2,.76,5.19,1.13,10.16a96.43,96.43,0,0,1,.17,15.77c-1.48.35-3.65.78-6.76,1.22-9,1.29-19.41,2.19-30.78,2.65C56.78,131.56,50,131.71,43.42,131.71Z"/></g><path class="cls-6" d="M61.21,0V2.77h0c8.33,0,16.28.22,23.62.63,12,.69,14.38,1.91,14.76,2.18l.06.06.08.06c.22.27,1.68,2.49,2,14.71.22,9.36-.34,16.48-1.65,21.15-.2.24-1.88,1.8-11.13,2.41-8.25.54-18.06,1-29.14,1.39l-2.68.1v2.68c0,.83,0,1.8.1,2.87s.13,2,.2,2.77l.21,2.5,2.5,0a96.75,96.75,0,0,1,16.78,1.49,13.86,13.86,0,0,1,1.64,3.93,58.75,58.75,0,0,1,2.11,11,47.84,47.84,0,0,1,0,10.92c-.35,2.76-1,3.3-1,3.31l-.2,0-.2,0a36.29,36.29,0,0,1-6.45.91c-3.34.29-7.08.5-11.11.62l-2.69.09V99.84l2.81,0c11.28-.13,21.59-.45,30.66-1,2-.11,3.86-.17,5.49-.17,7,0,8.33,1.09,8.37,1.12l.13.15.11.08c.33.4,1.83,2.92,2.84,16.55.76,10.33.51,17.88-.75,22.47-.42.38-2.69,1.91-13,3.38-9.32,1.33-20,2.25-31.61,2.73-7,.29-13.93.43-20.59.43-4.43,0-8.85-.06-13.14-.19-12.73-.38-17.92-1.47-20-2.33-.34-.4-1.84-2.7-3.25-13.47C5.76,120.06,4.78,108.75,4.08,96S3,69.91,2.82,56.57s0-24.32.39-32.66v-.13a62.28,62.28,0,0,1,1.1-12.16c.88-4.33,2.06-5.23,2.28-5.37S9.26,5.08,22.38,4.13C32,3.43,42.56,3,53.73,2.83c2.52,0,5-.06,7.48-.06V0m0,0q-3.69,0-7.52.05Q36.77.31,22.18,1.36t-17,2.51q-2.41,1.45-3.58,7.2A64.72,64.72,0,0,0,.43,23.78Q-.14,36.44.05,56.59T1.3,96.12q1.06,19.38,3,33.83T9,145.55q4.92,2.13,21.16,2.61,6.5.19,13.22.2,10.09,0,20.7-.44A319.87,319.87,0,0,0,96,145.17q14.2-2,15.17-5.12,2.13-7.35.92-23.68t-3.82-18.46q-1.86-2-10.4-2-2.53,0-5.64.18-13.64.78-30.54,1v-5.7q6.18-.2,11.26-.63a39.77,39.77,0,0,0,7-1c1.81-.25,2.93-2.15,3.39-5.7a51.07,51.07,0,0,0,0-11.55,61.07,61.07,0,0,0-2.22-11.5q-1.59-5.26-3.24-5.75a96.94,96.94,0,0,0-17.78-1.64c-.06-.78-.13-1.68-.19-2.71s-.1-1.93-.1-2.7q16.73-.59,29.24-1.41t13.58-4.3q2.11-7.44,1.78-22.08T101.53,3.58Q99.4,1.47,85,.63,73.85,0,61.21,0Z"/><path class="cls-7" d="M83.94,5.68c-6,0-6,9.25,0,9.25S89.9,5.68,83.94,5.68Z"/><path class="cls-7" d="M96.28,23.56c-1.44-5.77-10.37-3.33-8.92,2.46.3,1.2,1.49,4.28.33,5.38-.84.79-3.34.47-4.37.54l-12.14.82c-5.91.4-6,9.65,0,9.25l11.33-.76c3.1-.21,6.59-.09,9.4-1.63C98,36.3,97.74,29.4,96.28,23.56Z"/><path class="cls-7" d="M76.35,66.46c-1.56-5.74-10.49-3.3-8.92,2.46a16.06,16.06,0,0,1,.29,7.7A4.73,4.73,0,0,0,71,82.31a4.67,4.67,0,0,0,5.68-3.23A26.29,26.29,0,0,0,76.35,66.46Z"/></g></g></svg>