<svg xmlns="http://www.w3.org/2000/svg" xmlns:xlink="http://www.w3.org/1999/xlink" viewBox="0 0 112.54 148.2"><defs><style>.cls-1{mask:url(#mask);filter:url(#luminosity-noclip-2);}.cls-2{mix-blend-mode:multiply;fill:url(#linear-gradient);}.cls-3{fill:url(#linear-gradient-2);}.cls-4{mask:url(#mask-2);}.cls-5{fill:url(#linear-gradient-3);}.cls-6{fill:#fccd06;}.cls-7{fill:#f8f9f6;}.cls-8{filter:url(#luminosity-noclip);}</style><filter id="luminosity-noclip" x="11.1" y="-10940.15" width="90.35" height="32766" filterUnits="userSpaceOnUse" color-interpolation-filters="sRGB"><feFlood flood-color="#fff" result="bg"/><feBlend in="SourceGraphic" in2="bg"/></filter><mask id="mask" x="11.1" y="-10940.15" width="90.35" height="32766" maskUnits="userSpaceOnUse"><g class="cls-8"/></mask><linearGradient id="linear-gradient" x1="56.27" y1="131.55" x2="56.27" y2="5.55" gradientUnits="userSpaceOnUse"><stop offset="0" stop-color="#fff"/><stop offset="0.54"/><stop offset="0.58" stop-color="#080808"/><stop offset="0.64" stop-color="#1c1c1c"/><stop offset="0.71" stop-color="#3f3f3f"/><stop offset="0.79" stop-color="#6e6e6e"/><stop offset="0.89" stop-color="#ababab"/><stop offset="0.99" stop-color="#f4f4f4"/><stop offset="1" stop-color="#fff"/></linearGradient><linearGradient id="linear-gradient-2" x1="56.27" y1="148.2" x2="56.27" gradientUnits="userSpaceOnUse"><stop offset="0.08" stop-color="#fa0"/><stop offset="0.53" stop-color="#fea800"/><stop offset="0.69" stop-color="#fba100"/><stop offset="0.81" stop-color="#f69600"/><stop offset="0.9" stop-color="#ee8500"/></linearGradient><filter id="luminosity-noclip-2" x="11.1" y="5.55" width="90.35" height="126" filterUnits="userSpaceOnUse" color-interpolation-filters="sRGB"><feFlood flood-color="#fff" result="bg"/><feBlend in="SourceGraphic" in2="bg"/></filter><mask id="mask-2" x="11.1" y="5.55" width="90.35" height="126" maskUnits="userSpaceOnUse"><g class="cls-1"><path class="cls-2" d="M35.84,131.55a64.57,64.57,0,0,1-13-1c-.55-2-1.35-5.47-2.35-11.2-2-11.27-3.8-24.4-5.41-39S12.33,51,11.61,36.7a240,240,0,0,1-.24-26.88,42.54,42.54,0,0,1,7.13-1.6A243.58,243.58,0,0,1,51.12,5.64c3.28-.06,6.55-.09,9.73-.09,8.61,0,17,.22,24.83.65,8,.45,12.55.82,15,1.09,0,.26.1.56.15.89A68.93,68.93,0,0,1,101.1,24a75.07,75.07,0,0,1-3,15.61c-.12.38-.24.72-.35,1-3.55.23-7.61.35-12.12.35C79,41,72.07,40.87,65,40.61h-.4a11.09,11.09,0,0,0-11.09,11.1v9.47a11.1,11.1,0,0,0,10.9,11.1c7.11.12,13.71.42,19.63.88,3,.24,5.29.47,6.93.66a56.48,56.48,0,0,1,0,11.43,62.92,62.92,0,0,1-2.32,12.49l-.15.47a87.5,87.5,0,0,1-8.7,1c-4.5.31-9.19.47-13.94.47H63.39A11.1,11.1,0,0,0,52.31,110C51.53,122.13,50.59,128,50,130.61a70,70,0,0,1-10.67.9C38.13,131.54,37,131.55,35.84,131.55Z"/></g></mask><linearGradient id="linear-gradient-3" x1="11.1" y1="68.55" x2="101.44" y2="68.55" xlink:href="#linear-gradient-2"/></defs><title>F</title><g id="Layer_2" data-name="Layer 2"><g id="objects"><path class="cls-3" d="M64.65,57.26v9.47q11,.19,20.29.92A90.76,90.76,0,0,1,97.7,69.24q3.28,1,4.2,7.78a66.38,66.38,0,0,1,.2,14.79,74.69,74.69,0,0,1-2.76,14.69c-1.35,4.48-2.87,6.91-4.54,7.29a82.23,82.23,0,0,1-14.16,2q-8.36.59-17.25.49Q61.85,140.18,58.85,144q-2.13,3.77-19.24,4.2t-24.54-3q-2.43-1-5.46-18.41T4.1,87.07Q1.63,64.71.52,42.81t.15-32q.77-5.61,16.14-8A255.68,255.68,0,0,1,50.92.09Q69.67-.24,86.29.67t20,1.79q4.35,1.16,5.56,9.71a79.56,79.56,0,0,1,.29,18.41,86.51,86.51,0,0,1-3.48,17.93q-2.57,8.07-5.66,8.36a166,166,0,0,1-17.39.77Q75.46,57.64,64.65,57.26Z"/><g class="cls-4"><path class="cls-5" d="M35.84,131.55a64.57,64.57,0,0,1-13-1c-.55-2-1.35-5.47-2.35-11.2-2-11.27-3.8-24.4-5.41-39S12.33,51,11.61,36.7a240,240,0,0,1-.24-26.88,42.54,42.54,0,0,1,7.13-1.6A243.58,243.58,0,0,1,51.12,5.64c3.28-.06,6.55-.09,9.73-.09,8.61,0,17,.22,24.83.65,8,.45,12.55.82,15,1.09,0,.26.1.56.15.89A68.93,68.93,0,0,1,101.1,24a75.07,75.07,0,0,1-3,15.61c-.12.38-.24.72-.35,1-3.55.23-7.61.35-12.12.35C79,41,72.07,40.87,65,40.61h-.4a11.09,11.09,0,0,0-11.09,11.1v9.47a11.1,11.1,0,0,0,10.9,11.1c7.11.12,13.71.42,19.63.88,3,.24,5.29.47,6.93.66a56.48,56.48,0,0,1,0,11.43,62.92,62.92,0,0,1-2.32,12.49l-.15.47a87.5,87.5,0,0,1-8.7,1c-4.5.31-9.19.47-13.94.47H63.39A11.1,11.1,0,0,0,52.31,110C51.53,122.13,50.59,128,50,130.61a70,70,0,0,1-10.67.9C38.13,131.54,37,131.55,35.84,131.55Z"/></g><path class="cls-6" d="M60.85,2.77c8.77,0,17.28.23,25.29.67,13.52.75,18,1.34,19.44,1.7,1.66.44,2.91,3.08,3.53,7.42a76.76,76.76,0,0,1,.27,17.76A82.91,82.91,0,0,1,106,47.67c-1.77,5.58-3.16,6.37-3.3,6.44h0a165.7,165.7,0,0,1-17.1.76c-6.72,0-13.74-.13-20.88-.39l-2.87-.1V69.45l2.73,0c7.27.13,14,.44,20.12.91A92.91,92.91,0,0,1,97,71.91c.75.27,1.71,1.83,2.2,5.48a63.87,63.87,0,0,1,.18,14.17,70.5,70.5,0,0,1-2.65,14.13c-1.32,4.4-2.41,5.3-2.58,5.42a81.45,81.45,0,0,1-13.65,2c-4.7.32-9.58.49-14.52.49l-2.51,0-2.63,0-.17,2.63c-1.38,21.34-3.37,25.37-3.95,26.09l-.13.16-.11.2c-.06.09-1.8,2.41-16.89,2.8-1.26,0-2.51.05-3.69.05-8.78,0-15.27-.88-19.34-2.62-.46-.69-1.94-3.76-4.17-16.5-2-11.45-3.86-24.75-5.49-39.54S4,57.12,3.29,42.67s-.68-25,.12-31.52c.09-.59,1.14-3.66,13.82-5.61A253.7,253.7,0,0,1,51,2.87c3.33-.06,6.65-.1,9.88-.1m0-2.77Q56,0,50.92.09A255.68,255.68,0,0,0,16.81,2.8Q1.43,5.17.67,10.77q-1.26,10.15-.15,32T4.1,87.07q2.46,22.38,5.51,39.72t5.46,18.41q6.59,3,20.78,3c1.21,0,2.47,0,3.76,0q17.12-.43,19.24-4.2,3-3.78,4.54-27.64h2.54q7.54,0,14.71-.5a82.23,82.23,0,0,0,14.16-2c1.67-.38,3.19-2.81,4.54-7.29a74.69,74.69,0,0,0,2.76-14.69A66.38,66.38,0,0,0,101.9,77q-.91-6.81-4.2-7.78a90.76,90.76,0,0,0-12.76-1.59q-9.27-.74-20.29-.92V57.26q10.81.38,21,.38A166,166,0,0,0,103,56.87q3.09-.28,5.66-8.36a86.51,86.51,0,0,0,3.48-17.93,79.56,79.56,0,0,0-.29-18.41q-1.22-8.55-5.56-9.71-3.39-.87-20-1.79Q74.14,0,60.85,0Z"/><path class="cls-7" d="M93.51,6.4A4.64,4.64,0,0,0,87,6.4a4.82,4.82,0,0,0-1.35,3.27v.24a4.63,4.63,0,0,0,4.62,4.63,4.68,4.68,0,0,0,3.27-1.36,4.81,4.81,0,0,0,1.36-3.27V9.67A4.78,4.78,0,0,0,93.51,6.4Z"/><path class="cls-7" d="M106,16.31c-.61-5.87-9.87-5.93-9.25,0,.5,4.82,2.12,27.44-7.74,24.75-5.75-1.57-8.21,7.35-2.46,8.92C105.43,55.14,107.2,28.32,106,16.31Z"/><path class="cls-7" d="M95.11,93.75c-.19-5.93-9.44-6-9.25,0,.14,4.4-.48,9.45-6,9.5-6,0-6,9.3,0,9.25a15.32,15.32,0,0,0,11.5-5.16C94.75,103.43,95.27,98.75,95.11,93.75Z"/></g></g></svg>