<svg xmlns="http://www.w3.org/2000/svg" xmlns:xlink="http://www.w3.org/1999/xlink" viewBox="0 0 141.8 148.4"><defs><style>.cls-1{mask:url(#mask);filter:url(#luminosity-noclip-2);}.cls-2{mix-blend-mode:multiply;fill:url(#linear-gradient);}.cls-3{fill:url(#Gradient_59);}.cls-4{mask:url(#mask-2);}.cls-5{fill:url(#Gradient_59-2);}.cls-6{fill:#d78dc0;}.cls-7{fill:#f8f9f6;}.cls-8{filter:url(#luminosity-noclip);}</style><filter id="luminosity-noclip" x="11.1" y="-10940.29" width="119.6" height="32766" filterUnits="userSpaceOnUse" color-interpolation-filters="sRGB"><feFlood flood-color="#fff" result="bg"/><feBlend in="SourceGraphic" in2="bg"/></filter><mask id="mask" x="11.1" y="-10940.29" width="119.6" height="32766" maskUnits="userSpaceOnUse"><g class="cls-8"/></mask><linearGradient id="linear-gradient" x1="70.9" y1="131.75" x2="70.9" y2="5.55" gradientUnits="userSpaceOnUse"><stop offset="0" stop-color="#fff"/><stop offset="0.54"/><stop offset="0.58" stop-color="#080808"/><stop offset="0.64" stop-color="#1c1c1c"/><stop offset="0.71" stop-color="#3f3f3f"/><stop offset="0.79" stop-color="#6e6e6e"/><stop offset="0.89" stop-color="#ababab"/><stop offset="0.99" stop-color="#f4f4f4"/><stop offset="1" stop-color="#fff"/></linearGradient><linearGradient id="Gradient_59" x1="70.9" y1="148.4" x2="70.9" gradientUnits="userSpaceOnUse"><stop offset="0" stop-color="#ffbba4"/><stop offset="1" stop-color="#ffd1c9"/></linearGradient><filter id="luminosity-noclip-2" x="11.1" y="5.55" width="119.6" height="126.21" filterUnits="userSpaceOnUse" color-interpolation-filters="sRGB"><feFlood flood-color="#fff" result="bg"/><feBlend in="SourceGraphic" in2="bg"/></filter><mask id="mask-2" x="11.1" y="5.55" width="119.6" height="126.21" maskUnits="userSpaceOnUse"><g class="cls-1"><path class="cls-2" d="M74.44,131.75c-2.18,0-4.38-.07-6.55-.22-17.17-1.35-31.13-7.86-42.67-19.9C14.11,100,9.62,86,11.52,68.72,13.74,48.91,20.59,34,32.45,23.24S59.29,6.59,77.9,5.62c1,0,2.16-.07,3.25-.07a57.6,57.6,0,0,1,28.72,7.2c4.59,2.55,10.63,7.55,11.6,21.61a42.68,42.68,0,0,1-8,2.43,89.1,89.1,0,0,1-12.33,1.77c-1.43.1-2.71.16-3.83.19a12.9,12.9,0,0,0-9.57-6.39c-.32,0-.64-.08-1-.1-1.21-.06-2.41-.1-3.58-.1a49.93,49.93,0,0,0-16.19,2.52l-.17.06c-8.77,3.17-15.33,8.47-19.49,15.76a34.84,34.84,0,0,0-4.66,22A33.78,33.78,0,0,0,53.14,92.8c6.09,6,14.5,9.24,25,9.76H79c16.17,0,19.4-11.12,20-14.53.5-2.86,1-5.75,1.4-8.64l.19-.06a61.51,61.51,0,0,1,14.26-2.92c2.25-.21,4.46-.31,6.56-.31a54.88,54.88,0,0,1,8,.55c.37,3.72.67,8.1.91,13.06.34,7.2.49,14.39.42,21.36s-.35,13-.86,18.15c-.07.67-.14,1.27-.2,1.79-1.62.15-3.89.29-7,.38-1.58,0-3.1.07-4.51.07a67.27,67.27,0,0,1-9.86-.56,11.17,11.17,0,0,0-6.92-2.41,10.82,10.82,0,0,0-2.58.3A104.87,104.87,0,0,1,74.44,131.75ZM98.5,80.24"/></g></mask><linearGradient id="Gradient_59-2" x1="70.9" y1="131.75" x2="70.9" y2="5.55" xlink:href="#Gradient_59"/></defs><title>G</title><g id="Layer_2" data-name="Layer 2"><g id="objects"><path class="cls-3" d="M86.21,48.9a40.87,40.87,0,0,0-15.56,1.83Q61.28,54.12,57,61.56a23.86,23.86,0,0,0-3.28,15.12A22.85,22.85,0,0,0,60.89,90.4q6.18,6,17.78,6.62,8.42.11,9.38-5.36t1.74-11Q89.4,77,96.94,74.41a71.8,71.8,0,0,1,16.86-3.48,72,72,0,0,1,17.4.34q8.07,1.22,8.65,5.07,1,7.25,1.5,18.41t.43,22q-.09,10.83-.92,19.14c-.54,5.54-1.37,8.79-2.46,9.76q-1.54,2-15.51,2.41T103,146.7c-.58-.06-1.16-.58-1.74-1.55a113.19,113.19,0,0,1-34.21,3q-29.78-2.33-49.87-23.29T.49,73.06Q4.26,39.42,25,20.58T77.32.09q20.88-1,37.93,8.5T132.7,42.81c.25,2.51-1.32,4.62-4.74,6.33a51.31,51.31,0,0,1-12.13,4.06,99.19,99.19,0,0,1-13.87,2,48.71,48.71,0,0,1-9.85,0c-2.77-.39-4.11-1.48-4-3.29S87.56,49.09,86.21,48.9Z"/><g class="cls-4"><path class="cls-5" d="M74.44,131.75c-2.18,0-4.38-.07-6.55-.22-17.17-1.35-31.13-7.86-42.67-19.9C14.11,100,9.62,86,11.52,68.72,13.74,48.91,20.59,34,32.45,23.24S59.29,6.59,77.9,5.62c1,0,2.16-.07,3.25-.07a57.6,57.6,0,0,1,28.72,7.2c4.59,2.55,10.63,7.55,11.6,21.61a42.68,42.68,0,0,1-8,2.43,89.1,89.1,0,0,1-12.33,1.77c-1.43.1-2.71.16-3.83.19a12.9,12.9,0,0,0-9.57-6.39c-.32,0-.64-.08-1-.1-1.21-.06-2.41-.1-3.58-.1a49.93,49.93,0,0,0-16.19,2.52l-.17.06c-8.77,3.17-15.33,8.47-19.49,15.76a34.84,34.84,0,0,0-4.66,22A33.78,33.78,0,0,0,53.14,92.8c6.09,6,14.5,9.24,25,9.76H79c16.17,0,19.4-11.12,20-14.53.5-2.86,1-5.75,1.4-8.64l.19-.06a61.51,61.51,0,0,1,14.26-2.92c2.25-.21,4.46-.31,6.56-.31a54.88,54.88,0,0,1,8,.55c.37,3.72.67,8.1.91,13.06.34,7.2.49,14.39.42,21.36s-.35,13-.86,18.15c-.07.67-.14,1.27-.2,1.79-1.62.15-3.89.29-7,.38-1.58,0-3.1.07-4.51.07a67.27,67.27,0,0,1-9.86-.56,11.17,11.17,0,0,0-6.92-2.41,10.82,10.82,0,0,0-2.58.3A104.87,104.87,0,0,1,74.44,131.75Z"/></g><path class="cls-6" d="M81.15,2.77A66.69,66.69,0,0,1,113.91,11c10.53,5.85,15.77,16.26,16,31.83v.24c0,.46.19,1.86-3.22,3.56a48,48,0,0,1-11.47,3.83,96.6,96.6,0,0,1-13.48,1.93c-2.21.16-4.13.23-5.7.23a23.14,23.14,0,0,1-3.52-.2h-.06A4.67,4.67,0,0,1,90.87,52c.18-3.82-2.08-5.52-4.27-5.83l-.12,0h-.12c-1,0-2.1-.08-3.12-.08a41.58,41.58,0,0,0-13.53,2.08c-6.86,2.48-11.94,6.53-15.09,12.06A26.66,26.66,0,0,0,51,77a25.71,25.71,0,0,0,8,15.36c4.6,4.49,11.19,7,19.58,7.41H79c8.64,0,11.19-4.16,11.81-7.66.65-3.65,1.24-7.37,1.75-11.06l0-.34,0-.34c-.07-.59,1.29-2,5.3-3.37a69.53,69.53,0,0,1,16.21-3.34c2.51-.23,5-.35,7.33-.35a64.58,64.58,0,0,1,9.4.67c4.46.67,6.19,1.9,6.31,2.7.63,4.74,1.13,10.85,1.48,18.18s.49,14.69.43,21.83-.37,13.44-.91,18.88c-.62,6.26-1.43,7.76-1.6,8l-.14.13,0,0c-.55.3-3.11,1.22-13.52,1.51-1.66.05-3.25.07-4.74.07-6.46,0-11.23-.43-14.18-1.29,0-.07-.13-.18-.22-.33l-1-1.75-2,.48a113.22,113.22,0,0,1-26.2,3.17c-2.39,0-4.8-.08-7.15-.25-19.05-1.48-35.23-9-48.08-22.44S1.09,93,3.24,73.37c2.43-21.63,10.37-38.7,23.61-50.74S57.15,3.92,77.45,2.86c1.24-.06,2.48-.09,3.7-.09m0-2.77c-1.27,0-2.54,0-3.83.09Q45.72,1.74,25,20.58T.49,73.06q-3.39,30.82,16.72,51.8t49.87,23.29c2.44.17,4.9.25,7.36.25a115.1,115.1,0,0,0,26.85-3.25c.58,1,1.16,1.49,1.74,1.55q4.81,1.43,15,1.42c1.52,0,3.12,0,4.82-.07q14-.37,15.51-2.41c1.09-1,1.92-4.22,2.46-9.76s.86-11.92.92-19.14-.08-14.55-.43-22-.86-13.58-1.5-18.41q-.58-3.86-8.65-5.07a66,66,0,0,0-9.81-.7c-2.46,0-5,.12-7.59.36a71.8,71.8,0,0,0-16.86,3.48Q89.4,77,89.79,80.69q-.78,5.5-1.74,11T79,97h-.3q-11.6-.57-17.78-6.62a22.85,22.85,0,0,1-7.15-13.72A23.86,23.86,0,0,1,57,61.56q4.26-7.44,13.63-10.83a38.66,38.66,0,0,1,12.59-1.92q1.45,0,3,.09c1.35.19,2,1.19,1.89,3s1.24,2.9,4,3.29a26,26,0,0,0,4,.24c1.64,0,3.61-.08,5.89-.24a99.19,99.19,0,0,0,13.87-2A51.31,51.31,0,0,0,128,49.14c3.42-1.71,5-3.82,4.74-6.33q-.39-24.75-17.45-34.22A69,69,0,0,0,81.15,0Z"/><path class="cls-7" d="M88.31,5.9c-6,0-6,9.25,0,9.25S94.27,5.9,88.31,5.9Z"/><path class="cls-7" d="M102.52,8.71c-5.78-1.39-8.25,7.53-2.46,8.91A19.59,19.59,0,0,1,115.57,37c.05,6,9.3,6,9.25,0A28.91,28.91,0,0,0,102.52,8.71Z"/><path class="cls-7" d="M135.05,82.82c-.45-5.9-9.7-5.95-9.25,0a212.8,212.8,0,0,1-2.45,52.87c-1,5.82,7.9,8.32,8.92,2.46A222.06,222.06,0,0,0,135.05,82.82Z"/><path class="cls-7" d="M114.52,131.53c-6,0-6,9.25,0,9.25S120.48,131.53,114.52,131.53Z"/></g></g></svg>