<svg xmlns="http://www.w3.org/2000/svg" xmlns:xlink="http://www.w3.org/1999/xlink" viewBox="0 0 145.79 154.89"><defs><style>.cls-1{mask:url(#mask);filter:url(#luminosity-noclip-2);}.cls-2{mix-blend-mode:multiply;fill:url(#linear-gradient);}.cls-3{fill:url(#linear-gradient-2);}.cls-4{mask:url(#mask-2);}.cls-5{fill:url(#linear-gradient-3);}.cls-6{fill:#fccd06;}.cls-7{fill:#f8f9f6;}.cls-8{filter:url(#luminosity-noclip);}</style><filter id="luminosity-noclip" x="11.55" y="-11127.03" width="122.7" height="32766" filterUnits="userSpaceOnUse" color-interpolation-filters="sRGB"><feFlood flood-color="#fff" result="bg"/><feBlend in="SourceGraphic" in2="bg"/></filter><mask id="mask" x="11.55" y="-11127.03" width="122.7" height="32766" maskUnits="userSpaceOnUse"><g class="cls-8"/></mask><linearGradient id="linear-gradient" x1="72.9" y1="137.57" x2="72.9" y2="5.77" gradientUnits="userSpaceOnUse"><stop offset="0" stop-color="#fff"/><stop offset="0.54"/><stop offset="0.58" stop-color="#080808"/><stop offset="0.64" stop-color="#1c1c1c"/><stop offset="0.71" stop-color="#3f3f3f"/><stop offset="0.79" stop-color="#6e6e6e"/><stop offset="0.89" stop-color="#ababab"/><stop offset="0.99" stop-color="#f4f4f4"/><stop offset="1" stop-color="#fff"/></linearGradient><linearGradient id="linear-gradient-2" x1="72.9" y1="154.89" x2="72.9" gradientUnits="userSpaceOnUse"><stop offset="0.08" stop-color="#fa0"/><stop offset="0.53" stop-color="#fea800"/><stop offset="0.69" stop-color="#fba100"/><stop offset="0.81" stop-color="#f69600"/><stop offset="0.9" stop-color="#ee8500"/></linearGradient><filter id="luminosity-noclip-2" x="11.55" y="5.77" width="122.7" height="131.8" filterUnits="userSpaceOnUse" color-interpolation-filters="sRGB"><feFlood flood-color="#fff" result="bg"/><feBlend in="SourceGraphic" in2="bg"/></filter><mask id="mask-2" x="11.55" y="5.77" width="122.7" height="131.8" maskUnits="userSpaceOnUse"><g class="cls-1"><path class="cls-2" d="M33.5,137.57a53.89,53.89,0,0,1-10-.74A110.31,110.31,0,0,1,20.91,124c-2-12.45-3.76-26.67-5.24-42.25s-2.62-31-3.38-45.41c-.78-15-.83-22.51-.67-26.3a15,15,0,0,1,2.43-1,61.15,61.15,0,0,1,17.58-3c.84,0,1.68,0,2.5,0A62.12,62.12,0,0,1,49.36,7.77c.74.18,1.33.37,1.8.53.44,4.79.81,10.33,1.11,16.52.36,7.65.61,15.83.74,24.32A11.55,11.55,0,0,0,64.55,60.5h.54c5.59-.26,11.51-.46,17.61-.59A11.54,11.54,0,0,0,94,48c-.26-8.42-.38-16.49-.34-24,0-6,.17-11.36.42-16,.38-.12.82-.26,1.35-.4a61.87,61.87,0,0,1,15.44-1.82l2.15,0A62.56,62.56,0,0,1,130.8,8.71a14.91,14.91,0,0,1,2.9,1.22c.36,3.66.67,11.16.5,26.48-.17,14.49-.67,29.79-1.49,45.47s-2,29.83-3.46,42.23a119.86,119.86,0,0,1-2,12.49,56.39,56.39,0,0,1-10.06.73c-1.66,0-3.45,0-5.33-.12a67.82,67.82,0,0,1-10.33-1.06c-.3-1.27-.69-3.21-1.15-6.11-1-6.46-2-14.47-2.82-23.81a11.54,11.54,0,0,0-11.5-10.51,12,12,0,0,0-2.23.22c-3.54.7-7.19,1.33-10.87,1.87s-7.51,1.07-11.08,1.53a11.55,11.55,0,0,0-10.07,10.74c-.52,8.52-1.14,15.76-1.84,21.53-.26,2.11-.5,3.66-.7,4.79a71.26,71.26,0,0,1-9.78,1C37.37,137.52,35.35,137.57,33.5,137.57ZM52.69,9"/></g></mask><linearGradient id="linear-gradient-3" x1="72.9" y1="137.57" x2="72.9" y2="5.77" xlink:href="#linear-gradient-2"/></defs><title>H</title><g id="Layer_2" data-name="Layer 2"><g id="objects"><path class="cls-3" d="M59,149.94q-1.91,3.93-19,4.78t-24.28-2.46q-3.22-1.51-6.28-20.67t-5.33-43Q1.92,64.79.76,42.71T.21,13.2q.6-6.12,10.15-9.35A72.61,72.61,0,0,1,31.27.28,75.8,75.8,0,0,1,52.19,2.35q9.54,2.4,10.15,7.44.91,8.54,1.46,20.26t.75,24.68q8.55-.4,17.9-.6Q82,41.26,82.1,29.74t.65-19.95q.3-5.13,9.76-7.6A74.61,74.61,0,0,1,113.32,0,73.93,73.93,0,0,1,134.38,3.5q9.7,3.17,10.61,9.3,1,7.44.75,29.51t-1.5,46q-1.26,23.88-3.52,43t-5.28,20.61q-7,3.42-24.08,2.67T92.2,149.84c-1.07-1.4-2.14-5.48-3.21-12.21s-2-14.93-2.92-24.59q-5.62,1.11-11.41,2t-11.31,1.56q-.81,13.19-1.91,22.22T59,149.94Z"/><g class="cls-4"><path class="cls-5" d="M33.5,137.57a53.89,53.89,0,0,1-10-.74A110.31,110.31,0,0,1,20.91,124c-2-12.45-3.76-26.67-5.24-42.25s-2.62-31-3.38-45.41c-.78-15-.83-22.51-.67-26.3a15,15,0,0,1,2.43-1,61.15,61.15,0,0,1,17.58-3c.84,0,1.68,0,2.5,0A62.12,62.12,0,0,1,49.36,7.77c.74.18,1.33.37,1.8.53.44,4.79.81,10.33,1.11,16.52.36,7.65.61,15.83.74,24.32A11.55,11.55,0,0,0,64.55,60.5h.54c5.59-.26,11.51-.46,17.61-.59A11.54,11.54,0,0,0,94,48c-.26-8.42-.38-16.49-.34-24,0-6,.17-11.36.42-16,.38-.12.82-.26,1.35-.4a61.87,61.87,0,0,1,15.44-1.82l2.15,0A62.56,62.56,0,0,1,130.8,8.71a14.91,14.91,0,0,1,2.9,1.22c.36,3.66.67,11.16.5,26.48-.17,14.49-.67,29.79-1.49,45.47s-2,29.83-3.46,42.23a119.86,119.86,0,0,1-2,12.49,56.39,56.39,0,0,1-10.06.73c-1.66,0-3.45,0-5.33-.12a67.82,67.82,0,0,1-10.33-1.06c-.3-1.27-.69-3.21-1.15-6.11-1-6.46-2-14.47-2.82-23.81a11.54,11.54,0,0,0-11.5-10.51,12,12,0,0,0-2.23.22c-3.54.7-7.19,1.33-10.87,1.87s-7.51,1.07-11.08,1.53a11.55,11.55,0,0,0-10.07,10.74c-.52,8.52-1.14,15.76-1.84,21.53-.26,2.11-.5,3.66-.7,4.79a71.26,71.26,0,0,1-9.78,1C37.37,137.52,35.35,137.57,33.5,137.57Z"/></g><path class="cls-6" d="M110.86,2.89c.79,0,1.59,0,2.38,0a71.18,71.18,0,0,1,20.25,3.33c5.31,1.73,8.22,4.08,8.64,6.94.65,4.8.89,14.59.73,29.09s-.68,30-1.51,45.83-2,30.2-3.5,42.79c-1.74,14.72-3.42,17.85-3.89,18.46-3.45,1.6-9.09,2.41-16.76,2.41-1.79,0-3.71-.05-5.72-.14-15-.66-16.67-3.06-16.73-3.16l-.11-.2-.14-.18c-.2-.25-1.24-2-2.66-10.92-1.06-6.65-2-14.85-2.89-24.39l-.29-3.19-3.15.62c-3.68.73-7.47,1.38-11.27,1.94S66.58,113.24,63,113.7l-2.37.3-.14,2.39c-.54,8.69-1.17,16.11-1.9,22-1,8-1.84,9.73-2,10l-.07.1-.06.13c-.06.1-1.76,2.44-16.51,3.18-2.27.11-4.43.17-6.43.17-7.41,0-12.91-.78-16.34-2.3-.49-.53-2.39-3.48-4.8-18.57-2-12.63-3.81-27-5.31-42.8S4.41,57.14,3.64,42.56s-.94-24.28-.56-29.1c.29-2.82,3.05-5.14,8.2-6.87A70.07,70.07,0,0,1,31.36,3.17c.93,0,1.86,0,2.77,0a71.51,71.51,0,0,1,17.35,2c2.85.72,7.68,2.33,8,5,.6,5.61,1.08,12.37,1.45,20.09s.61,16,.75,24.59l0,3,3-.14c5.64-.26,11.64-.46,17.82-.6L85.43,57,85.34,54C85.07,45.52,85,37.35,85,29.76s.25-14.22.64-19.8c.16-2.64,4.83-4.25,7.6-5a69.91,69.91,0,0,1,17.63-2.1m0-2.89A72.75,72.75,0,0,0,92.51,2.19Q83,4.66,82.75,9.79q-.6,8.45-.65,20t.35,24.39q-9.35.19-17.9.6-.19-13-.75-24.68T62.34,9.79q-.6-5-10.15-7.44A73.33,73.33,0,0,0,34.13.24c-.94,0-1.89,0-2.86,0A72.61,72.61,0,0,0,10.36,3.85Q.8,7.07.21,13.2-.4,20.66.76,42.71t3.42,45.9q2.27,23.83,5.33,43t6.28,20.67q5.76,2.63,17.71,2.63c2.06,0,4.25,0,6.57-.17q17-.85,19-4.78,1.3-2.1,2.42-11.16t1.91-22.22q5.52-.7,11.31-1.56t11.41-2q1.31,14.49,2.92,24.59c1.07,6.73,2.14,10.81,3.21,12.21q2.11,3.93,19.16,4.68c2,.09,4,.13,5.84.13q12.47,0,18.24-2.8,3-1.5,5.28-20.61t3.52-43q1.24-23.88,1.5-45.95T145,12.8q-.9-6.13-10.61-9.3A73.93,73.93,0,0,0,113.32,0l-2.46,0Z"/><path class="cls-7" d="M36.76,7.91c-6.19,0-6.2,9.62,0,9.62S43,7.91,36.76,7.91Z"/><path class="cls-7" d="M54.84,13.67c-.87-6.11-10.15-3.51-9.28,2.55a141.23,141.23,0,0,1,.35,36.05c-.7,6.14,8.93,6.09,9.62,0A150.69,150.69,0,0,0,54.84,13.67Z"/><path class="cls-7" d="M129.1,8.83a5,5,0,0,0-3.41-1.41h-1a5,5,0,0,0-3.4,1.41,4.8,4.8,0,0,0,0,6.8,5,5,0,0,0,3.4,1.41h1a4.81,4.81,0,0,0,4.82-4.81A4.91,4.91,0,0,0,129.1,8.83Z"/><path class="cls-7" d="M139.66,26.42c-.62-6.1-10.25-6.16-9.63,0A374.47,374.47,0,0,1,127.26,124c-1,6.06,8.29,8.67,9.28,2.56A384.49,384.49,0,0,0,139.66,26.42Z"/></g></g></svg>