<svg xmlns="http://www.w3.org/2000/svg" xmlns:xlink="http://www.w3.org/1999/xlink" viewBox="0 0 70.69 154.49"><defs><style>.cls-1{mask:url(#mask);filter:url(#luminosity-noclip-2);}.cls-2{mix-blend-mode:multiply;fill:url(#linear-gradient);}.cls-3{fill:url(#linear-gradient-2);}.cls-4{mask:url(#mask-2);}.cls-5{fill:url(#linear-gradient-3);}.cls-6{fill:#870000;}.cls-7{fill:#f8f9f6;}.cls-8{filter:url(#luminosity-noclip);}</style><filter id="luminosity-noclip" x="11.5" y="-11129.47" width="47.7" height="32766" filterUnits="userSpaceOnUse" color-interpolation-filters="sRGB"><feFlood flood-color="#fff" result="bg"/><feBlend in="SourceGraphic" in2="bg"/></filter><mask id="mask" x="11.5" y="-11129.47" width="47.7" height="32766" maskUnits="userSpaceOnUse"><g class="cls-8"/></mask><linearGradient id="linear-gradient" x1="35.34" y1="137.24" x2="35.34" y2="5.75" gradientUnits="userSpaceOnUse"><stop offset="0" stop-color="#fff"/><stop offset="0.54"/><stop offset="0.58" stop-color="#080808"/><stop offset="0.64" stop-color="#1c1c1c"/><stop offset="0.71" stop-color="#3f3f3f"/><stop offset="0.79" stop-color="#6e6e6e"/><stop offset="0.89" stop-color="#ababab"/><stop offset="0.99" stop-color="#f4f4f4"/><stop offset="1" stop-color="#fff"/></linearGradient><linearGradient id="linear-gradient-2" x1="35.35" y1="154.49" x2="35.35" gradientUnits="userSpaceOnUse"><stop offset="0.07" stop-color="#e90022"/><stop offset="1" stop-color="#a7001d"/></linearGradient><filter id="luminosity-noclip-2" x="11.5" y="5.75" width="47.7" height="131.49" filterUnits="userSpaceOnUse" color-interpolation-filters="sRGB"><feFlood flood-color="#fff" result="bg"/><feBlend in="SourceGraphic" in2="bg"/></filter><mask id="mask-2" x="11.5" y="5.75" width="47.7" height="131.49" maskUnits="userSpaceOnUse"><g class="cls-1"><path class="cls-2" d="M35.68,137.24a66.08,66.08,0,0,1-12.6-1,101.36,101.36,0,0,1-2.69-12.71c-2-12.45-3.77-26.64-5.21-42.18S12.67,50.49,12,36c-.67-14.83-.58-22.24-.32-25.95A18.69,18.69,0,0,1,15,8.82a78.31,78.31,0,0,1,20.16-3c1,0,1.91,0,2.84,0a78.22,78.22,0,0,1,17.3,1.8c1.08.25,1.91.5,2.53.71.82,8.69,1.27,19.66,1.36,32.62.1,14.76-.15,29.53-.74,43.91s-1.48,27.09-2.65,38a128.55,128.55,0,0,1-1.91,13.14,79.84,79.84,0,0,1-12,1.18C39.66,137.19,37.59,137.24,35.68,137.24Z"/></g></mask><linearGradient id="linear-gradient-3" x1="35.34" y1="137.24" x2="35.34" y2="5.75" xlink:href="#linear-gradient-2"/></defs><title>I</title><g id="Layer_2" data-name="Layer 2"><g id="objects"><path class="cls-3" d="M63.21,149.59q-2.1,4-20.93,4.76t-26.63-2.56q-3.51-1.5-6.61-20.62t-5.31-43Q1.53,64.38.53,42.3T.43,12.81q.69-6.1,11.26-9.26A89.71,89.71,0,0,1,34.82,0a91.68,91.68,0,0,1,23,2.06Q68.32,4.5,68.92,9.61q1.59,14.42,1.75,37T69.92,91q-.9,21.93-2.71,38.75T63.21,149.59Z"/><g class="cls-4"><path class="cls-5" d="M35.68,137.24a66.08,66.08,0,0,1-12.6-1,101.36,101.36,0,0,1-2.69-12.71c-2-12.45-3.77-26.64-5.21-42.18S12.67,50.49,12,36c-.67-14.83-.58-22.24-.32-25.95A18.69,18.69,0,0,1,15,8.82a78.31,78.31,0,0,1,20.16-3c1,0,1.91,0,2.84,0a78.22,78.22,0,0,1,17.3,1.8c1.08.25,1.91.5,2.53.71.82,8.69,1.27,19.66,1.36,32.62.1,14.76-.15,29.53-.74,43.91s-1.48,27.09-2.65,38a128.55,128.55,0,0,1-1.91,13.14,79.84,79.84,0,0,1-12,1.18C39.66,137.19,37.59,137.24,35.68,137.24Z"/></g><path class="cls-6" d="M38,2.87a86.48,86.48,0,0,1,19.23,2c5.39,1.24,8.62,3.08,8.85,5a366.54,366.54,0,0,1,1.73,36.65c.1,14.9-.15,29.81-.74,44.33s-1.5,27.46-2.69,38.56c-1.6,14.89-3.06,17.87-3.47,18.43l-.11.15-.1.19c-.08.11-2,2.59-18.51,3.24-2.28.09-4.46.14-6.49.14-8.6,0-14.92-.81-18.79-2.41-.39-.38-2.51-3.07-5-18.49-2.06-12.64-3.83-27-5.29-42.76S4.06,56.77,3.4,42.17s-.7-24.25-.12-29C3.6,10.34,6.71,8,12.51,6.3A86.73,86.73,0,0,1,34.9,2.92c1,0,2.07,0,3.08,0M38,0c-1,0-2.09,0-3.16,0A89.71,89.71,0,0,0,11.69,3.55Q1.13,6.7.43,12.81q-.9,7.41.1,29.49t3.2,45.91Q5.94,112,9,131.17t6.61,20.62q6.36,2.7,20,2.7c2.07,0,4.28-.05,6.6-.14q18.82-.75,20.93-4.76,2.21-3,4-19.83T69.92,91q.9-21.93.75-44.45T68.92,9.61Q68.32,4.5,57.85,2.1A88.62,88.62,0,0,0,38,0Z"/><path class="cls-7" d="M52.54,6.61a4.8,4.8,0,0,0-6.78,0A5,5,0,0,0,44.36,10v.24a4.94,4.94,0,0,0,1.4,3.39,4.8,4.8,0,0,0,6.78,0,5,5,0,0,0,1.4-3.39V10A4.94,4.94,0,0,0,52.54,6.61Z"/><path class="cls-7" d="M63.32,19c-1-6.08-10.2-3.5-9.24,2.54a263.05,263.05,0,0,1-.55,86c-1,6,8.2,8.62,9.24,2.55A277.49,277.49,0,0,0,63.32,19Z"/></g></g></svg>