<svg xmlns="http://www.w3.org/2000/svg" xmlns:xlink="http://www.w3.org/1999/xlink" viewBox="0 0 133.91 148.26"><defs><style>.cls-1{mask:url(#mask);filter:url(#luminosity-noclip-2);}.cls-2{mix-blend-mode:multiply;fill:url(#linear-gradient);}.cls-3{fill:url(#linear-gradient-2);}.cls-4{mask:url(#mask-2);}.cls-5{fill:url(#linear-gradient-3);}.cls-6{fill:#fccd06;}.cls-7{fill:#f8f9f6;}.cls-8{filter:url(#luminosity-noclip);}</style><filter id="luminosity-noclip" x="11.1" y="-10940.11" width="111.71" height="32766" filterUnits="userSpaceOnUse" color-interpolation-filters="sRGB"><feFlood flood-color="#fff" result="bg"/><feBlend in="SourceGraphic" in2="bg"/></filter><mask id="mask" x="11.1" y="-10940.11" width="111.71" height="32766" maskUnits="userSpaceOnUse"><g class="cls-8"/></mask><linearGradient id="linear-gradient" x1="66.95" y1="131.61" x2="66.95" y2="5.55" gradientUnits="userSpaceOnUse"><stop offset="0" stop-color="#fff"/><stop offset="0.54"/><stop offset="0.58" stop-color="#080808"/><stop offset="0.64" stop-color="#1c1c1c"/><stop offset="0.71" stop-color="#3f3f3f"/><stop offset="0.79" stop-color="#6e6e6e"/><stop offset="0.89" stop-color="#ababab"/><stop offset="0.99" stop-color="#f4f4f4"/><stop offset="1" stop-color="#fff"/></linearGradient><linearGradient id="linear-gradient-2" x1="66.95" y1="148.26" x2="66.95" gradientUnits="userSpaceOnUse"><stop offset="0.08" stop-color="#fa0"/><stop offset="0.53" stop-color="#fea800"/><stop offset="0.69" stop-color="#fba100"/><stop offset="0.81" stop-color="#f69600"/><stop offset="0.9" stop-color="#ee8500"/></linearGradient><filter id="luminosity-noclip-2" x="11.1" y="5.55" width="111.71" height="126.06" filterUnits="userSpaceOnUse" color-interpolation-filters="sRGB"><feFlood flood-color="#fff" result="bg"/><feBlend in="SourceGraphic" in2="bg"/></filter><mask id="mask-2" x="11.1" y="5.55" width="111.71" height="126.06" maskUnits="userSpaceOnUse"><g class="cls-1"><path class="cls-2" d="M63.64,131.61a83.34,83.34,0,0,1-32.06-7.05c-8.78-3.82-14.31-9.49-16.92-17.34A77.79,77.79,0,0,1,11.4,89.48a108.72,108.72,0,0,1,.25-19,11.12,11.12,0,0,0,.06-1.16c0-.09,0-.16,0-.21a6.11,6.11,0,0,1,1.61-1A37.59,37.59,0,0,1,27.16,65C28,65,28.79,65,29.58,65a40.46,40.46,0,0,1,11.48,1.54c0,4,0,8.81,0,14.35-.12,13.4,8.08,22.23,20.88,22.49l.8,0c8.85,0,15.6-4.48,18.08-12a56.34,56.34,0,0,0,2.5-12.67c0-.06,0-.12,0-.17a258.12,258.12,0,0,0-.56-44.14c-1.53-15-1.61-21.64-1.46-24.48a11.43,11.43,0,0,1,2-1A48.24,48.24,0,0,1,98.39,5.68c1.35-.09,2.7-.13,4-.13a52.71,52.71,0,0,1,11.75,1.27,17,17,0,0,1,2.52.75c.76,3.32,1.86,9.26,3.27,19.85s2.31,21.8,2.71,33.66a237.63,237.63,0,0,1-1.1,33.42c-1.25,11.58-3.83,16.25-5.26,18l-.37.48c-4.44,6.11-11.1,10.57-20.39,13.62a100.4,100.4,0,0,1-31.4,5Z"/></g></mask><linearGradient id="linear-gradient-3" x1="66.95" y1="131.61" x2="66.95" y2="5.55" xlink:href="#linear-gradient-2"/></defs><title>J</title><g id="Layer_2" data-name="Layer 2"><g id="objects"><path class="cls-3" d="M124.9,125.06Q116.2,137,99,142.7a111.08,111.08,0,0,1-35.47,5.56,93.94,93.94,0,0,1-36.39-8q-17.62-7.68-23-24.11A89.91,89.91,0,0,1,.32,95.83,120.34,120.34,0,0,1,.61,74.9q0-7.64,8.17-11.3a48.5,48.5,0,0,1,17.88-4.11,53,53,0,0,1,17.74,2q8,2.41,7.73,6.86.09,7.07,0,18.17t10,11.31q6.57.19,8.07-4.35a44.45,44.45,0,0,0,2-10.15,246,246,0,0,0-.53-42.23q-2.08-20.49-1.4-27.55.48-6,8.89-9.37a59,59,0,0,1,18.5-4,66.16,66.16,0,0,1,19,1.4q8.83,2,10.29,6.86,1.83,6.77,4,23.1t2.8,34.74a246.29,246.29,0,0,1-1.16,35Q130.79,117.82,124.9,125.06Z"/><g class="cls-4"><path class="cls-5" d="M63.64,131.61a83.34,83.34,0,0,1-32.06-7.05c-8.78-3.82-14.31-9.49-16.92-17.34A77.79,77.79,0,0,1,11.4,89.48a108.72,108.72,0,0,1,.25-19,11.12,11.12,0,0,0,.06-1.16c0-.09,0-.16,0-.21a6.11,6.11,0,0,1,1.61-1A37.59,37.59,0,0,1,27.16,65C28,65,28.79,65,29.58,65a40.46,40.46,0,0,1,11.48,1.54c0,4,0,8.81,0,14.35-.12,13.4,8.08,22.23,20.88,22.49l.8,0c8.85,0,15.6-4.48,18.08-12a56.34,56.34,0,0,0,2.5-12.67c0-.06,0-.12,0-.17a258.12,258.12,0,0,0-.56-44.14c-1.53-15-1.61-21.64-1.46-24.48a11.43,11.43,0,0,1,2-1A48.24,48.24,0,0,1,98.39,5.68c1.35-.09,2.7-.13,4-.13a52.71,52.71,0,0,1,11.75,1.27,17,17,0,0,1,2.52.75c.76,3.32,1.86,9.26,3.27,19.85s2.31,21.8,2.71,33.66a237.63,237.63,0,0,1-1.1,33.42c-1.25,11.58-3.83,16.25-5.26,18l-.37.48c-4.44,6.11-11.1,10.57-20.39,13.62a100.4,100.4,0,0,1-31.4,5Z"/></g><path class="cls-6" d="M102.4,2.77h0A61.14,61.14,0,0,1,116,4.25c3.3.76,7.41,2.23,8.24,4.93,1.19,4.39,2.51,12,3.93,22.7s2.37,22.33,2.78,34.47a246.76,246.76,0,0,1-1.14,34.59c-1.13,10.46-3.51,18-7.08,22.37l0,.06,0,.06c-5.43,7.47-13.68,13.07-24.53,16.63a108.58,108.58,0,0,1-34,5.42h-.56a91.51,91.51,0,0,1-35.32-7.74c-11.1-4.84-18.14-12.18-21.51-22.4A87.22,87.22,0,0,1,3.09,95.63a117.68,117.68,0,0,1,.28-20.44l0-.14V74.9c0-4,2.07-6.77,6.53-8.77a45.73,45.73,0,0,1,16.87-3.87c.94,0,1.88-.06,2.79-.06a48.62,48.62,0,0,1,14,1.93c1.78.53,5.9,2,5.77,4v.22c.07,4.66.06,10.75,0,18.11-.08,8.94,4.46,14,12.75,14.1h.61c6.7,0,9.23-3.4,10.17-6.26A48,48,0,0,0,75,83.51a250.63,250.63,0,0,0-.54-42.71c-1.36-13.41-1.83-22.5-1.4-27,.09-1.06.35-4.28,7.16-7A56.76,56.76,0,0,1,97.87,2.92c1.52-.1,3-.15,4.53-.15m0-2.77c-1.55,0-3.11.05-4.71.15a59,59,0,0,0-18.5,4q-8.41,3.39-8.89,9.37-.69,7.07,1.4,27.55a246,246,0,0,1,.53,42.23,44.45,44.45,0,0,1-2,10.15c-1,2.9-3.47,4.36-7.54,4.36h-.53Q52,97.62,52.13,86.5t0-18.17q.28-4.44-7.73-6.86a51.44,51.44,0,0,0-14.82-2c-1,0-1.93,0-2.92.07A48.5,48.5,0,0,0,8.78,63.6Q.62,67.27.61,74.9A120.34,120.34,0,0,0,.32,95.83a89.91,89.91,0,0,0,3.77,20.34q5.42,16.44,23.05,24.11a93.94,93.94,0,0,0,36.39,8h.6A110.88,110.88,0,0,0,99,142.7q17.2-5.65,25.9-17.64,5.9-7.25,7.68-23.82a246.29,246.29,0,0,0,1.16-35q-.63-18.4-2.8-34.74t-4-23.1q-1.46-4.83-10.29-6.86A63.68,63.68,0,0,0,102.4,0Z"/><path class="cls-7" d="M42.85,70.36a4.64,4.64,0,0,0-6.54,0A4.82,4.82,0,0,0,35,73.63v.24a4.77,4.77,0,0,0,1.35,3.27,4.71,4.71,0,0,0,3.27,1.35,4.63,4.63,0,0,0,3.27-1.35,4.83,4.83,0,0,0,1.36-3.27v-.24A4.78,4.78,0,0,0,42.85,70.36Z"/><path class="cls-7" d="M112,8.73a4.66,4.66,0,0,0-3.27-1.36,4.72,4.72,0,0,0-3.27,1.36A4.78,4.78,0,0,0,104.15,12v.23a4.76,4.76,0,0,0,1.35,3.27,4.61,4.61,0,0,0,6.54,0,4.79,4.79,0,0,0,1.36-3.27V12A4.76,4.76,0,0,0,112,8.73Z"/><path class="cls-7" d="M123.13,21.82c-1.3-5.81-10.22-3.35-8.92,2.46a224.43,224.43,0,0,1,3.35,78.45c-.78,5.89,8.48,5.83,9.25,0A231.73,231.73,0,0,0,123.13,21.82Z"/></g></g></svg>