<svg xmlns="http://www.w3.org/2000/svg" xmlns:xlink="http://www.w3.org/1999/xlink" viewBox="0 0 130.26 147.34"><defs><style>.cls-1{mask:url(#mask);filter:url(#luminosity-noclip-2);}.cls-2{mix-blend-mode:multiply;fill:url(#linear-gradient);}.cls-3{fill:url(#linear-gradient-2);}.cls-4{mask:url(#mask-2);}.cls-5{fill:url(#linear-gradient-3);}.cls-6{fill:#5f5;}.cls-7{fill:#f8f9f6;}.cls-8{filter:url(#luminosity-noclip);}</style><filter id="luminosity-noclip" x="11.1" y="-10939.26" width="107.97" height="32766" filterUnits="userSpaceOnUse" color-interpolation-filters="sRGB"><feFlood flood-color="#fff" result="bg"/><feBlend in="SourceGraphic" in2="bg"/></filter><mask id="mask" x="11.1" y="-10939.26" width="107.97" height="32766" maskUnits="userSpaceOnUse"><g class="cls-8"/></mask><linearGradient id="linear-gradient" x1="65.08" y1="130.69" x2="65.08" y2="5.55" gradientUnits="userSpaceOnUse"><stop offset="0" stop-color="#fff"/><stop offset="0.54"/><stop offset="0.58" stop-color="#080808"/><stop offset="0.64" stop-color="#1c1c1c"/><stop offset="0.71" stop-color="#3f3f3f"/><stop offset="0.79" stop-color="#6e6e6e"/><stop offset="0.89" stop-color="#ababab"/><stop offset="0.99" stop-color="#f4f4f4"/><stop offset="1" stop-color="#fff"/></linearGradient><linearGradient id="linear-gradient-2" x1="65.13" y1="147.34" x2="65.13" gradientUnits="userSpaceOnUse"><stop offset="0" stop-color="#12ff00"/><stop offset="1" stop-color="#00bf01"/></linearGradient><filter id="luminosity-noclip-2" x="11.1" y="5.55" width="107.97" height="125.14" filterUnits="userSpaceOnUse" color-interpolation-filters="sRGB"><feFlood flood-color="#fff" result="bg"/><feBlend in="SourceGraphic" in2="bg"/></filter><mask id="mask-2" x="11.1" y="5.55" width="107.97" height="125.14" maskUnits="userSpaceOnUse"><g class="cls-1"><path class="cls-2" d="M28.94,130.69A58.7,58.7,0,0,1,18.79,130a101.2,101.2,0,0,1-2.16-12.06c-1.61-12-2.88-25.76-3.79-40.81s-1.48-29.94-1.67-43.94c-.18-12.83,0-20,.29-24a26.12,26.12,0,0,1,2.6-.82A89.22,89.22,0,0,1,32.82,5.65c1.64-.07,3.27-.1,4.84-.1a87.65,87.65,0,0,1,13.83,1l1.17.21c.09,1.11.19,2.24.27,3.37.21,2.74.38,5.89.51,9.35A11.08,11.08,0,0,0,60,29.25a11,11,0,0,0,4.51,1,11.08,11.08,0,0,0,7.13-2.59A174.77,174.77,0,0,1,91,13.27a50.16,50.16,0,0,1,4.37-2.47c2.7,1.77,6.91,5.11,13,11.41a85.71,85.71,0,0,1,7.19,8.15,81.22,81.22,0,0,1-6,7.89C103.27,45.75,95.8,53.94,87.4,62.6a11.11,11.11,0,0,0,2.87,17.6c11.68,6,21.35,11.54,28.8,16.41-.06.49-.14,1.08-.27,1.8a74.13,74.13,0,0,1-4.94,15.88,66.89,66.89,0,0,1-8.14,14.26c-.47.61-.87,1.08-1.2,1.44-2.18-.78-6-2.35-12.57-5.49-8.16-3.92-17-8.35-26.13-13.16a11.1,11.1,0,0,0-16.16,8.36c-.65,4.88-1.21,7.77-1.6,9.42a73.09,73.09,0,0,1-11.91,1.36C33.57,130.62,31.14,130.69,28.94,130.69Z"/></g></mask><linearGradient id="linear-gradient-3" x1="11.1" y1="68.12" x2="119.07" y2="68.12" gradientUnits="userSpaceOnUse"><stop offset="0" stop-color="#12da00"/><stop offset="1" stop-color="#00bf01"/></linearGradient></defs><title>K</title><g id="Layer_2" data-name="Layer 2"><g id="objects"><path class="cls-3" d="M127.54,35.58q.3,3.78-9.47,15.37T95.36,75.88a319.46,319.46,0,0,1,32.86,19q3.09,2.23,1.5,11a85.23,85.23,0,0,1-5.66,18.27,77.55,77.55,0,0,1-9.52,16.62q-5.46,7.15-10,6.28-4.94-1.06-17.4-7.05T60.66,126.72q-1.74,13-3.67,15.56-2.22,3.87-20.25,4.83t-25.37-2.22q-3.28-1.45-5.75-20T1.76,83.33Q.35,60.23.07,38.87T.74,10.26q.78-4.54,10.49-7.1A99.47,99.47,0,0,1,32.35.11,103.66,103.66,0,0,1,53.27,1.18q9.52,1.54,10,5.22.39,4,.73,8.45t.53,9.81A186,186,0,0,1,85.16,9.39Q94.49,3.6,97.39,4.75q7.53,3.48,19,15.27T127.54,35.58Z"/><g class="cls-4"><path class="cls-5" d="M28.94,130.69A58.7,58.7,0,0,1,18.79,130a101.2,101.2,0,0,1-2.16-12.06c-1.61-12-2.88-25.76-3.79-40.81s-1.48-29.94-1.67-43.94c-.18-12.83,0-20,.29-24a26.12,26.12,0,0,1,2.6-.82A89.22,89.22,0,0,1,32.82,5.65c1.64-.07,3.27-.1,4.84-.1a87.65,87.65,0,0,1,13.83,1l1.17.21c.09,1.11.19,2.24.27,3.37.21,2.74.38,5.89.51,9.35A11.08,11.08,0,0,0,60,29.25a11,11,0,0,0,4.51,1,11.08,11.08,0,0,0,7.13-2.59A174.77,174.77,0,0,1,91,13.27a50.16,50.16,0,0,1,4.37-2.47c2.7,1.77,6.91,5.11,13,11.41a85.71,85.71,0,0,1,7.19,8.15,81.22,81.22,0,0,1-6,7.89C103.27,45.75,95.8,53.94,87.4,62.6a11.11,11.11,0,0,0,2.87,17.6c11.68,6,21.35,11.54,28.8,16.41-.06.49-.14,1.08-.27,1.8a74.13,74.13,0,0,1-4.94,15.88,66.89,66.89,0,0,1-8.14,14.26c-.47.61-.87,1.08-1.2,1.44-2.18-.78-6-2.35-12.57-5.49-8.16-3.92-17-8.35-26.13-13.16a11.1,11.1,0,0,0-16.16,8.36c-.65,4.88-1.21,7.77-1.6,9.42a73.09,73.09,0,0,1-11.91,1.36C33.57,130.62,31.14,130.69,28.94,130.69Z"/></g><path class="cls-6" d="M37.66,2.77A94.82,94.82,0,0,1,52.82,3.92c6.11,1,7.6,2.44,7.7,2.82.25,2.67.49,5.47.71,8.33s.4,6.12.53,9.69l.2,5.67,4.35-3.64a182.54,182.54,0,0,1,20.32-15c6.41-4,8.86-4.41,9.61-4.41h.13c4.67,2.2,10.73,7.12,18,14.62,10,10.34,10.38,13.15,10.39,13.41l0,.23,0,.2c0,.27-.09,3-8.83,13.36-6.44,7.65-14,16-22.58,24.79l-2.61,2.68,3.33,1.72a315.33,315.33,0,0,1,32.52,18.84c.22.17,1.59,1.54.38,8.26a83.17,83.17,0,0,1-5.48,17.66,75.38,75.38,0,0,1-9.17,16c-2.6,3.4-5,5.28-6.8,5.28a2.22,2.22,0,0,1-.45,0c-3.07-.67-8.7-3-16.74-6.83-8.26-4-17.14-8.44-26.4-13.3l-3.51-1.84-.53,3.93c-1.56,11.72-2.87,13.92-3.12,14.24l-.11.14-.09.16c-.07.11-1.83,2.59-18,3.45-2.74.15-5.31.22-7.66.22-7.44,0-12.93-.73-16.31-2.15-.47-.49-2.32-3.28-4.26-17.84C6.75,112.35,5.45,98.42,4.53,83.16S3,53,2.84,38.83c-.19-14,0-23.45.65-28.14.16-.86,1.34-3,8.45-4.85A96.69,96.69,0,0,1,32.46,2.89c1.76-.08,3.51-.12,5.2-.12m0-2.77c-1.73,0-3.51,0-5.31.11A99.47,99.47,0,0,0,11.23,3.16Q1.51,5.73.74,10.26q-1,7.24-.67,28.61T1.76,83.33q1.4,23.1,3.86,41.6t5.75,20q5.64,2.45,17.57,2.45,3.61,0,7.8-.23,18-1,20.25-4.83,1.93-2.5,3.67-15.56,14,7.35,26.48,13.34t17.4,7.05a4.78,4.78,0,0,0,1,.1c2.75,0,5.76-2.13,9-6.38a77.55,77.55,0,0,0,9.52-16.62,85.23,85.23,0,0,0,5.66-18.27q1.59-8.79-1.5-11a319.46,319.46,0,0,0-32.86-19Q108.31,62.54,118.07,51t9.47-15.37q.3-3.76-11.16-15.56t-19-15.27a3.08,3.08,0,0,0-1.15-.19q-3.3,0-11.08,4.83A186,186,0,0,0,64.53,24.66q-.19-5.4-.53-9.81T63.27,6.4q-.48-3.67-10-5.22A97,97,0,0,0,37.66,0Z"/><path class="cls-7" d="M51.61,8.88c-6,0-6,9.25,0,9.25S57.57,8.88,51.61,8.88Z"/><path class="cls-7" d="M92.94,12.89c-6,0-6,9.25,0,9.25S98.9,12.89,92.94,12.89Z"/><path class="cls-7" d="M118.59,33.5A56.46,56.46,0,0,0,107.16,20c-4.48-3.84-10.68,2.16-6.54,6.54.28.31.57.61.86.91a5.13,5.13,0,0,0,1.13.9,47.72,47.72,0,0,1,8,9.87C113.7,43.25,121.7,38.6,118.59,33.5Z"/><path class="cls-7" d="M120.07,97.36A147.67,147.67,0,0,0,90.31,79.82c-5.4-2.38-10.11,5.59-4.67,8a147.2,147.2,0,0,1,29.76,17.54C120.14,109,124.75,100.92,120.07,97.36Z"/></g></g></svg>