<svg xmlns="http://www.w3.org/2000/svg" xmlns:xlink="http://www.w3.org/1999/xlink" viewBox="0 0 111.78 148.33"><defs><style>.cls-1{mask:url(#mask);filter:url(#luminosity-noclip-2);}.cls-2{mix-blend-mode:multiply;fill:url(#linear-gradient);}.cls-3{fill:url(#Gradient_59);}.cls-4{mask:url(#mask-2);}.cls-5{fill:url(#Gradient_59-2);}.cls-6{fill:#d78dc0;}.cls-7{fill:#f8f9f6;}.cls-8{filter:url(#luminosity-noclip);}</style><filter id="luminosity-noclip" x="11.1" y="-10940.25" width="89.58" height="32766" filterUnits="userSpaceOnUse" color-interpolation-filters="sRGB"><feFlood flood-color="#fff" result="bg"/><feBlend in="SourceGraphic" in2="bg"/></filter><mask id="mask" x="11.1" y="-10940.25" width="89.58" height="32766" maskUnits="userSpaceOnUse"><g class="cls-8"/></mask><linearGradient id="linear-gradient" x1="55.89" y1="131.68" x2="55.89" y2="5.55" gradientUnits="userSpaceOnUse"><stop offset="0" stop-color="#fff"/><stop offset="0.54"/><stop offset="0.58" stop-color="#080808"/><stop offset="0.64" stop-color="#1c1c1c"/><stop offset="0.71" stop-color="#3f3f3f"/><stop offset="0.79" stop-color="#6e6e6e"/><stop offset="0.89" stop-color="#ababab"/><stop offset="0.99" stop-color="#f4f4f4"/><stop offset="1" stop-color="#fff"/></linearGradient><linearGradient id="Gradient_59" x1="55.89" y1="148.33" x2="55.89" gradientUnits="userSpaceOnUse"><stop offset="0" stop-color="#ffbba4"/><stop offset="1" stop-color="#ffd1c9"/></linearGradient><filter id="luminosity-noclip-2" x="11.1" y="5.55" width="89.58" height="126.13" filterUnits="userSpaceOnUse" color-interpolation-filters="sRGB"><feFlood flood-color="#fff" result="bg"/><feBlend in="SourceGraphic" in2="bg"/></filter><mask id="mask-2" x="11.1" y="5.55" width="89.58" height="126.13" maskUnits="userSpaceOnUse"><g class="cls-1"><path class="cls-2" d="M51.11,131.68c-8.85,0-17.23-.32-24.89-1a51.24,51.24,0,0,1-9.84-1.53c-.57-2-1.54-6.4-2.4-15.61-1.17-12.38-2-26.22-2.37-41.11s-.58-29.43-.48-43c.08-11.32.29-18,.52-22.06l.89-.2A90.09,90.09,0,0,1,30,5.55h.58a100.65,100.65,0,0,1,17,1.34l.54.09c.11,2.49.21,5.87.3,10.45.16,8.08.31,16.71.44,25.65s.27,17,.43,24.2c.25,10.91.61,13.38,1.3,15.39,1.43,4.4,5.47,9.58,16.49,10,1.62.06,3.33.1,5.08.1,2.77,0,5.74-.09,8.84-.26,4.6-.25,9.25-.52,13.8-.83q1.41-.09,2.55-.12c.18.57.37,1.26.58,2.11a99.25,99.25,0,0,1,2.51,17.38,89.37,89.37,0,0,1-.46,17c0,.34-.09.65-.13.93-2.74.38-7,.84-13.81,1.35-9.56.72-19.81,1.15-30.47,1.28Z"/></g></mask><linearGradient id="Gradient_59-2" x1="55.89" y1="131.68" x2="55.89" y2="5.55" xlink:href="#Gradient_59"/></defs><title>L</title><g id="Layer_2" data-name="Layer 2"><g id="objects"><path class="cls-3" d="M58.84,5.85q.48,4.55.72,16.91T60,48.47q.18,13.34.43,24.11t.73,12.13c.45,1.48,2.59,2.31,6.42,2.47s8.12.11,12.86-.15,9.29-.53,13.67-.82,7.38-.18,9,.34q3.48,1.15,5.65,10.1A109.86,109.86,0,0,1,111.56,116a100.1,100.1,0,0,1-.54,19.13q-1.15,8.74-4.44,9.52-4.93,1.26-19.67,2.37t-31.17,1.3q-16.43.19-30.44-1T8,142.7q-3.28-3.48-5.07-22.52T.51,78.33Q-.12,55.53,0,34.94T1,7.68q.38-4,9.37-5.79A100.5,100.5,0,0,1,29.94,0,112.36,112.36,0,0,1,49.51,1.5Q58.45,3,58.84,5.85Z"/><g class="cls-4"><path class="cls-5" d="M51.11,131.68c-8.85,0-17.23-.32-24.89-1a51.24,51.24,0,0,1-9.84-1.53c-.57-2-1.54-6.4-2.4-15.61-1.17-12.38-2-26.22-2.37-41.11s-.58-29.43-.48-43c.08-11.32.29-18,.52-22.06l.89-.2A90.09,90.09,0,0,1,30,5.55h.58a100.65,100.65,0,0,1,17,1.34l.54.09c.11,2.49.21,5.87.3,10.45.16,8.08.31,16.71.44,25.65s.27,17,.43,24.2c.25,10.91.61,13.38,1.3,15.39,1.43,4.4,5.47,9.58,16.49,10,1.62.06,3.33.1,5.08.1,2.77,0,5.74-.09,8.84-.26,4.6-.25,9.25-.52,13.8-.83q1.41-.09,2.55-.12c.18.57.37,1.26.58,2.11a99.25,99.25,0,0,1,2.51,17.38,89.37,89.37,0,0,1-.46,17c0,.34-.09.65-.13.93-2.74.38-7,.84-13.81,1.35-9.56.72-19.81,1.15-30.47,1.28Z"/></g><path class="cls-6" d="M30.57,2.77A110.16,110.16,0,0,1,49,4.23c5.25.91,6.73,1.92,7.07,2.22.3,3,.52,8.52.68,16.37.15,8.08.3,16.73.43,25.69s.28,16.94.44,24.13c.24,10.93.62,12.28.86,13,1.3,4,7,4.28,8.95,4.36,1.5.06,3.1.09,4.74.09,2.61,0,5.43-.08,8.38-.24,4.56-.25,9.17-.52,13.71-.82,1.5-.1,2.85-.15,4-.15a14.09,14.09,0,0,1,3.92.35c.21.07,2.08.88,3.84,8.12a108.2,108.2,0,0,1,2.73,18.84,98,98,0,0,1-.52,18.61c-.85,6.4-2.31,7.18-2.33,7.18h0c-3.11.8-9.57,1.57-19.19,2.29s-20.15,1.17-31,1.3l-4.6,0c-9.08,0-17.69-.33-25.58-1-11.69-1-14.74-3-15.51-3.78-.62-.65-2.75-4.09-4.33-20.87-1.18-12.57-2-26.59-2.41-41.66S2.71,48.63,2.8,35,3.2,12.31,3.7,8V8c.07-.71,1.65-2.22,7.16-3.35A98.26,98.26,0,0,1,30,2.78h.62m0-2.77h-.63A100.5,100.5,0,0,0,10.32,1.89Q1.34,3.72,1,7.68.17,14.36,0,34.94T.51,78.33q.63,22.82,2.42,41.85T8,142.7q3.29,3.48,17.3,4.64,12,1,25.81,1l4.63,0q16.44-.18,31.17-1.3t19.67-2.37q3.28-.76,4.44-9.52a100.1,100.1,0,0,0,.54-19.13,109.86,109.86,0,0,0-2.81-19.33q-2.18-8.94-5.65-10.1a17,17,0,0,0-4.8-.5c-1.21,0-2.61,0-4.19.16q-6.57.44-13.67.82-4.38.24-8.23.24c-1.61,0-3.15,0-4.63-.09-3.83-.16-6-1-6.42-2.47q-.49-1.35-.73-12.13T60,48.47q-.2-13.33-.44-25.71T58.84,5.85Q58.45,3,49.51,1.5A111.39,111.39,0,0,0,30.57,0Z"/><path class="cls-7" d="M51.42,9.58a4.66,4.66,0,0,0-3.27-1.36,4.85,4.85,0,0,0-3.27,1.36,2.5,2.5,0,0,1-.23.23,4.78,4.78,0,0,0-1.36,3.27,4.64,4.64,0,0,0,4.63,4.63,4.85,4.85,0,0,0,3.27-1.36l.23-.23a4.78,4.78,0,0,0,1.36-3.27A4.66,4.66,0,0,0,51.42,9.58Z"/><path class="cls-7" d="M53.29,25.84c-.25-5.94-9.5-6-9.25,0q1.07,25.62,2.12,51.25c.25,5.93,9.5,6,9.25,0Q54.35,51.46,53.29,25.84Z"/><path class="cls-7" d="M98.19,92.46c-2.57-5.36-10.55-.68-8,4.67a43.82,43.82,0,0,1,1.21,34.69c-2.1,5.58,6.84,8,8.92,2.46A53,53,0,0,0,98.19,92.46Z"/></g></g></svg>