<svg xmlns="http://www.w3.org/2000/svg" xmlns:xlink="http://www.w3.org/1999/xlink" viewBox="0 0 187.79 148"><defs><style>.cls-1{mask:url(#mask);filter:url(#luminosity-noclip-2);}.cls-2{mix-blend-mode:multiply;fill:url(#linear-gradient);}.cls-3{fill:url(#linear-gradient-2);}.cls-4{mask:url(#mask-2);}.cls-5{fill:url(#linear-gradient-3);}.cls-6{fill:#fccd06;}.cls-7{fill:#f8f9f6;}.cls-8{filter:url(#luminosity-noclip);}</style><filter id="luminosity-noclip" x="11.1" y="-10939.96" width="165.59" height="32766" filterUnits="userSpaceOnUse" color-interpolation-filters="sRGB"><feFlood flood-color="#fff" result="bg"/><feBlend in="SourceGraphic" in2="bg"/></filter><mask id="mask" x="11.1" y="-10939.96" width="165.59" height="32766" maskUnits="userSpaceOnUse"><g class="cls-8"/></mask><linearGradient id="linear-gradient" x1="93.9" y1="131.35" x2="93.9" y2="5.55" gradientUnits="userSpaceOnUse"><stop offset="0" stop-color="#fff"/><stop offset="0.54"/><stop offset="0.58" stop-color="#080808"/><stop offset="0.64" stop-color="#1c1c1c"/><stop offset="0.71" stop-color="#3f3f3f"/><stop offset="0.79" stop-color="#6e6e6e"/><stop offset="0.89" stop-color="#ababab"/><stop offset="0.99" stop-color="#f4f4f4"/><stop offset="1" stop-color="#fff"/></linearGradient><linearGradient id="linear-gradient-2" x1="93.9" y1="148" x2="93.9" gradientUnits="userSpaceOnUse"><stop offset="0.08" stop-color="#fa0"/><stop offset="0.53" stop-color="#fea800"/><stop offset="0.69" stop-color="#fba100"/><stop offset="0.81" stop-color="#f69600"/><stop offset="0.9" stop-color="#ee8500"/></linearGradient><filter id="luminosity-noclip-2" x="11.1" y="5.55" width="165.59" height="125.8" filterUnits="userSpaceOnUse" color-interpolation-filters="sRGB"><feFlood flood-color="#fff" result="bg"/><feBlend in="SourceGraphic" in2="bg"/></filter><mask id="mask-2" x="11.1" y="5.55" width="165.59" height="125.8" maskUnits="userSpaceOnUse"><g class="cls-1"><path class="cls-2" d="M33.58,131.35c-2.69,0-5.45-.06-8.19-.17a101.83,101.83,0,0,1-11.14-1,159.1,159.1,0,0,1-1.71-16.66c-.89-13.76-1.37-28.83-1.43-44.8s.19-31.07.76-44.72c.39-9.17.88-14.2,1.26-16.9.47-.1,1-.21,1.65-.32A91.48,91.48,0,0,1,29.93,5.55h.57A99.05,99.05,0,0,1,46,6.72a21.18,21.18,0,0,1,6,1.56A136.08,136.08,0,0,1,66.18,25.93c6,8.49,12.15,17.53,18.31,26.87a11.11,11.11,0,0,0,9.21,5h.06a11.1,11.1,0,0,0,9.2-4.9c6.29-9.34,12.5-18.45,18.44-27C126.8,18,131.54,12.1,135.51,8.25a21.39,21.39,0,0,1,6-1.53,99.15,99.15,0,0,1,15.18-1.13h1.12a95.29,95.29,0,0,1,15.29,1.28l1.1.21c.42,3,1,8.41,1.48,18.28.7,13.63,1.05,28.58,1.05,44.42s-.38,30.69-1.14,44.17A155.86,155.86,0,0,1,174,130.08c-2.23.27-5.77.57-11.27.76-3.42.12-6.56.18-9.34.18-3.37,0-6-.08-8-.21-.41-1.76-.91-4.33-1.47-8.06-1.55-10.36-2.62-21-3.18-31.61a11.1,11.1,0,0,0-19.12-7.07l-6.9,7.24c-3.2,3.35-6.68,6.85-10.36,10.41s-7,6.5-10.23,9.11c-.3.24-.58.46-.84.65l-.62-.49c-3.12-2.49-6.4-5.4-9.77-8.65s-6.84-6.73-9.91-10c0,0-5.56-5.83-6.6-6.94a11.1,11.1,0,0,0-19.12,6.81c-.75,10-1.9,20.28-3.4,30.53-.57,3.89-1.08,6.54-1.49,8.32-1,.07-2.11.14-3.48.17C37.17,131.32,35.37,131.35,33.58,131.35Z"/></g></mask><linearGradient id="linear-gradient-3" x1="93.9" y1="131.35" x2="93.9" y2="5.55" xlink:href="#linear-gradient-2"/></defs><title>M</title><g id="Layer_2" data-name="Layer 2"><g id="objects"><path class="cls-3" d="M93.76,52.24q9.55-14.2,18.5-27.16t15.8-19.52q3-2.89,11.7-4.25A110,110,0,0,1,157.88.05,106.29,106.29,0,0,1,175,1.5q7.68,1.35,8.84,3.77,1.83,4.25,2.9,25.08t1.06,45q0,24.15-1.16,44.79t-3.77,24.4q-2,2.33-19.71,2.95t-24.84-.82q-2.9-.58-5.32-16.72t-3.28-32.66l-6.91,7.24q-5,5.22-10.68,10.73t-11,9.76q-5.27,4.26-7.78,4.25t-7.59-4q-5.07-4.06-10.53-9.33T65,105.59l-6.62-7q-1.16,15.47-3.48,31.31t-5,16.72a44.12,44.12,0,0,1-10.63,1.26c-4.71.13-9.47.09-14.31-.1a108.69,108.69,0,0,1-13-1.21c-3.84-.61-6-1.3-6.53-2.08q-2.61-3.66-4-24.74T0,74.32q-.1-24.4.77-45.23t2.9-24Q5.14,2.76,12.86,1.4a103.21,103.21,0,0,1,17-1.4A109.6,109.6,0,0,1,47.7,1.31q8.56,1.35,11.65,4.25,6.76,6.57,15.9,19.52T93.76,52.24Z"/><g class="cls-4"><path class="cls-5" d="M33.58,131.35c-2.69,0-5.45-.06-8.19-.17a101.83,101.83,0,0,1-11.14-1,159.1,159.1,0,0,1-1.71-16.66c-.89-13.76-1.37-28.83-1.43-44.8s.19-31.07.76-44.72c.39-9.17.88-14.2,1.26-16.9.47-.1,1-.21,1.65-.32A91.48,91.48,0,0,1,29.93,5.55h.57A99.05,99.05,0,0,1,46,6.72a21.18,21.18,0,0,1,6,1.56A136.08,136.08,0,0,1,66.18,25.93c6,8.49,12.15,17.53,18.31,26.87a11.11,11.11,0,0,0,9.21,5h.06a11.1,11.1,0,0,0,9.2-4.9c6.29-9.34,12.5-18.45,18.44-27C126.8,18,131.54,12.1,135.51,8.25a21.39,21.39,0,0,1,6-1.53,99.15,99.15,0,0,1,15.18-1.13h1.12a95.29,95.29,0,0,1,15.29,1.28l1.1.21c.42,3,1,8.41,1.48,18.28.7,13.63,1.05,28.58,1.05,44.42s-.38,30.69-1.14,44.17A155.86,155.86,0,0,1,174,130.08c-2.23.27-5.77.57-11.27.76-3.42.12-6.56.18-9.34.18-3.37,0-6-.08-8-.21-.41-1.76-.91-4.33-1.47-8.06-1.55-10.36-2.62-21-3.18-31.61a11.1,11.1,0,0,0-19.12-7.07l-6.9,7.24c-3.2,3.35-6.68,6.85-10.36,10.41s-7,6.5-10.23,9.11c-.3.24-.58.46-.84.65l-.62-.49c-3.12-2.49-6.4-5.4-9.77-8.65s-6.84-6.73-9.91-10c0,0-5.56-5.83-6.6-6.94a11.1,11.1,0,0,0-19.12,6.81c-.75,10-1.9,20.28-3.4,30.53-.57,3.89-1.08,6.54-1.49,8.32-1,.07-2.11.14-3.48.17C37.17,131.32,35.37,131.35,33.58,131.35Z"/></g><path class="cls-6" d="M30.5,2.77A107.07,107.07,0,0,1,47.27,4.05c6.34,1,9,2.46,10.17,3.52C61.8,11.82,67,18.25,73,26.68S85.23,44.36,91.44,53.77l2.29,3.47,2.33-3.45c6.32-9.39,12.54-18.52,18.49-27.13,5.82-8.44,11-14.86,15.45-19.11,1.07-1,3.71-2.49,10.19-3.5a106.91,106.91,0,0,1,16.46-1.23h1.2A103.91,103.91,0,0,1,174.5,4.23c5.5,1,6.67,2.07,6.83,2.26.62,1.57,1.75,6.78,2.63,24,.7,13.78,1.06,28.87,1.06,44.85s-.39,31-1.16,44.64c-.93,16.53-2.38,21.31-3.11,22.69-.76.4-4.12,1.56-17.7,2-3.52.12-6.76.19-9.64.19A84.67,84.67,0,0,1,139.3,144c-.47-.69-1.93-3.58-3.56-14.5-1.59-10.61-2.69-21.52-3.26-32.4l-.34-6.43-4.44,4.66-1,1.07-5.89,6.18c-3.28,3.43-6.84,7-10.6,10.65s-7.36,6.83-10.78,9.59c-4.38,3.54-5.88,3.64-6,3.64s-1.66-.1-5.85-3.45c-3.31-2.64-6.79-5.72-10.35-9.16s-7-6.9-10.16-10.21l-.38-.4L60.4,96.72l-4.31-4.55-.47,6.25c-.77,10.2-1.93,20.67-3.46,31.12-1.62,11-3,13.88-3.47,14.57a44.37,44.37,0,0,1-9.52,1c-1.84.05-3.72.08-5.59.08-2.8,0-5.67-.06-8.52-.17a109.85,109.85,0,0,1-12.68-1.18,20.07,20.07,0,0,1-4.83-1.15c-.72-1.27-2.22-5.94-3.32-23.1-.9-13.93-1.38-29.17-1.45-45.31S3,43,3.56,29.21C4.33,10.59,5.64,7.17,6,6.55c0,0,1-1.31,7.31-2.41A99.73,99.73,0,0,1,29.89,2.78h.61M30.5,0h-.63a103.21,103.21,0,0,0-17,1.4Q5.14,2.77,3.68,5.08q-2,3.18-2.9,24T0,74.32Q.1,98.73,1.46,119.79t4,24.74c.52.78,2.69,1.47,6.53,2.08a108.69,108.69,0,0,0,13,1.21c2.91.12,5.78.18,8.64.18,1.9,0,3.79,0,5.67-.08a44.12,44.12,0,0,0,10.63-1.26q2.7-.87,5-16.72t3.48-31.31l6.62,7q4.78,5,10.25,10.29t10.53,9.33q5.07,4,7.59,4t7.78-4.25q5.26-4.24,11-9.76t10.68-10.73l6.91-7.24q.87,16.52,3.28,32.66t5.32,16.72a82,82,0,0,0,15.1,1q4.38,0,9.74-.19,17.68-.63,19.71-2.95,2.61-3.76,3.77-24.4t1.16-44.79q0-24.17-1.06-45t-2.9-25.08Q182.68,2.86,175,1.5A106.29,106.29,0,0,0,157.88.05h-1.23a108.92,108.92,0,0,0-16.89,1.27q-8.7,1.35-11.7,4.25-6.86,6.57-15.8,19.52T93.76,52.24Q84.39,38,75.25,25.08T59.35,5.56Q56.26,2.67,47.7,1.31A110.14,110.14,0,0,0,30.5,0Z"/><path class="cls-7" d="M46.51,13a4.65,4.65,0,0,0-2.13-2.76,4.58,4.58,0,0,0-3.56-.47l-.71.24a4.88,4.88,0,0,0-2.76,2.12A4.61,4.61,0,0,0,39,18.43a4.67,4.67,0,0,0,3.56.47l.71-.24A4.89,4.89,0,0,0,46,16.53,4.71,4.71,0,0,0,46.51,13Z"/><path class="cls-7" d="M90.42,68.3A134.71,134.71,0,0,0,59.81,21.73c-4.24-4.19-10.79,2.35-6.54,6.54A123.84,123.84,0,0,1,81.5,70.76C83.67,76.23,92.61,73.84,90.42,68.3Z"/><path class="cls-7" d="M169.34,7c-6,0-6,9.25,0,9.25S175.3,7,169.34,7Z"/><path class="cls-7" d="M178.6,24.45c-1.1-5.84-10-3.37-8.92,2.46a353.34,353.34,0,0,1,4.23,100.37c-.59,5.91,8.66,5.87,9.25,0A361.48,361.48,0,0,0,178.6,24.45Z"/></g></g></svg>