<svg xmlns="http://www.w3.org/2000/svg" xmlns:xlink="http://www.w3.org/1999/xlink" viewBox="0 0 143.46 148.41"><defs><style>.cls-1{mask:url(#mask);filter:url(#luminosity-noclip-2);}.cls-2{mix-blend-mode:multiply;fill:url(#linear-gradient);}.cls-3{fill:url(#linear-gradient-2);}.cls-4{mask:url(#mask-2);}.cls-5{fill:url(#linear-gradient-3);}.cls-6{fill:#d78dc0;}.cls-7{fill:#f8f9f6;}.cls-8{filter:url(#luminosity-noclip);}</style><filter id="luminosity-noclip" x="11.1" y="-10940.31" width="121.26" height="32766" filterUnits="userSpaceOnUse" color-interpolation-filters="sRGB"><feFlood flood-color="#fff" result="bg"/><feBlend in="SourceGraphic" in2="bg"/></filter><mask id="mask" x="11.1" y="-10940.31" width="121.26" height="32766" maskUnits="userSpaceOnUse"><g class="cls-8"/></mask><linearGradient id="linear-gradient" x1="71.73" y1="131.76" x2="71.73" y2="5.55" gradientUnits="userSpaceOnUse"><stop offset="0" stop-color="#fff"/><stop offset="0.54"/><stop offset="0.58" stop-color="#080808"/><stop offset="0.64" stop-color="#1c1c1c"/><stop offset="0.71" stop-color="#3f3f3f"/><stop offset="0.79" stop-color="#6e6e6e"/><stop offset="0.89" stop-color="#ababab"/><stop offset="0.99" stop-color="#f4f4f4"/><stop offset="1" stop-color="#fff"/></linearGradient><linearGradient id="linear-gradient-2" x1="71.73" y1="148.41" x2="71.73" gradientUnits="userSpaceOnUse"><stop offset="0" stop-color="#ca68ad"/><stop offset="1" stop-color="#e52eac"/></linearGradient><filter id="luminosity-noclip-2" x="11.1" y="5.55" width="121.26" height="126.21" filterUnits="userSpaceOnUse" color-interpolation-filters="sRGB"><feFlood flood-color="#fff" result="bg"/><feBlend in="SourceGraphic" in2="bg"/></filter><mask id="mask-2" x="11.1" y="5.55" width="121.26" height="126.21" maskUnits="userSpaceOnUse"><g class="cls-1"><path class="cls-2" d="M31.46,131.76c-1.79,0-3.74,0-5.78-.14A71,71,0,0,1,15,130.54a125,125,0,0,1-1.66-12.89c-1-10.72-1.64-23.25-2-37.26S11,51.88,11.4,37.47c.31-11.82,1-21.87,2-30A66.93,66.93,0,0,1,25,6.28c1,0,2,0,3,0a109.51,109.51,0,0,1,12.22.7c5.76.66,8.58,1.54,9.79,2,.89.43,4.73,2.7,12.36,12.57,6.49,8.4,11.25,14.82,14.16,19.08a11.09,11.09,0,0,0,9.17,4.85,11,11,0,0,0,3.42-.54,11.1,11.1,0,0,0,7.67-10.87c-.19-7-.41-13.17-.63-18.48-.15-3.35-.17-5.7-.14-7.34L97,8A71.06,71.06,0,0,1,113.5,5.6c1,0,2,0,3,0a70.76,70.76,0,0,1,13.64,1.24l.77.17c.69,8.38,1.13,18.71,1.31,30.77.22,14.57.22,29.12,0,43.24s-.65,26.66-1.29,37.36c-.35,6.08-.68,10-.94,12.39a76.58,76.58,0,0,1-10.07.9c-1.07,0-2.13,0-3.17,0-3.08,0-6.1-.13-9-.39a32.64,32.64,0,0,1-5.27-.76c-.43-.25-2.24-1.44-6.22-5.39s-8.2-8.39-12.42-13.08-8.22-9.27-11.72-13.46c-4.62-5.53-6-7.32-6.34-7.84a11.1,11.1,0,0,0-20.1,5.52c-.94,11.23-1.94,21-3,29.08-.32,2.56-.63,4.39-.89,5.68A59.06,59.06,0,0,1,31.46,131.76Z"/></g></mask><linearGradient id="linear-gradient-3" x1="71.73" y1="131.76" x2="71.73" y2="5.55" gradientUnits="userSpaceOnUse"><stop offset="0" stop-color="#c549a1"/><stop offset="0.54" stop-color="#e5449e"/><stop offset="0.61" stop-color="#e74ca3"/><stop offset="0.71" stop-color="#eb60af"/><stop offset="0.84" stop-color="#f382c4"/><stop offset="0.99" stop-color="#feb1e1"/><stop offset="1" stop-color="#ffb6e4"/></linearGradient></defs><title>N</title><g id="Layer_2" data-name="Layer 2"><g id="objects"><path class="cls-3" d="M140,143.62Q138.8,145.95,133,147a84.22,84.22,0,0,1-12.81,1.26,113.35,113.35,0,0,1-13.43-.39c-4.29-.38-7.2-.93-8.75-1.64q-3.29-1.46-9.57-7.68T75.59,125q-6.57-7.3-12-13.77t-6.87-8.51q-1.44,17.2-3,29.53t-4,13.48q-7.14,3.28-24.59,2.51T5.91,143.62q-2.13-2.9-3.63-19.42t-2-38Q-.27,64.76.3,42.72T3.11,6.77Q3.49,4,9.92,2.47A74.88,74.88,0,0,1,24.71.73a117.2,117.2,0,0,1,16.81.73,48.5,48.5,0,0,1,13,2.9q6.67,3,16.67,15.94T85.74,39.92q-.3-10.33-.63-18.31a88.87,88.87,0,0,1,0-11.75q.2-4.63,8.89-7A81.37,81.37,0,0,1,113.14.05a84.36,84.36,0,0,1,19.13,1.41Q141,3.2,141.5,6.77,143,21,143.29,43.11t0,43.59q-.34,21.45-1.31,37.83T140,143.62Z"/><g class="cls-4"><path class="cls-5" d="M31.46,131.76c-1.79,0-3.74,0-5.78-.14A71,71,0,0,1,15,130.54a125,125,0,0,1-1.66-12.89c-1-10.72-1.64-23.25-2-37.26S11,51.88,11.4,37.47c.31-11.82,1-21.87,2-30A66.93,66.93,0,0,1,25,6.28c1,0,2,0,3,0a109.51,109.51,0,0,1,12.22.7c5.76.66,8.58,1.54,9.79,2,.89.43,4.73,2.7,12.36,12.57,6.49,8.4,11.25,14.82,14.16,19.08a11.09,11.09,0,0,0,9.17,4.85,11,11,0,0,0,3.42-.54,11.1,11.1,0,0,0,7.67-10.87c-.19-7-.41-13.17-.63-18.48-.15-3.35-.17-5.7-.14-7.34L97,8A71.06,71.06,0,0,1,113.5,5.6c1,0,2,0,3,0a70.76,70.76,0,0,1,13.64,1.24l.77.17c.69,8.38,1.13,18.71,1.31,30.77.22,14.57.22,29.12,0,43.24s-.65,26.66-1.29,37.36c-.35,6.08-.68,10-.94,12.39a76.58,76.58,0,0,1-10.07.9c-1.07,0-2.13,0-3.17,0-3.08,0-6.1-.13-9-.39a32.64,32.64,0,0,1-5.27-.76c-.43-.25-2.24-1.44-6.22-5.39s-8.2-8.39-12.42-13.08-8.22-9.27-11.72-13.46c-4.62-5.53-6-7.32-6.34-7.84a11.1,11.1,0,0,0-20.1,5.52c-.94,11.23-1.94,21-3,29.08-.32,2.56-.63,4.39-.89,5.68A59.06,59.06,0,0,1,31.46,131.76Z"/></g><path class="cls-6" d="M116.47,2.77a78.63,78.63,0,0,1,15.26,1.41c5.47,1.09,6.92,2.5,7,2.94.95,9.34,1.54,21.46,1.76,36s.23,29.3,0,43.5-.66,26.88-1.3,37.72c-.79,13.47-1.47,17.1-1.78,18.07-.19.24-1.15,1.14-4.94,1.83a80.84,80.84,0,0,1-12.38,1.22c-1.13,0-2.28,0-3.39,0-3.33,0-6.59-.14-9.71-.42-5.19-.47-7.14-1.08-7.88-1.42-1.29-.56-3.84-2.26-8.73-7.11-4.13-4.1-8.42-8.61-12.75-13.42s-8.34-9.42-11.92-13.69c-4.4-5.27-6.09-7.44-6.73-8.34L54.61,95,54,102.51c-1,11.34-2,21.24-3,29.41-1.1,8.77-2.28,11-2.6,11.41-3.5,1.53-9.19,2.3-16.93,2.3-1.92,0-4,0-6.15-.14-15.1-.67-16.84-3-16.9-3.06l-.11-.24L8.14,142c-.39-.53-1.77-3.41-3.09-18-1-10.91-1.67-23.62-2-37.8s-.34-28.8.05-43.35A283.42,283.42,0,0,1,5.84,7.19s.6-1.06,4.71-2A73.19,73.19,0,0,1,24.79,3.5c1.07,0,2.17,0,3.25,0a116.82,116.82,0,0,1,13.17.75A46.72,46.72,0,0,1,53.41,6.9c4,1.81,9.24,6.89,15.59,15.1,6.59,8.54,11.45,15.09,14.44,19.48l5.34,7.83-.27-9.47c-.19-6.87-.4-13.05-.63-18.35a86.39,86.39,0,0,1,0-11.34V10c.09-2.28,4.34-3.8,6.86-4.5a79.09,79.09,0,0,1,18.44-2.65c1.09,0,2.18-.06,3.24-.06m0-2.77c-1.1,0-2.21,0-3.33.05A81.37,81.37,0,0,0,94.05,2.81q-8.7,2.41-8.89,7a88.87,88.87,0,0,0,0,11.75q.33,8,.63,18.31Q81.19,33.26,71.19,20.3T54.52,4.36a48.5,48.5,0,0,0-13-2.9A117.69,117.69,0,0,0,28,.68c-1.11,0-2.22,0-3.33,0A74.88,74.88,0,0,0,9.92,2.47Q3.48,4,3.11,6.77.88,20.69.3,42.72t0,43.49q.54,21.47,2,38t3.63,19.42q1.83,3.87,19.28,4.64,3.31.15,6.27.15,12.54,0,18.32-2.66,2.41-1.17,4-13.48t3-29.53q1.45,2,6.87,8.51t12,13.77q6.57,7.29,12.85,13.53T98,146.23c1.55.71,4.46,1.26,8.75,1.64q4.81.44,10,.44c1.14,0,2.3,0,3.47-.05A84.22,84.22,0,0,0,133,147q5.79-1,6.95-3.38,1.06-2.7,2-19.09t1.31-37.83q.33-21.47,0-43.59T141.5,6.77Q141,3.2,132.27,1.46A81.06,81.06,0,0,0,116.47,0Z"/><path class="cls-7" d="M47.69,8.92a4.61,4.61,0,0,0-3.27-1.35,4.84,4.84,0,0,0-3.27,1.35l-.23.24a4.61,4.61,0,0,0,0,6.54,4.62,4.62,0,0,0,3.27,1.35,4.84,4.84,0,0,0,3.27-1.35l.23-.24a4.61,4.61,0,0,0,0-6.54Z"/><path class="cls-7" d="M93.47,61.6A110.16,110.16,0,0,0,61.13,18.81c-4.59-3.7-11.18,2.81-6.54,6.54A104.39,104.39,0,0,1,85.48,66.27C87.8,71.73,95.77,67,93.47,61.6Z"/><path class="cls-7" d="M136.66,15.43c-.91-5.87-9.82-3.38-8.92,2.45a374.65,374.65,0,0,1,3,88.71c-.5,5.93,8.75,5.9,9.25,0A384.19,384.19,0,0,0,136.66,15.43Z"/><path class="cls-7" d="M136,115.9a4.61,4.61,0,0,0-6.54,0,4.78,4.78,0,0,0-1.35,3.27v.47a4.76,4.76,0,0,0,1.35,3.27,4.64,4.64,0,0,0,6.54,0,4.81,4.81,0,0,0,1.36-3.27v-.47A4.76,4.76,0,0,0,136,115.9Z"/></g></g></svg>