<svg xmlns="http://www.w3.org/2000/svg" xmlns:xlink="http://www.w3.org/1999/xlink" viewBox="0 0 151.15 149.01"><defs><style>.cls-1{mask:url(#mask);filter:url(#luminosity-noclip-2);}.cls-2{mix-blend-mode:multiply;fill:url(#linear-gradient);}.cls-3{fill:url(#linear-gradient-2);}.cls-4{mask:url(#mask-2);}.cls-5{fill:url(#linear-gradient-3);}.cls-6{fill:#870000;}.cls-7{fill:#f8f9f6;}.cls-8{filter:url(#luminosity-noclip);}</style><filter id="luminosity-noclip" x="11.09" y="-10703.3" width="128.96" height="32766" filterUnits="userSpaceOnUse" color-interpolation-filters="sRGB"><feFlood flood-color="#fff" result="bg"/><feBlend in="SourceGraphic" in2="bg"/></filter><mask id="mask" x="11.09" y="-10703.3" width="128.96" height="32766" maskUnits="userSpaceOnUse"><g class="cls-8"/></mask><linearGradient id="linear-gradient" x1="75.58" y1="132.37" x2="75.58" y2="5.55" gradientUnits="userSpaceOnUse"><stop offset="0" stop-color="#fff"/><stop offset="0.54"/><stop offset="0.58" stop-color="#080808"/><stop offset="0.64" stop-color="#1c1c1c"/><stop offset="0.71" stop-color="#3f3f3f"/><stop offset="0.79" stop-color="#6e6e6e"/><stop offset="0.89" stop-color="#ababab"/><stop offset="0.99" stop-color="#f4f4f4"/><stop offset="1" stop-color="#fff"/></linearGradient><linearGradient id="linear-gradient-2" x1="75.58" y1="149.01" x2="75.58" gradientUnits="userSpaceOnUse"><stop offset="0.07" stop-color="#e90022"/><stop offset="1" stop-color="#a7001d"/></linearGradient><filter id="luminosity-noclip-2" x="11.09" y="5.55" width="128.96" height="126.82" filterUnits="userSpaceOnUse" color-interpolation-filters="sRGB"><feFlood flood-color="#fff" result="bg"/><feBlend in="SourceGraphic" in2="bg"/></filter><mask id="mask-2" x="11.09" y="5.55" width="128.96" height="126.82" maskUnits="userSpaceOnUse"><g class="cls-1"><path class="cls-2" d="M77.66,132.37a75.43,75.43,0,0,1-12.38-1.07c-18.06-3-31.85-11.34-42.15-25.46S9.23,76.63,12,59.55c2.61-16,10.17-29.08,23.12-40,11.14-9.41,23.5-14,37.79-14,2,0,4,.09,6.12.27,21,1.82,36.66,9.39,48,23.17,11.21,13.58,15.12,29.66,12,49.14-2.9,17.53-11.17,31.29-25.29,42.05A57.54,57.54,0,0,1,77.66,132.37Zm-32-68.08C44,73.74,46.79,82.5,53.58,89.64A29.17,29.17,0,0,0,75.14,99h0a33.05,33.05,0,0,0,3.94-.24A28.35,28.35,0,0,0,96.9,90.28a30.86,30.86,0,0,0,8.52-16.73c1.4-8.61-.43-16.46-5.28-22.77s-11.49-10-20-11.48a32,32,0,0,0-5.28-.45,28,28,0,0,0-17.75,6.21A30.23,30.23,0,0,0,45.64,64.29Z"/></g></mask><linearGradient id="linear-gradient-3" x1="75.58" y1="132.37" x2="75.58" y2="5.55" xlink:href="#linear-gradient-2"/></defs><title>O</title><g id="Layer_2" data-name="Layer 2"><g id="objects"><path class="cls-3" d="M150,85.46q-5,30.45-29.52,49.1t-57,13.24q-31.32-5.22-49.29-29.87T1,63.33Q5.57,35.49,27.94,16.6T80,.32q35.76,3.09,55.62,27.15T150,85.46ZM94.48,77.25q1.35-8.31-3.14-14.16t-13.1-7.3a17.48,17.48,0,0,0-14.3,3.53,19,19,0,0,0-7.35,12.32q-1.55,9,5,15.9a18.25,18.25,0,0,0,16.24,5.75A17.5,17.5,0,0,0,89,88.07,19.89,19.89,0,0,0,94.48,77.25Z"/><g class="cls-4"><path class="cls-5" d="M77.66,132.37a75.43,75.43,0,0,1-12.38-1.07c-18.06-3-31.85-11.34-42.15-25.46S9.23,76.63,12,59.55c2.61-16,10.17-29.08,23.12-40,11.14-9.41,23.5-14,37.79-14,2,0,4,.09,6.12.27,21,1.82,36.66,9.39,48,23.17,11.21,13.58,15.12,29.66,12,49.14-2.9,17.53-11.17,31.29-25.29,42.05A57.54,57.54,0,0,1,77.66,132.37Zm-32-68.08C44,73.74,46.79,82.5,53.58,89.64A29.17,29.17,0,0,0,75.14,99h0a33.05,33.05,0,0,0,3.94-.24A28.35,28.35,0,0,0,96.9,90.28a30.86,30.86,0,0,0,8.52-16.73c1.4-8.61-.43-16.46-5.28-22.77s-11.49-10-20-11.48a32,32,0,0,0-5.28-.45,28,28,0,0,0-17.75,6.21A30.23,30.23,0,0,0,45.64,64.29Z"/></g><path class="cls-6" d="M72.89,0V2.77h0c2.24,0,4.54.11,6.85.31,23,2,41,10.79,53.72,26.16S150.74,63.33,147.22,85a72.59,72.59,0,0,1-28.47,47.34,66.4,66.4,0,0,1-41.09,13.89,84.3,84.3,0,0,1-13.75-1.18c-20-3.34-36-13-47.5-28.76S.68,82.89,3.76,63.78c2.91-17.8,11.64-33,26-45.06A65.35,65.35,0,0,1,72.89,2.77V0m2.25,96.23a26,26,0,0,0,3-.18A20.26,20.26,0,0,0,91,90a22.65,22.65,0,0,0,6.27-12.32c1-6.3-.21-11.78-3.68-16.29s-8.42-7.26-14.84-8.35a23.76,23.76,0,0,0-3.89-.33,19.91,19.91,0,0,0-12.59,4.42,21.73,21.73,0,0,0-8.36,14,20.37,20.37,0,0,0,5.75,18.28,20.74,20.74,0,0,0,15.53,6.78M72.89,0A67.68,67.68,0,0,0,27.94,16.6Q5.56,35.5,1,63.33q-4.83,30,13.15,54.6T63.46,147.8A86.46,86.46,0,0,0,77.66,149a68.81,68.81,0,0,0,42.77-14.45Q144.92,115.9,150,85.46q5.52-33.91-14.35-58T80,.32Q76.38,0,72.89,0Zm2.25,93.46a18,18,0,0,1-13.52-5.92q-6.57-6.92-5-15.9a19,19,0,0,1,7.35-12.32A17.09,17.09,0,0,1,74.81,55.5a21.46,21.46,0,0,1,3.43.29q8.61,1.45,13.1,7.3t3.14,14.16A19.89,19.89,0,0,1,89,88.07a17.5,17.5,0,0,1-11.11,5.22,23.09,23.09,0,0,1-2.72.17Z"/><path class="cls-7" d="M98.46,11c-5.95,0-6,9.25,0,9.25S104.42,11,98.46,11Z"/><path class="cls-7" d="M144.12,69.58a71.66,71.66,0,0,0-31-50.77c-4.94-3.36-9.57,4.66-4.67,8,14.64,10,24.85,26.47,26.6,44.17a62.1,62.1,0,0,1-18.88,50.47c-4.3,4.14,2.25,10.68,6.54,6.54C138.16,113.06,146.63,91.07,144.12,69.58Z"/><path class="cls-7" d="M90,95c-5.95,0-6,9.25,0,9.25S95.92,95,90,95Z"/><path class="cls-7" d="M77.69,97.63c-13,1-23.37-7.51-25.3-20.33-.88-5.86-9.8-3.37-8.92,2.46a32.18,32.18,0,0,0,34.22,27.12C83.59,106.45,83.64,97.2,77.69,97.63Z"/></g></g></svg>