<svg xmlns="http://www.w3.org/2000/svg" xmlns:xlink="http://www.w3.org/1999/xlink" viewBox="0 0 125.87 153.92"><defs><style>.cls-1{mask:url(#mask);filter:url(#luminosity-noclip-2);}.cls-2{mix-blend-mode:multiply;fill:url(#linear-gradient);}.cls-3{fill:url(#linear-gradient-2);}.cls-4{mask:url(#mask-2);}.cls-5{fill:url(#linear-gradient-3);}.cls-6{fill:#870000;}.cls-7{fill:#f8f9f6;}.cls-8{filter:url(#luminosity-noclip);}</style><filter id="luminosity-noclip" x="11.55" y="-11120.1" width="102.78" height="32766" filterUnits="userSpaceOnUse" color-interpolation-filters="sRGB"><feFlood flood-color="#fff" result="bg"/><feBlend in="SourceGraphic" in2="bg"/></filter><mask id="mask" x="11.55" y="-11120.1" width="102.78" height="32766" maskUnits="userSpaceOnUse"><g class="cls-8"/></mask><linearGradient id="linear-gradient" x1="62.94" y1="136.6" x2="62.94" y2="5.77" gradientUnits="userSpaceOnUse"><stop offset="0" stop-color="#fff"/><stop offset="0.54"/><stop offset="0.58" stop-color="#080808"/><stop offset="0.64" stop-color="#1c1c1c"/><stop offset="0.71" stop-color="#3f3f3f"/><stop offset="0.79" stop-color="#6e6e6e"/><stop offset="0.89" stop-color="#ababab"/><stop offset="0.99" stop-color="#f4f4f4"/><stop offset="1" stop-color="#fff"/></linearGradient><linearGradient id="linear-gradient-2" x1="62.94" y1="153.92" x2="62.94" gradientUnits="userSpaceOnUse"><stop offset="0.07" stop-color="#e90022"/><stop offset="1" stop-color="#a7001d"/></linearGradient><filter id="luminosity-noclip-2" x="11.55" y="5.77" width="102.78" height="130.83" filterUnits="userSpaceOnUse" color-interpolation-filters="sRGB"><feFlood flood-color="#fff" result="bg"/><feBlend in="SourceGraphic" in2="bg"/></filter><mask id="mask-2" x="11.55" y="5.77" width="102.78" height="130.83" maskUnits="userSpaceOnUse"><g class="cls-1"><path class="cls-2" d="M32.12,136.6a62.67,62.67,0,0,1-11.7-.86,97.57,97.57,0,0,1-2.29-12.06C16.4,111.59,15,97.74,13.89,82.52s-1.81-30.23-2.14-44.34c-.36-15.42-.19-22.84.06-26.41A16.49,16.49,0,0,1,15.66,10,89.66,89.66,0,0,1,38,6.08c3.26-.2,6.58-.31,9.86-.31A162.2,162.2,0,0,1,65,6.69c10.65,1.14,16.48,2.89,19.48,4.15,23.61,10,32.81,26.23,29,51.23A49.72,49.72,0,0,1,96.89,92.52a38.63,38.63,0,0,1-26.77,10.2c-1.5,0-3.05-.07-4.62-.21a9.16,9.16,0,0,0-1-.05A11.53,11.53,0,0,0,53,113.1c-.58,7.37-1.27,13.63-2.06,18.61-.24,1.54-.47,2.69-.65,3.55a78,78,0,0,1-11.82,1.19C36.19,136.55,34.07,136.6,32.12,136.6ZM54.45,78.72a18.54,18.54,0,0,0,10.72,3.11h0a29,29,0,0,0,5-.47c7.9-1.24,14.3-5,18.53-11A26.49,26.49,0,0,0,93,49.57c0-.07,0-.14,0-.21-2.58-12.11-11.6-19.85-24.75-21.24-.25,0-.49,0-.73-.05-.69,0-1.33-.05-1.93-.05a27.11,27.11,0,0,0-3.9.25l-.4.06C51.6,30,41.75,37.77,43,54.34,43.86,66,47.72,74.22,54.45,78.72Z"/></g></mask><linearGradient id="linear-gradient-3" x1="62.94" y1="136.6" x2="62.94" y2="5.77" xlink:href="#linear-gradient-2"/></defs><title>P</title><g id="Layer_2" data-name="Layer 2"><g id="objects"><path class="cls-3" d="M124.88,69.61a61.31,61.31,0,0,1-20.31,37.3q-16.78,15-40.11,12.87-.91,11.56-2.16,19.5T59.53,149q-2.12,3.92-20.61,4.72t-26.14-2.51q-3.42-1.51-6.09-20.16t-4.32-42Q.72,65.79.21,44.22t.2-28.91Q1.12,8.49,12,4.86A100.61,100.61,0,0,1,37.31.33a171.23,171.23,0,0,1,29,.66Q80.84,2.55,89,6,131.92,24.07,124.88,69.61ZM81.65,57.54Q79.34,46.68,67,45.38a20.17,20.17,0,0,0-3.72.1q-9.64,1.71-8.75,13.77t6.44,15.69c1.61,1.14,4,1.4,7.34.8q7.34-1.11,11-6.28A14.92,14.92,0,0,0,81.65,57.54Z"/><g class="cls-4"><path class="cls-5" d="M32.12,136.6a62.67,62.67,0,0,1-11.7-.86,97.57,97.57,0,0,1-2.29-12.06C16.4,111.59,15,97.74,13.89,82.52s-1.81-30.23-2.14-44.34c-.36-15.42-.19-22.84.06-26.41A16.49,16.49,0,0,1,15.66,10,89.66,89.66,0,0,1,38,6.08c3.26-.2,6.58-.31,9.86-.31A162.2,162.2,0,0,1,65,6.69c10.65,1.14,16.48,2.89,19.48,4.15,23.61,10,32.81,26.23,29,51.23A49.72,49.72,0,0,1,96.89,92.52a38.63,38.63,0,0,1-26.77,10.2c-1.5,0-3.05-.07-4.62-.21a9.16,9.16,0,0,0-1-.05A11.53,11.53,0,0,0,53,113.1c-.58,7.37-1.27,13.63-2.06,18.61-.24,1.54-.47,2.69-.65,3.55a78,78,0,0,1-11.82,1.19C36.19,136.55,34.07,136.6,32.12,136.6ZM54.45,78.72a18.54,18.54,0,0,0,10.72,3.11h0a29,29,0,0,0,5-.47c7.9-1.24,14.3-5,18.53-11A26.49,26.49,0,0,0,93,49.57c0-.07,0-.14,0-.21-2.58-12.11-11.6-19.85-24.75-21.24-.25,0-.49,0-.73-.05-.69,0-1.33-.05-1.93-.05a27.11,27.11,0,0,0-3.9.25l-.4.06C51.6,30,41.75,37.77,43,54.34,43.86,66,47.72,74.22,54.45,78.72Z"/></g><path class="cls-6" d="M47.9,2.89A168.94,168.94,0,0,1,66,3.86c9.39,1,16.77,2.61,21.91,4.76C115.36,20.21,126.53,40,122,69.16a58.82,58.82,0,0,1-19.38,35.59,47.5,47.5,0,0,1-32.53,12.4c-1.76,0-3.58-.08-5.4-.25l-2.91-.26-.23,2.91c-.6,7.59-1.31,14.08-2.14,19.28-1.09,6.9-2,8.23-2.13,8.36l-.17.2-.14.25c-.18.26-2.26,2.55-18.21,3.24-2.35.1-4.6.15-6.68.15-8.26,0-14.33-.8-18-2.37-.4-.4-2.4-3.12-4.52-18-1.76-12.3-3.2-26.35-4.3-41.77S3.43,58.41,3.1,44.15s-.27-23.81.18-28.54c.34-3.31,3.59-6,9.65-8A98.21,98.21,0,0,1,37.49,3.21c3.44-.21,6.95-.32,10.41-.32M59.31,77.32a10,10,0,0,0,5.86,1.62,20.5,20.5,0,0,0,3.58-.35c5.66-.86,10-3.37,12.89-7.47A17.67,17.67,0,0,0,84.48,57v-.05c-1.8-8.44-7.74-13.44-17.2-14.43h-.18l-1.56,0a19.16,19.16,0,0,0-2.69.16h-.09c-4.57.81-12.08,4.08-11.13,16.84.68,9,3.2,14.88,7.69,17.85M47.9,0Q42.59,0,37.31.33A100.61,100.61,0,0,0,12,4.86Q1.12,8.48.41,15.31q-.7,7.35-.2,28.91T2.37,89.11q1.67,23.33,4.32,42t6.09,20.16q6.15,2.67,19.33,2.67,3.2,0,6.81-.16Q57.42,153,59.53,149q1.52-1.81,2.77-9.76t2.16-19.5c1.92.17,3.81.26,5.66.26a50.11,50.11,0,0,0,34.45-13.13,61.31,61.31,0,0,0,20.31-37.3Q131.92,24.06,89,6q-8.14-3.4-22.72-5A172.14,172.14,0,0,0,47.9,0ZM65.17,76.05a7.21,7.21,0,0,1-4.23-1.11q-5.53-3.63-6.44-15.69t8.75-13.77a16.35,16.35,0,0,1,2.28-.14c.45,0,.93,0,1.44,0q12.38,1.3,14.68,12.16a14.92,14.92,0,0,1-2.36,11.92q-3.67,5.17-11,6.28a17.29,17.29,0,0,1-3.11.31Z"/><path class="cls-7" d="M74.07,7.77c-6.2,0-6.21,9.62,0,9.62S80.27,7.77,74.07,7.77Z"/><path class="cls-7" d="M88.21,12.21c-5.93-1.81-8.47,7.47-2.56,9.28,24.32,7.43,33.73,36,19.57,56.84-3.5,5.14,4.84,10,8.3,4.86C131.28,57.09,118.13,21.36,88.21,12.21Z"/><path class="cls-7" d="M58.43,117.1c-.86-6.11-10.13-3.51-9.27,2.56a52.31,52.31,0,0,1-1,19.39c-1.44,6,7.84,8.59,9.27,2.56A64.82,64.82,0,0,0,58.43,117.1Z"/></g></g></svg>