<svg xmlns="http://www.w3.org/2000/svg" xmlns:xlink="http://www.w3.org/1999/xlink" viewBox="0 0 146.54 149.24"><defs><style>.cls-1{mask:url(#mask);filter:url(#luminosity-noclip-2);}.cls-2{mix-blend-mode:multiply;fill:url(#linear-gradient);}.cls-3{fill:url(#linear-gradient-2);}.cls-4{mask:url(#mask-2);}.cls-5{fill:url(#linear-gradient-3);}.cls-6{fill:#d78dc0;}.cls-7{fill:#f8f9f6;}.cls-8{filter:url(#luminosity-noclip);}</style><filter id="luminosity-noclip" x="11.09" y="-10703.56" width="123.68" height="32766" filterUnits="userSpaceOnUse" color-interpolation-filters="sRGB"><feFlood flood-color="#fff" result="bg"/><feBlend in="SourceGraphic" in2="bg"/></filter><mask id="mask" x="11.09" y="-10703.56" width="123.68" height="32766" maskUnits="userSpaceOnUse"><g class="cls-8"/></mask><linearGradient id="linear-gradient" x1="72.93" y1="132.59" x2="72.93" y2="5.55" gradientUnits="userSpaceOnUse"><stop offset="0" stop-color="#fff"/><stop offset="0.54"/><stop offset="0.58" stop-color="#080808"/><stop offset="0.64" stop-color="#1c1c1c"/><stop offset="0.71" stop-color="#3f3f3f"/><stop offset="0.79" stop-color="#6e6e6e"/><stop offset="0.89" stop-color="#ababab"/><stop offset="0.99" stop-color="#f4f4f4"/><stop offset="1" stop-color="#fff"/></linearGradient><linearGradient id="linear-gradient-2" x1="73.27" y1="149.24" x2="73.27" gradientUnits="userSpaceOnUse"><stop offset="0" stop-color="#ca68ad"/><stop offset="1" stop-color="#e52eac"/></linearGradient><filter id="luminosity-noclip-2" x="11.09" y="5.55" width="123.68" height="127.04" filterUnits="userSpaceOnUse" color-interpolation-filters="sRGB"><feFlood flood-color="#fff" result="bg"/><feBlend in="SourceGraphic" in2="bg"/></filter><mask id="mask-2" x="11.09" y="5.55" width="123.68" height="127.04" maskUnits="userSpaceOnUse"><g class="cls-1"><path class="cls-2" d="M72.15,132.59c-14.16,0-26.55-4.6-37.88-14.06-13.43-11.2-20.88-25-22.76-42.17-1.83-16.7,2.35-31.8,12.78-46.14,10.23-14.07,23.32-21.95,40-24.08a71.81,71.81,0,0,1,9-.59A57.1,57.1,0,0,1,93.84,9.22a60.46,60.46,0,0,1,23,15.3,62.92,62.92,0,0,1,13.83,24.24,65.32,65.32,0,0,1,2,29.62,82.11,82.11,0,0,1-3.89,14.43,11.11,11.11,0,0,0,1.82,11,47,47,0,0,1,4.18,5.74,93.29,93.29,0,0,1-6.81,8.87c-5.85,7-9.62,10.56-11.85,12.38a48.08,48.08,0,0,1-7-3.55,11.12,11.12,0,0,0-10.68-.41,56.34,56.34,0,0,1-18.75,5.38A68.59,68.59,0,0,1,72.15,132.59ZM43.09,72.51a29.46,29.46,0,0,0,10.62,19.9,28.64,28.64,0,0,0,18.61,6.83h0a32.19,32.19,0,0,0,3.51-.2h.1c14-1.69,23.27-11,25.5-25.48,2.78-18.06-6.36-30.8-24.47-34.06l-.11,0A31.21,31.21,0,0,0,71.71,39a27.46,27.46,0,0,0-20.27,9A29.64,29.64,0,0,0,43.09,72.51Z"/></g></mask><linearGradient id="linear-gradient-3" x1="72.93" y1="132.59" x2="72.93" y2="5.55" gradientUnits="userSpaceOnUse"><stop offset="0" stop-color="#c549a1"/><stop offset="0.54" stop-color="#e5449e"/><stop offset="0.61" stop-color="#e74ca3"/><stop offset="0.71" stop-color="#eb60af"/><stop offset="0.84" stop-color="#f382c4"/><stop offset="0.99" stop-color="#feb1e1"/><stop offset="1" stop-color="#ffb6e4"/></linearGradient></defs><title>Q</title><g id="Layer_2" data-name="Layer 2"><g id="objects"><path class="cls-3" d="M143.61,85.73a93.09,93.09,0,0,1-4.44,16.53q7.14,8.68,7.34,12.95.59,3.18-10,15.85t-16.82,16.33c-1.35.84-3.51.72-6.47-.34a56,56,0,0,1-9.76-4.78A67.18,67.18,0,0,1,81,148.74q-30.45,3.39-53.84-16.14T.48,83.12Q-2.71,54,15.31,29.24T62.91.68Q81.77-1.73,97.8,4.4A71.14,71.14,0,0,1,125,22.52,73.55,73.55,0,0,1,141.24,51,76,76,0,0,1,143.61,85.73ZM90.46,77.42Q93.25,59.26,75,56a16.45,16.45,0,0,0-15.51,5.22,18.6,18.6,0,0,0-5.36,15.66,18.27,18.27,0,0,0,6.71,12.61,17.6,17.6,0,0,0,13.78,4.11Q88.23,91.91,90.46,77.42Z"/><g class="cls-4"><path class="cls-5" d="M72.15,132.59c-14.16,0-26.55-4.6-37.88-14.06-13.43-11.2-20.88-25-22.76-42.17-1.83-16.7,2.35-31.8,12.78-46.14,10.23-14.07,23.32-21.95,40-24.08a71.81,71.81,0,0,1,9-.59A57.1,57.1,0,0,1,93.84,9.22a60.46,60.46,0,0,1,23,15.3,62.92,62.92,0,0,1,13.83,24.24,65.32,65.32,0,0,1,2,29.62,82.11,82.11,0,0,1-3.89,14.43,11.11,11.11,0,0,0,1.82,11,47,47,0,0,1,4.18,5.74,93.29,93.29,0,0,1-6.81,8.87c-5.85,7-9.62,10.56-11.85,12.38a48.08,48.08,0,0,1-7-3.55,11.12,11.12,0,0,0-10.68-.41,56.34,56.34,0,0,1-18.75,5.38A68.59,68.59,0,0,1,72.15,132.59ZM43.09,72.51a29.46,29.46,0,0,0,10.62,19.9,28.64,28.64,0,0,0,18.61,6.83h0a32.19,32.19,0,0,0,3.51-.2h.1c14-1.69,23.27-11,25.5-25.48,2.78-18.06-6.36-30.8-24.47-34.06l-.11,0A31.21,31.21,0,0,0,71.71,39a27.46,27.46,0,0,0-20.27,9A29.64,29.64,0,0,0,43.09,72.51Z"/></g><path class="cls-6" d="M73.34,0V2.77h0A65.44,65.44,0,0,1,96.81,7a68.63,68.63,0,0,1,26.11,17.42A71.22,71.22,0,0,1,138.6,51.82a73.62,73.62,0,0,1,2.27,33.46,89.69,89.69,0,0,1-4.3,16l-.56,1.5,1,1.24c5.71,7,6.66,10.07,6.72,11.31v.27c-.06.57-.86,3.47-9.43,13.67-6.85,8.16-12.27,13.46-16.1,15.73l0,0h0a1.56,1.56,0,0,1-.79.14,10.24,10.24,0,0,1-3.29-.73,54.78,54.78,0,0,1-9.27-4.55l-1.3-.79-1.36.69A64.72,64.72,0,0,1,80.68,146a77.61,77.61,0,0,1-8.53.49c-16,0-30.5-5.38-43.22-16C14,118,5.34,102,3.24,82.82,1.2,64.22,6,46.74,17.56,30.87s26.87-25,45.71-27.44a80.91,80.91,0,0,1,10.07-.66V0m-22,77.14a21.06,21.06,0,0,0,7.69,14.44,20.2,20.2,0,0,0,13.27,4.88,23.68,23.68,0,0,0,2.62-.15c10.28-1.24,16.59-7.62,18.26-18.47,2.1-13.63-4-22.14-17.74-24.61a22.21,22.21,0,0,0-3.75-.33,19.11,19.11,0,0,0-14.24,6.37,21.3,21.3,0,0,0-6.11,17.87M73.34,0A83,83,0,0,0,62.91.68Q33.35,4.44,15.31,29.24T.48,83.12q3.29,30,26.67,49.48,19.93,16.65,45,16.64a78.47,78.47,0,0,0,8.84-.5,67.18,67.18,0,0,0,22.42-6.47,56,56,0,0,0,9.76,4.78,12.76,12.76,0,0,0,4.22.89,4.19,4.19,0,0,0,2.25-.55q6.19-3.67,16.82-16.33t10-15.85q-.19-4.26-7.34-12.95a93.09,93.09,0,0,0,4.44-16.53A76,76,0,0,0,141.24,51,73.55,73.55,0,0,0,125,22.52,71.14,71.14,0,0,0,97.8,4.4,68,68,0,0,0,73.34,0Zm-1,93.69a17.41,17.41,0,0,1-11.49-4.24,18.27,18.27,0,0,1-6.71-12.61,18.6,18.6,0,0,1,5.36-15.66,16.36,16.36,0,0,1,12.23-5.5A19.64,19.64,0,0,1,75,56q18.27,3.28,15.47,21.46Q88.23,91.91,74.61,93.56a22.45,22.45,0,0,1-2.29.13Z"/><path class="cls-7" d="M83.25,5.87c-6,0-6,9.25,0,9.25S89.21,5.87,83.25,5.87Z"/><path class="cls-7" d="M100.36,9.89c-5.4-2.34-10.12,5.63-4.66,8,23.72,10.26,36.16,35.86,28.92,60.84-1.66,5.73,7.26,8.17,8.92,2.46C141.83,52.59,127.79,21.75,100.36,9.89Z"/><path class="cls-7" d="M92.7,94.35c-6,0-6,9.24,0,9.24S98.66,94.35,92.7,94.35Z"/><path class="cls-7" d="M75.39,98.2c-14.7.79-26-10.7-25-25.37.39-5.94-8.87-5.92-9.25,0a32.58,32.58,0,0,0,34.28,34.62C81.31,107.13,81.34,97.87,75.39,98.2Z"/></g></g></svg>