<svg xmlns="http://www.w3.org/2000/svg" xmlns:xlink="http://www.w3.org/1999/xlink" viewBox="0 0 132.24 155.47"><defs><style>.cls-1{mask:url(#mask);filter:url(#luminosity-noclip-2);}.cls-2{mix-blend-mode:multiply;fill:url(#linear-gradient);}.cls-3{fill:url(#Gradient_59);}.cls-4{mask:url(#mask-2);}.cls-5{fill:url(#Gradient_59-2);}.cls-6{fill:#d78dc0;}.cls-7{fill:#f8f9f6;}.cls-8{filter:url(#luminosity-noclip);}</style><filter id="luminosity-noclip" x="11.4" y="-11131.33" width="108.87" height="32766" filterUnits="userSpaceOnUse" color-interpolation-filters="sRGB"><feFlood flood-color="#fff" result="bg"/><feBlend in="SourceGraphic" in2="bg"/></filter><mask id="mask" x="11.4" y="-11131.33" width="108.87" height="32766" maskUnits="userSpaceOnUse"><g class="cls-8"/></mask><linearGradient id="linear-gradient" x1="65.84" y1="138.37" x2="65.84" y2="5.7" gradientUnits="userSpaceOnUse"><stop offset="0" stop-color="#fff"/><stop offset="0.54"/><stop offset="0.58" stop-color="#080808"/><stop offset="0.64" stop-color="#1c1c1c"/><stop offset="0.71" stop-color="#3f3f3f"/><stop offset="0.79" stop-color="#6e6e6e"/><stop offset="0.89" stop-color="#ababab"/><stop offset="0.99" stop-color="#f4f4f4"/><stop offset="1" stop-color="#fff"/></linearGradient><linearGradient id="Gradient_59" y1="77.74" x2="132.24" y2="77.74" gradientUnits="userSpaceOnUse"><stop offset="0" stop-color="#ffbba4"/><stop offset="1" stop-color="#ffd1c9"/></linearGradient><filter id="luminosity-noclip-2" x="11.4" y="5.7" width="108.87" height="132.67" filterUnits="userSpaceOnUse" color-interpolation-filters="sRGB"><feFlood flood-color="#fff" result="bg"/><feBlend in="SourceGraphic" in2="bg"/></filter><mask id="mask-2" x="11.4" y="5.7" width="108.87" height="132.67" maskUnits="userSpaceOnUse"><g class="cls-1"><path class="cls-2" d="M25.29,138.37c-3.13,0-5.36-.05-6.92-.12-.53-2.85-1.32-8.08-2.29-17.48-1.5-14.36-2.69-30.16-3.53-47s-1.23-32.39-1.13-46.42a127.71,127.71,0,0,1,.74-15C17.75,9.93,25,8,33.81,6.72a93.21,93.21,0,0,1,32.28.84A63.48,63.48,0,0,1,93.54,20.22c7.19,5.69,11.52,14.11,13.22,25.73,3.17,22.64-4.74,29.23-7.34,31.39a11.42,11.42,0,0,0,0,17.53,211.6,211.6,0,0,1,16.86,15.53,42.75,42.75,0,0,1,4,4.64c-.27.56-.65,1.28-1.18,2.19a100.91,100.91,0,0,1-6.78,10.17,113.33,113.33,0,0,1-7.49,9l-.47.51a39,39,0,0,1-9.26-4.75C86,126.3,78.65,122.44,72.68,120.4l-.31-.1A26.11,26.11,0,0,0,64.63,119c-7.83,0-13.81,5-14.88,12.48a11.69,11.69,0,0,0-.11,1.77c0,1.69,0,3-.12,4l-.72.09c-5.94.62-12.91,1-20.67,1ZM57.39,28.48a49.49,49.49,0,0,0-5.44.31,17.89,17.89,0,0,0-12.43,6.73c-3.86,4.9-5.18,11.61-4,20.51C38.1,76.49,50.54,78.7,55.77,78.7h0A18.77,18.77,0,0,0,58,78.57c7.81-.82,14.41-4.06,19.07-9.38,5.81-6.65,7-13.21,6.94-17.55C84,46.81,82.36,39.82,75,33.9,70.46,30.3,64.55,28.48,57.39,28.48Z"/></g></mask><linearGradient id="Gradient_59-2" x1="11.4" y1="72.03" x2="120.27" y2="72.03" xlink:href="#Gradient_59"/></defs><title>R</title><g id="Layer_2" data-name="Layer 2"><g id="objects"><path class="cls-3" d="M106.72,91.81a222.3,222.3,0,0,1,17.78,16.38q7.63,7.95,7.74,11.92,0,2.88-3.28,8.54A112.32,112.32,0,0,1,121.42,140a125.91,125.91,0,0,1-8.25,9.93q-4,4.28-5.46,4.27-6.45,1.29-18.82-6.7T69,136.89q-7.35-2.28-7.94,1.89.09,7.16-1.29,10.92T50,154.37q-9.54,1-21.8,1.09t-15.54-.59A5.36,5.36,0,0,1,9,152.28q-2-2.67-4.27-24.62T1.16,80.09Q-.13,54.47,0,33T3.14,9.88Q14,3.82,32.14,1.14a104.83,104.83,0,0,1,36.2.94A75.29,75.29,0,0,1,100.61,17Q114.86,28.24,118,50,122.1,79,106.72,91.81ZM56.77,72.94q7.54-.8,11.72-5.56t4.12-9.93C72.57,54,71,51,67.84,48.51s-8-3.41-14.65-2.68q-8.14.89-6.4,14.45T56.77,72.94Z"/><g class="cls-4"><path class="cls-5" d="M25.29,138.37c-3.13,0-5.36-.05-6.92-.12-.53-2.85-1.32-8.08-2.29-17.48-1.5-14.36-2.69-30.16-3.53-47s-1.23-32.39-1.13-46.42a127.71,127.71,0,0,1,.74-15C17.75,9.93,25,8,33.81,6.72a93.21,93.21,0,0,1,32.28.84A63.48,63.48,0,0,1,93.54,20.22c7.19,5.69,11.52,14.11,13.22,25.73,3.17,22.64-4.74,29.23-7.34,31.39a11.42,11.42,0,0,0,0,17.53,211.6,211.6,0,0,1,16.86,15.53,42.75,42.75,0,0,1,4,4.64c-.27.56-.65,1.28-1.18,2.19a100.91,100.91,0,0,1-6.78,10.17,113.33,113.33,0,0,1-7.49,9l-.47.51a39,39,0,0,1-9.26-4.75C86,126.3,78.65,122.44,72.68,120.4l-.31-.1A26.11,26.11,0,0,0,64.63,119c-7.83,0-13.81,5-14.88,12.48a11.69,11.69,0,0,0-.11,1.77c0,1.69,0,3-.12,4l-.72.09c-5.94.62-12.91,1-20.67,1ZM57.39,28.48a49.49,49.49,0,0,0-5.44.31,17.89,17.89,0,0,0-12.43,6.73c-3.86,4.9-5.18,11.61-4,20.51C38.1,76.49,50.54,78.7,55.77,78.7h0A18.77,18.77,0,0,0,58,78.57c7.81-.82,14.41-4.06,19.07-9.38,5.81-6.65,7-13.21,6.94-17.55C84,46.81,82.36,39.82,75,33.9,70.46,30.3,64.55,28.48,57.39,28.48Z"/></g><path class="cls-6" d="M47.57,0V2.85h0a102.4,102.4,0,0,1,20.21,2A72.6,72.6,0,0,1,98.84,19.22c8.87,7,14.38,17.5,16.38,31.18,2.55,18.19-.92,31.39-10.32,39.22l-2.64,2.19L104.89,94a220,220,0,0,1,17.55,16.17c6.28,6.53,6.92,9.25,6.95,10s-.42,2.79-2.89,7.07a110.72,110.72,0,0,1-7.36,11c-2.78,3.68-5.49,6.95-8,9.71a18.13,18.13,0,0,1-3.7,3.37l-.24,0a7.06,7.06,0,0,1-1.35.12c-2.47,0-7.14-1.12-15.36-6.43-8.51-5.5-15.23-9.06-20.53-10.88h-.08a17.83,17.83,0,0,0-5.2-.94c-3.56,0-5.95,1.92-6.41,5.15l0,.22v.22c.06,4.39-.32,7.72-1.12,9.9-.18.49-1.25,2.16-7.35,2.81s-13.48,1-21.52,1.08H25.27c-7.79,0-10.83-.29-12-.54h-.11a2.5,2.5,0,0,1-1.75-1.31l0-.05-.07-.08c-.37-.6-1.74-4.05-3.74-23.26C6.06,112.85,4.86,96.9,4,79.94S2.77,47.23,2.87,33C3,16.65,4.36,13,4.79,12.22,11.65,8.45,21,5.67,32.56,4a102.66,102.66,0,0,1,15-1.11V0m8.2,75.84a11.33,11.33,0,0,0,1.3-.07c5.74-.6,10.31-2.79,13.56-6.52s4.87-7.68,4.83-11.83c0-4.32-2-8.07-5.84-11.14-2.94-2.35-7.06-3.55-12.23-3.55a42.53,42.53,0,0,0-4.51.26,9.43,9.43,0,0,0-6.64,3.52c-2.37,3-3.11,7.63-2.28,14.13,1.61,12.57,7.31,15.2,11.81,15.2M47.57,0A105.52,105.52,0,0,0,32.14,1.14Q14,3.83,3.14,9.88.17,11.58,0,33T1.16,80.09q1.29,25.62,3.57,47.57T9,152.28a5.36,5.36,0,0,0,3.68,2.59q2.87.6,12.59.6h2.95q12.26-.09,21.8-1.09,8.34-.9,9.73-4.67T61,138.78c.26-1.8,1.45-2.7,3.59-2.7a15.13,15.13,0,0,1,4.35.81q7.55,2.58,19.91,10.58,10.65,6.89,16.91,6.88a9.68,9.68,0,0,0,1.91-.18q1.5,0,5.46-4.27a125.91,125.91,0,0,0,8.25-9.93A112.32,112.32,0,0,0,129,128.65q3.28-5.66,3.28-8.54-.11-4-7.74-11.92a222.3,222.3,0,0,0-17.78-16.38Q122.11,79,118,50q-3.18-21.75-17.43-33A75.29,75.29,0,0,0,68.34,2.08,105,105,0,0,0,47.57,0Zm8.2,73q-7.35,0-9-12.71-1.74-13.56,6.4-14.45a37.1,37.1,0,0,1,4.2-.25q6.8,0,10.45,2.93C71,51,72.57,54,72.61,57.45s-1.34,6.75-4.12,9.93-6.69,5-11.72,5.56a8.48,8.48,0,0,1-1,0Z"/><path class="cls-7" d="M67.14,6C61,6,61,15.5,67.14,15.5S73.26,6,67.14,6Z"/><path class="cls-7" d="M112,40.57c-3.53-13.93-14.87-24.91-28.56-28.79-5.89-1.68-8.41,7.49-2.53,9.16A31.4,31.4,0,0,1,102.82,43.1c2.85,11.24-1.48,23.06-10,30.68-4.55,4.1,2.19,10.8,6.73,6.72A40.94,40.94,0,0,0,112,40.57Z"/><path class="cls-7" d="M110.26,130.94c-2.84,3.22-6,7.31-10.51,4.65-3.54-2.08-6.75-5-10-7.5-4.87-3.69-9.61,4.56-4.79,8.21s10.24,9.43,16.59,9.83c6.56.41,11.39-3.86,15.45-8.47S114.31,126.34,110.26,130.94Z"/></g></g></svg>