<svg xmlns="http://www.w3.org/2000/svg" xmlns:xlink="http://www.w3.org/1999/xlink" viewBox="0 0 116.56 151.49"><defs><style>.cls-1{mask:url(#mask);filter:url(#luminosity-noclip-2);}.cls-2{mix-blend-mode:multiply;fill:url(#linear-gradient);}.cls-3{isolation:isolate;}.cls-4{fill:url(#Gradient_23);}.cls-5{mask:url(#mask-2);}.cls-6{fill:#fff;opacity:0.3;mix-blend-mode:soft-light;}.cls-7{fill:#9362f4;}.cls-8{fill:#f8f9f6;}.cls-9{filter:url(#luminosity-noclip);}</style><filter id="luminosity-noclip" x="11.31" y="-10705.85" width="94.15" height="32766" filterUnits="userSpaceOnUse" color-interpolation-filters="sRGB"><feFlood flood-color="#fff" result="bg"/><feBlend in="SourceGraphic" in2="bg"/></filter><mask id="mask" x="11.31" y="-10705.85" width="94.15" height="32766" maskUnits="userSpaceOnUse"><g class="cls-9"/></mask><linearGradient id="linear-gradient" x1="58.38" y1="134.84" x2="58.38" y2="5.55" gradientUnits="userSpaceOnUse"><stop offset="0" stop-color="#fff"/><stop offset="0.54"/><stop offset="0.58" stop-color="#080808"/><stop offset="0.64" stop-color="#1c1c1c"/><stop offset="0.71" stop-color="#3f3f3f"/><stop offset="0.79" stop-color="#6e6e6e"/><stop offset="0.89" stop-color="#ababab"/><stop offset="0.99" stop-color="#f4f4f4"/><stop offset="1" stop-color="#fff"/></linearGradient><linearGradient id="Gradient_23" y1="75.75" x2="116.56" y2="75.75" gradientUnits="userSpaceOnUse"><stop offset="0" stop-color="#6b45c5"/><stop offset="1" stop-color="#7763ff"/></linearGradient><filter id="luminosity-noclip-2" x="11.31" y="5.55" width="94.15" height="129.29" filterUnits="userSpaceOnUse" color-interpolation-filters="sRGB"><feFlood flood-color="#fff" result="bg"/><feBlend in="SourceGraphic" in2="bg"/></filter><mask id="mask-2" x="11.31" y="5.55" width="94.15" height="129.29" maskUnits="userSpaceOnUse"><g class="cls-1"><path class="cls-2" d="M56.85,134.84c-11.52,0-21.32-3-30-9.13-8.27-5.8-13.36-12.67-15.58-21a12.14,12.14,0,0,1,1.63-.87l.13-.06a25.88,25.88,0,0,1,6.73-2,60.92,60.92,0,0,1,8.41-.82,39.53,39.53,0,0,1,11,1.43l.53.17c.13.3.27.6.43.89a17.7,17.7,0,0,0,9.9,8.91,19.74,19.74,0,0,0,7.42,1.41,25,25,0,0,0,9.08-1.83,15.87,15.87,0,0,0,9.32-8.74,15.6,15.6,0,0,0-.49-12.55l-.21-.44C72,83.68,64.89,81.65,62.56,81A183.8,183.8,0,0,0,38.64,75.7a36.07,36.07,0,0,1-16.31-7.08l-.12-.09a23.72,23.72,0,0,1-7.73-9.86c-1.9-4.21-2.53-10.6-1.81-18.5,1-10.24,5.89-18.55,15-25.35a45.47,45.47,0,0,1,18.87-8.2A57.1,57.1,0,0,1,57.38,5.55a50.66,50.66,0,0,1,10.31,1,42.25,42.25,0,0,1,17.73,8.15,27.57,27.57,0,0,1,9.14,12.7,27.27,27.27,0,0,1-5.75,2.86,64.1,64.1,0,0,1-10.94,3c-1.88.33-3.39.56-4.57.73a17.12,17.12,0,0,0-4.15-4.75L69,29.16a18.38,18.38,0,0,0-11.4-3.94c-4.56,0-9.27,1.65-14,4.91-8.09,5.57-7.71,12.36-7.18,15,2,9.74,13.2,12.05,17.43,12.92l3.3.65c1.25.24,2.55.47,3.88.68,13,2.27,23.23,6.06,30.36,11.26,8,5.89,12.56,13.33,13.75,22.72s-1.37,17.42-7.79,24.85c-8.2,9.51-19.16,14.83-33.52,16.26C61.48,134.72,59.12,134.84,56.85,134.84Z"/></g></mask></defs><title>S</title><g class="cls-3"><g id="Layer_2" data-name="Layer 2"><g id="objects"><path class="cls-4" d="M69.94,51a5,5,0,0,1-3.67-1.06,4.18,4.18,0,0,1-2.08-3.19,4.44,4.44,0,0,0-2-3.28q-4.83-3.78-12.27,1.35t6.18,7.92l3.19.63c1.16.23,2.35.44,3.58.63Q85.12,57.87,98,67.24q15.86,11.6,18.22,30.3T105.8,131Q90.73,148.52,65,151.08T20.46,140.3Q4.32,129,.26,111.79q-1.74-8.12,8.12-12.56A36.87,36.87,0,0,1,18,96.33a71.41,71.41,0,0,1,10.09-1A50.29,50.29,0,0,1,42.4,97.25q6.38,1.88,7.25,5.36a3.71,3.71,0,0,0,.48,1.36,6.83,6.83,0,0,0,4.06,3.57c2.38,1,5.17.82,8.36-.43s4.11-3.4,2.75-6.43q-1.06-2.13-5.8-3.48a173.53,173.53,0,0,0-22.51-5,47.24,47.24,0,0,1-21.27-9.13A34.92,34.92,0,0,1,4.37,68.79Q.26,59.7,1.61,44.72,3.55,24.53,21,11.48A56.75,56.75,0,0,1,44.43,1.28a64.05,64.05,0,0,1,25.51,0A53.68,53.68,0,0,1,92.22,11.52,39.19,39.19,0,0,1,105.89,32q1.45,4.92-2.75,8.45a35.12,35.12,0,0,1-10.49,5.85A75.57,75.57,0,0,1,79.8,49.75,74.62,74.62,0,0,1,69.94,51Z"/><g class="cls-5"><path class="cls-6" d="M56.85,134.84c-11.52,0-21.32-3-30-9.13-8.27-5.8-13.36-12.67-15.58-21a12.14,12.14,0,0,1,1.63-.87l.13-.06a25.88,25.88,0,0,1,6.73-2,60.92,60.92,0,0,1,8.41-.82,39.53,39.53,0,0,1,11,1.43l.53.17c.13.3.27.6.43.89a17.7,17.7,0,0,0,9.9,8.91,19.74,19.74,0,0,0,7.42,1.41,25,25,0,0,0,9.08-1.83,15.87,15.87,0,0,0,9.32-8.74,15.6,15.6,0,0,0-.49-12.55l-.21-.44C72,83.68,64.89,81.65,62.56,81A183.8,183.8,0,0,0,38.64,75.7a36.07,36.07,0,0,1-16.31-7.08l-.12-.09a23.72,23.72,0,0,1-7.73-9.86c-1.9-4.21-2.53-10.6-1.81-18.5,1-10.24,5.89-18.55,15-25.35a45.47,45.47,0,0,1,18.87-8.2A57.1,57.1,0,0,1,57.38,5.55a50.66,50.66,0,0,1,10.31,1,42.25,42.25,0,0,1,17.73,8.15,27.57,27.57,0,0,1,9.14,12.7,27.27,27.27,0,0,1-5.75,2.86,64.1,64.1,0,0,1-10.94,3c-1.88.33-3.39.56-4.57.73a17.12,17.12,0,0,0-4.15-4.75L69,29.16a18.38,18.38,0,0,0-11.4-3.94c-4.56,0-9.27,1.65-14,4.91-8.09,5.57-7.71,12.36-7.18,15,2,9.74,13.2,12.05,17.43,12.92l3.3.65c1.25.24,2.55.47,3.88.68,13,2.27,23.23,6.06,30.36,11.26,8,5.89,12.56,13.33,13.75,22.72s-1.37,17.42-7.79,24.85c-8.2,9.51-19.16,14.83-33.52,16.26C61.48,134.72,59.12,134.84,56.85,134.84Z"/></g><path class="cls-7" d="M57.38,2.77A59.45,59.45,0,0,1,69.38,4a51,51,0,0,1,21.14,9.72,36.6,36.6,0,0,1,12.71,19c.66,2.23.1,3.89-1.87,5.55a32.69,32.69,0,0,1-9.67,5.37A73,73,0,0,1,79.32,47a74.32,74.32,0,0,1-9.46,1.21h-.18l-.28,0A2.3,2.3,0,0,1,68,47.74l0,0,0,0c-.72-.51-.91-.88-.91-1a7.16,7.16,0,0,0-3-5.39,10,10,0,0,0-6.28-2.19c-2.88,0-5.91,1.13-9.28,3.44-2.94,2-4.2,4.22-3.74,6.51.62,3.05,3.89,5,11,6.42l3.2.64c1.17.22,2.41.44,3.63.63,14.33,2.5,25.74,6.79,33.92,12.75,10,7.33,15.61,16.62,17.1,28.41s-1.69,22-9.73,31.33c-9.53,11.05-22.65,17.47-39,19.1-2.66.26-5.3.4-7.84.4-13.12,0-24.82-3.59-34.8-10.69S5.51,121.91,3,111.19c-.54-2.55-.43-6.28,6.58-9.45a34,34,0,0,1,8.9-2.67,68.29,68.29,0,0,1,9.67-.93,47.87,47.87,0,0,1,13.49,1.77c3,.89,5,2.08,5.32,3.29a6.39,6.39,0,0,0,.72,2,9.51,9.51,0,0,0,5.5,4.9,11.43,11.43,0,0,0,4.38.84,16.72,16.72,0,0,0,6-1.26,7.76,7.76,0,0,0,4.65-4.14,7.46,7.46,0,0,0-.38-6l0-.06,0,0c-1.08-2.17-3.54-3.77-7.5-4.9A176.64,176.64,0,0,0,37.4,89.48a44.73,44.73,0,0,1-20-8.64A32.24,32.24,0,0,1,6.9,67.64C4.37,62.06,3.52,54.43,4.38,45,5.6,32.22,11.59,22,22.7,13.7A54.32,54.32,0,0,1,45,4,65.51,65.51,0,0,1,57.38,2.77m0-2.77a67.82,67.82,0,0,0-13,1.28A56.75,56.75,0,0,0,21,11.48Q3.55,24.52,1.61,44.72q-1.35,15,2.76,24.07a34.92,34.92,0,0,0,11.35,14.3A47.24,47.24,0,0,0,37,92.22a173.53,173.53,0,0,1,22.51,5q4.74,1.35,5.8,3.48,2,4.54-2.75,6.43a13.76,13.76,0,0,1-5,1.06,8.82,8.82,0,0,1-3.34-.63A6.83,6.83,0,0,1,50.13,104a3.71,3.71,0,0,1-.48-1.36q-.87-3.48-7.25-5.36a50.29,50.29,0,0,0-14.31-1.89,71.41,71.41,0,0,0-10.09,1,36.87,36.87,0,0,0-9.62,2.9q-9.85,4.44-8.12,12.56Q4.32,129,20.46,140.3q15.74,11.19,36.39,11.19,4,0,8.12-.41Q90.71,148.51,105.8,131q12.75-14.79,10.39-33.49T98,67.24Q85.12,57.87,62.89,54c-1.23-.19-2.42-.4-3.58-.63l-3.19-.63Q42.5,50,49.94,44.82q4.28-3,7.7-3a7.23,7.23,0,0,1,4.57,1.6,4.44,4.44,0,0,1,2,3.28,4.18,4.18,0,0,0,2.08,3.19A5,5,0,0,0,69.4,51a4.89,4.89,0,0,0,.54,0,74.62,74.62,0,0,0,9.86-1.25,75.57,75.57,0,0,0,12.85-3.48,35.12,35.12,0,0,0,10.49-5.85q4.2-3.53,2.75-8.45A39.19,39.19,0,0,0,92.22,11.52,53.68,53.68,0,0,0,69.94,1.28,62,62,0,0,0,57.38,0Z"/><path class="cls-8" d="M58.69,4.38c-5.95,0-6,9.25,0,9.25S64.65,4.38,58.69,4.38Z"/><path class="cls-8" d="M100.32,33.67A44.35,44.35,0,0,0,70.9,6.9c-5.74-1.61-8.19,7.31-2.45,8.92a34.62,34.62,0,0,1,23,20.31C93.58,41.59,102.52,39.21,100.32,33.67Z"/><path class="cls-8" d="M91.8,68.57c-4.92-3.36-9.56,4.65-4.66,8,19.81,13.52,18.37,43-2.1,55.08-5.12,3-.47,11,4.67,8a42.68,42.68,0,0,0,21.05-34.27C111.54,90.66,103.78,76.75,91.8,68.57Z"/><path class="cls-8" d="M77,133.47c-6,0-6,9.25,0,9.25S82.92,133.47,77,133.47Z"/><path class="cls-8" d="M20,107a4.69,4.69,0,0,0-5.69-3.23,9.06,9.06,0,0,0-6.67,6.81c-.72,3.88.91,7.14,4,9.45,2,1.5,5.17.32,6.32-1.66a4.54,4.54,0,0,0-1-5.75A4.7,4.7,0,0,0,20,107Z"/></g></g></g></svg>