<svg xmlns="http://www.w3.org/2000/svg" xmlns:xlink="http://www.w3.org/1999/xlink" viewBox="0 0 150.15 152.07"><defs><style>.cls-1{mask:url(#mask);filter:url(#luminosity-noclip-2);}.cls-2{mix-blend-mode:multiply;fill:url(#linear-gradient);}.cls-3{isolation:isolate;}.cls-4{fill:url(#Gradient_23);}.cls-5{mask:url(#mask-2);}.cls-6{fill:#fff;opacity:0.3;mix-blend-mode:soft-light;}.cls-7{fill:#9362f4;}.cls-8{fill:#f8f9f6;}.cls-9{filter:url(#luminosity-noclip);}</style><filter id="luminosity-noclip" x="11.41" y="-11125.6" width="127.34" height="32766" filterUnits="userSpaceOnUse" color-interpolation-filters="sRGB"><feFlood flood-color="#fff" result="bg"/><feBlend in="SourceGraphic" in2="bg"/></filter><mask id="mask" x="11.41" y="-11125.6" width="127.34" height="32766" maskUnits="userSpaceOnUse"><g class="cls-9"/></mask><linearGradient id="linear-gradient" x1="75.08" y1="134.96" x2="75.08" y2="5.7" gradientUnits="userSpaceOnUse"><stop offset="0" stop-color="#fff"/><stop offset="0.54"/><stop offset="0.58" stop-color="#080808"/><stop offset="0.64" stop-color="#1c1c1c"/><stop offset="0.71" stop-color="#3f3f3f"/><stop offset="0.79" stop-color="#6e6e6e"/><stop offset="0.89" stop-color="#ababab"/><stop offset="0.99" stop-color="#f4f4f4"/><stop offset="1" stop-color="#fff"/></linearGradient><linearGradient id="Gradient_23" x1="75.08" y1="152.07" x2="75.08" gradientUnits="userSpaceOnUse"><stop offset="0" stop-color="#6b45c5"/><stop offset="1" stop-color="#7763ff"/></linearGradient><filter id="luminosity-noclip-2" x="11.41" y="5.7" width="127.34" height="129.26" filterUnits="userSpaceOnUse" color-interpolation-filters="sRGB"><feFlood flood-color="#fff" result="bg"/><feBlend in="SourceGraphic" in2="bg"/></filter><mask id="mask-2" x="11.41" y="5.7" width="127.34" height="129.26" maskUnits="userSpaceOnUse"><g class="cls-1"><path class="cls-2" d="M75.84,135c-3.09,0-6.19-.12-9.23-.36-2.06-.17-3.61-.38-4.78-.59-.8-2.86-2.1-8.87-3.51-20.91-2.12-18-3.76-36.48-4.86-54.91A11.41,11.41,0,0,0,42.3,47.47c-9.38-.19-17.54-.68-24.23-1.46-1.64-.19-2.9-.39-3.86-.56-.33-1.34-.7-3.16-1.08-5.64a147.45,147.45,0,0,1-1.57-16,120.55,120.55,0,0,1,.13-14.5C13.89,9,17.5,8.46,23.27,8,34,7.07,46.65,6.43,60.73,6.07c9.75-.24,19.74-.37,29.69-.37,4.52,0,9.13,0,13.69.08,13.09.14,24.18.46,33,1,.08.29.16.62.25,1a64.11,64.11,0,0,1,1.23,17.36,75.55,75.55,0,0,1-2.95,17.75c-.26.85-.49,1.52-.7,2-1.83.19-4.44.42-8.15.66-5.49.36-11.7.67-18.45.92a11.43,11.43,0,0,0-11,11.28c-.19,18.37-.88,36.3-2.06,53.31-.9,13.12-1.85,19.48-2.47,22.46l-.23.05a82,82,0,0,1-12.13,1.29C79,134.93,77.38,135,75.84,135Z"/></g></mask></defs><title>T</title><g class="cls-3"><g id="Layer_2" data-name="Layer 2"><g id="objects"><path class="cls-4" d="M102.05,147.3c-.72,1.32-3.14,2.38-7.24,3.18A93,93,0,0,1,81,152a131,131,0,0,1-15.24-.3q-7.54-.6-11.42-2.29-4.08-1.78-7.3-29.24T42.07,64.58q-14.7-.3-25.32-1.54T5,59.41Q3.14,55.65,1.85,47.25A159.67,159.67,0,0,1,.17,30.07,129.13,129.13,0,0,1,.32,14.18Q.86,7.08,2.85,6,5.73,3.7,22.31,2.31T60.45.37Q82-.17,104.24.08t36.54,1.14q5.67.39,7.75,9.73A75.16,75.16,0,0,1,150,31.41a86.4,86.4,0,0,1-3.43,20.46q-2.82,9.33-6.9,9.63c-2.52.39-6.55.78-12.11,1.14s-11.82.68-18.77.94q-.3,28-2.09,54T102.05,147.3Z"/><g class="cls-5"><path class="cls-6" d="M75.84,135c-3.09,0-6.19-.12-9.23-.36-2.06-.17-3.61-.38-4.78-.59-.8-2.86-2.1-8.87-3.51-20.91-2.12-18-3.76-36.48-4.86-54.91A11.41,11.41,0,0,0,42.3,47.47c-9.38-.19-17.54-.68-24.23-1.46-1.64-.19-2.9-.39-3.86-.56-.33-1.34-.7-3.16-1.08-5.64a147.45,147.45,0,0,1-1.57-16,120.55,120.55,0,0,1,.13-14.5C13.89,9,17.5,8.46,23.27,8,34,7.07,46.65,6.43,60.73,6.07c9.75-.24,19.74-.37,29.69-.37,4.52,0,9.13,0,13.69.08,13.09.14,24.18.46,33,1,.08.29.16.62.25,1a64.11,64.11,0,0,1,1.23,17.36,75.55,75.55,0,0,1-2.95,17.75c-.26.85-.49,1.52-.7,2-1.83.19-4.44.42-8.15.66-5.49.36-11.7.67-18.45.92a11.43,11.43,0,0,0-11,11.28c-.19,18.37-.88,36.3-2.06,53.31-.9,13.12-1.85,19.48-2.47,22.46l-.23.05a82,82,0,0,1-12.13,1.29C79,134.93,77.38,135,75.84,135Z"/></g><path class="cls-7" d="M90.4,0V2.85c4.56,0,9.21,0,13.81.08,14.71.16,27,.54,36.37,1.13,2.35.17,4.09,2.69,5.17,7.51a73.18,73.18,0,0,1,1.42,19.69A83.3,83.3,0,0,1,143.86,51c-1.78,5.89-3.59,7.56-4.38,7.61h-.12l-.11,0c-2.43.38-6.42.76-11.86,1.12s-11.84.67-18.69.93l-2.71.11,0,2.71c-.2,18.53-.9,36.63-2.08,53.81-1.61,23.3-3.54,27.48-4.09,28.21l-.13.17-.08.13c-.13.14-1.11,1-5.32,1.81a91.1,91.1,0,0,1-13.42,1.44c-1.66.06-3.35.09-5,.09-3.31,0-6.64-.13-9.91-.38a35.68,35.68,0,0,1-10.36-2c-.6-.61-3.1-4.43-5.75-27C47.68,101.64,46,83,44.92,64.41l-.16-2.63-2.63-.05c-9.67-.2-18.1-.71-25.05-1.52C9.75,59.35,7.9,58.29,7.52,58c-1.09-2.25-2-6-2.85-11.2A159.29,159.29,0,0,1,3,29.94,131.51,131.51,0,0,1,3.16,14.4c.34-4.42,1-5.73,1.21-6l.06,0,.19-.15c.37-.29,3-1.81,17.93-3.07,11-.92,23.73-1.56,38-1.93C70.33,3,80.38,2.85,90.4,2.85V0m0,0Q75.27,0,60.45.37,38.89.93,22.31,2.31T2.85,6Q.86,7.08.32,14.18A129.13,129.13,0,0,0,.17,30.07,159.67,159.67,0,0,0,1.85,47.25Q3.14,55.64,5,59.41,6.13,61.8,16.75,63t25.32,1.54q1.7,28.1,4.92,55.56t7.3,29.24q3.87,1.69,11.42,2.29c3.35.26,6.73.4,10.13.4,1.7,0,3.4,0,5.11-.1a93,93,0,0,0,13.86-1.49c4.1-.8,6.52-1.86,7.24-3.18q2.88-3.78,4.67-29.74t2.09-54q10.43-.39,18.77-.94c5.56-.36,9.59-.75,12.11-1.14q4.08-.3,6.9-9.63A86.4,86.4,0,0,0,150,31.41,75.16,75.16,0,0,0,148.53,11q-2.09-9.33-7.75-9.73Q126.49.32,104.24.08,97.28,0,90.4,0Z"/><path class="cls-8" d="M117.16,10A4.85,4.85,0,0,0,115,7.11a4.78,4.78,0,0,0-3.66-.47,4.72,4.72,0,0,0-2.84,2.18l-.33.64a5,5,0,0,0-.48,3.67A4.89,4.89,0,0,0,109.85,16a4.81,4.81,0,0,0,3.67.47,4.75,4.75,0,0,0,2.84-2.18c.11-.21.21-.43.32-.64A5,5,0,0,0,117.16,10Z"/><path class="cls-8" d="M145.52,16.91c-.71-10.44-10.58-12-19-9.91-5.93,1.46-3.42,10.63,2.53,9.17,2.95-.73,6.71-2,7,2.06.22,3.31-.68,6.9-1,10.19L132.49,51c-.67,6.07,8.84,6,9.51,0s1.32-11.93,2-17.9C144.57,27.89,145.88,22.19,145.52,16.91Z"/><path class="cls-8" d="M101.93,85.33c-.4-6.07-9.91-6.11-9.5,0a209.65,209.65,0,0,1-3.61,55.45c-1.2,6,8,8.53,9.16,2.53A219.9,219.9,0,0,0,101.93,85.33Z"/></g></g></g></svg>