<svg xmlns="http://www.w3.org/2000/svg" xmlns:xlink="http://www.w3.org/1999/xlink" viewBox="0 0 150.64 147.17"><defs><style>.cls-1{mask:url(#mask);filter:url(#luminosity-noclip-2);}.cls-2{mix-blend-mode:multiply;fill:url(#linear-gradient);}.cls-3{fill:url(#linear-gradient-2);}.cls-4{mask:url(#mask-2);}.cls-5{fill:url(#linear-gradient-3);}.cls-6{fill:#870000;}.cls-7{fill:#f8f9f6;}.cls-8{filter:url(#luminosity-noclip);}</style><filter id="luminosity-noclip" x="11.1" y="-10701.51" width="128.44" height="32766" filterUnits="userSpaceOnUse" color-interpolation-filters="sRGB"><feFlood flood-color="#fff" result="bg"/><feBlend in="SourceGraphic" in2="bg"/></filter><mask id="mask" x="11.1" y="-10701.51" width="128.44" height="32766" maskUnits="userSpaceOnUse"><g class="cls-8"/></mask><linearGradient id="linear-gradient" x1="75.32" y1="130.52" x2="75.32" y2="5.55" gradientUnits="userSpaceOnUse"><stop offset="0" stop-color="#fff"/><stop offset="0.54"/><stop offset="0.58" stop-color="#080808"/><stop offset="0.64" stop-color="#1c1c1c"/><stop offset="0.71" stop-color="#3f3f3f"/><stop offset="0.79" stop-color="#6e6e6e"/><stop offset="0.89" stop-color="#ababab"/><stop offset="0.99" stop-color="#f4f4f4"/><stop offset="1" stop-color="#fff"/></linearGradient><linearGradient id="linear-gradient-2" x1="75.32" y1="147.17" x2="75.32" gradientUnits="userSpaceOnUse"><stop offset="0.07" stop-color="#e90022"/><stop offset="1" stop-color="#a7001d"/></linearGradient><filter id="luminosity-noclip-2" x="11.1" y="5.55" width="128.44" height="124.97" filterUnits="userSpaceOnUse" color-interpolation-filters="sRGB"><feFlood flood-color="#fff" result="bg"/><feBlend in="SourceGraphic" in2="bg"/></filter><mask id="mask-2" x="11.1" y="5.55" width="128.44" height="124.97" maskUnits="userSpaceOnUse"><g class="cls-1"><path class="cls-2" d="M77,130.52A63.76,63.76,0,0,1,41.42,119.7c-12.58-8.16-21-18.65-25.84-32.08l0-.08c-1.05-2.84-2.48-8.46-3.37-19.05-.78-9.15-1.14-18.56-1.07-28a199.59,199.59,0,0,1,1.63-25.3,45.9,45.9,0,0,1,1.77-8.43A31.26,31.26,0,0,1,19,6.05c3.3-.33,6.73-.5,10.2-.5,1.95,0,3.94,0,5.94.16A86.26,86.26,0,0,1,48,7.25c-.21,3.94-.53,8.66-.95,14.1a242,242,0,0,0-.56,28.36,94.74,94.74,0,0,0,4.65,26.94C54.87,87.58,62.63,94.22,73,95.34a29.19,29.19,0,0,0,3.2.19c5.86,0,16.58-2.07,22.43-15.94A93.57,93.57,0,0,0,105.05,52,243.76,243.76,0,0,0,106,22.41q-.25-8.44-.19-14.11A83.58,83.58,0,0,1,120,7.12h.51a82.38,82.38,0,0,1,15.08,1.31c.88.17,1.55.33,2.07.47a84.85,84.85,0,0,1,1.46,12.15c.52,8,.61,16.93.27,26.43a258.27,258.27,0,0,1-2.5,28c-1.23,8.46-2.9,15.06-5,19.62a60.26,60.26,0,0,1-20.09,24.57,57.75,57.75,0,0,1-30,10.7C80.17,130.46,78.59,130.52,77,130.52Z"/></g></mask><linearGradient id="linear-gradient-3" x1="75.32" y1="130.52" x2="75.32" y2="5.55" xlink:href="#linear-gradient-2"/></defs><title>U</title><g id="Layer_2" data-name="Layer 2"><g id="objects"><path class="cls-3" d="M94.91,7.23q.11-2.61,7.83-4.11a100.21,100.21,0,0,1,34.84-.05q8.26,1.54,9.71,5,2,5.12,2.86,17.78t.29,27.54a272.43,272.43,0,0,1-2.61,29.19q-2.09,14.31-5.85,22.62a71.67,71.67,0,0,1-23.73,29A69.08,69.08,0,0,1,82.54,147a75.15,75.15,0,0,1-47.16-12.42Q13.54,120.4,5.13,96.91q-2.8-7.62-4-21.93T0,46A207.06,207.06,0,0,1,1.75,19.26Q3.39,7.23,6.58,4,9.28,1.43,17.89.56A116.75,116.75,0,0,1,35.72.17,94.23,94.23,0,0,1,52.15,2.35c4.8,1.12,7.2,2.56,7.2,4.3q-.2,7.53-1.26,21.12a230.85,230.85,0,0,0-.53,27.06A83.44,83.44,0,0,0,61.62,78.6q3.52,10.29,12.61,11.26,9.85,1.15,14.16-9A81.49,81.49,0,0,0,94,56.57a229.65,229.65,0,0,0,.88-28.27Q94.42,14.08,94.91,7.23Z"/><g class="cls-4"><path class="cls-5" d="M77,130.52A63.76,63.76,0,0,1,41.42,119.7c-12.58-8.16-21-18.65-25.84-32.08l0-.08c-1.05-2.84-2.48-8.46-3.37-19.05-.78-9.15-1.14-18.56-1.07-28a199.59,199.59,0,0,1,1.63-25.3,45.9,45.9,0,0,1,1.77-8.43A31.26,31.26,0,0,1,19,6.05c3.3-.33,6.73-.5,10.2-.5,1.95,0,3.94,0,5.94.16A86.26,86.26,0,0,1,48,7.25c-.21,3.94-.53,8.66-.95,14.1a242,242,0,0,0-.56,28.36,94.74,94.74,0,0,0,4.65,26.94C54.87,87.58,62.63,94.22,73,95.34a29.19,29.19,0,0,0,3.2.19c5.86,0,16.58-2.07,22.43-15.94A93.57,93.57,0,0,0,105.05,52,243.76,243.76,0,0,0,106,22.41q-.25-8.44-.19-14.11A83.58,83.58,0,0,1,120,7.12h.51a82.38,82.38,0,0,1,15.08,1.31c.88.17,1.55.33,2.07.47a84.85,84.85,0,0,1,1.46,12.15c.52,8,.61,16.93.27,26.43a258.27,258.27,0,0,1-2.5,28c-1.23,8.46-2.9,15.06-5,19.62a60.26,60.26,0,0,1-20.09,24.57,57.75,57.75,0,0,1-30,10.7C80.17,130.46,78.59,130.52,77,130.52Z"/></g><path class="cls-6" d="M29.2,2.77c2.09,0,4.23.06,6.37.17A91.5,91.5,0,0,1,51.51,5.05c3.54.83,4.71,1.61,5.05,1.9-.14,5-.55,11.87-1.24,20.6a234.08,234.08,0,0,0-.53,27.38A86.89,86.89,0,0,0,59,79.5c3.39,9.89,10,12.59,14.92,13.11a17.77,17.77,0,0,0,2.28.14c4.64,0,11-1.88,14.76-10.85a85.2,85.2,0,0,0,5.81-25.08,235,235,0,0,0,.88-28.61c-.28-9.15-.27-16,0-20.52.36-.29,1.66-1.08,5.61-1.85a90.66,90.66,0,0,1,16.64-1.49h.54A91.25,91.25,0,0,1,137.07,5.8c6.23,1.17,7.43,2.84,7.66,3.35,1.23,3.13,2.12,8.82,2.65,16.91.54,8.31.63,17.49.28,27.26a267.09,267.09,0,0,1-2.58,28.89c-1.34,9.24-3.24,16.6-5.62,21.86A69.4,69.4,0,0,1,116.63,132a66.62,66.62,0,0,1-34.28,12.24c-1.77.12-3.56.18-5.31.18a72.83,72.83,0,0,1-40.15-12.16C22.92,123.17,13.11,111,7.73,96,6,91.13,4.66,84,3.88,74.74S2.72,55.67,2.78,46A205,205,0,0,1,4.5,19.64C5.81,10,7.57,7,8.52,6c.77-.73,3-2,9.65-2.7a110.37,110.37,0,0,1,11-.55M29.2,0A113.15,113.15,0,0,0,17.89.56Q9.28,1.43,6.58,4,3.39,7.22,1.75,19.26A207.06,207.06,0,0,0,0,46q-.1,14.7,1.11,29t4,21.93q8.42,23.49,30.25,37.65A75.26,75.26,0,0,0,77,147.17c1.82,0,3.66-.07,5.5-.19a69.08,69.08,0,0,0,35.71-12.76,71.67,71.67,0,0,0,23.73-29q3.77-8.31,5.85-22.62a272.43,272.43,0,0,0,2.61-29.19q.52-14.88-.29-27.54T147.29,8.1q-1.44-3.48-9.71-5a93,93,0,0,0-17.13-1.5h-.55a93.56,93.56,0,0,0-17.16,1.55Q95,4.62,94.91,7.23q-.48,6.86,0,21.07A229.65,229.65,0,0,1,94,56.57a81.49,81.49,0,0,1-5.6,24.25Q84.52,90,76.19,90a16.49,16.49,0,0,1-2-.12q-9.09-1-12.61-11.26a83.44,83.44,0,0,1-4.06-23.77,230.85,230.85,0,0,1,.53-27.06q1.06-13.59,1.26-21.12c0-1.74-2.4-3.18-7.2-4.3A94.23,94.23,0,0,0,35.72.17Q32.42,0,29.2,0Z"/><path class="cls-7" d="M134.51,8.85c-5.95,0-6,9.25,0,9.25S140.47,8.85,134.51,8.85Z"/><path class="cls-7" d="M144.21,23.37c-1.3-5.81-10.22-3.35-8.92,2.45A118,118,0,0,1,123.15,109c-2.91,5.2,5.07,9.87,8,4.67A127.9,127.9,0,0,0,144.21,23.37Z"/><path class="cls-7" d="M73,94.6c-5.89,2.67-11.62-1.82-14.55-6.66-3.08-5.09-4-11.24-5.07-17s-10-3.37-8.92,2.46C46,82.25,48.09,91.57,54.68,98.18a20,20,0,0,0,22.94,4.41C83,100.13,78.34,92.16,73,94.6Z"/></g></g></svg>