<svg xmlns="http://www.w3.org/2000/svg" xmlns:xlink="http://www.w3.org/1999/xlink" viewBox="0 0 165.65 147.83"><defs><style>.cls-1{mask:url(#mask);filter:url(#luminosity-noclip-2);}.cls-2{mix-blend-mode:multiply;fill:url(#linear-gradient);}.cls-3{isolation:isolate;}.cls-4{fill:url(#Gradient_28);}.cls-5{mask:url(#mask-2);}.cls-6{fill:#fff;opacity:0.3;mix-blend-mode:soft-light;}.cls-7{fill:#d78dc0;}.cls-8{fill:#f8f9f6;}.cls-9{filter:url(#luminosity-noclip);}</style><filter id="luminosity-noclip" x="11.44" y="-10702.17" width="142.78" height="32766" filterUnits="userSpaceOnUse" color-interpolation-filters="sRGB"><feFlood flood-color="#fff" result="bg"/><feBlend in="SourceGraphic" in2="bg"/></filter><mask id="mask" x="11.44" y="-10702.17" width="142.78" height="32766" maskUnits="userSpaceOnUse"><g class="cls-9"/></mask><linearGradient id="linear-gradient" x1="82.83" y1="131.18" x2="82.83" y2="5.58" gradientUnits="userSpaceOnUse"><stop offset="0" stop-color="#fff"/><stop offset="0.54"/><stop offset="0.58" stop-color="#080808"/><stop offset="0.64" stop-color="#1c1c1c"/><stop offset="0.71" stop-color="#3f3f3f"/><stop offset="0.79" stop-color="#6e6e6e"/><stop offset="0.89" stop-color="#ababab"/><stop offset="0.99" stop-color="#f4f4f4"/><stop offset="1" stop-color="#fff"/></linearGradient><linearGradient id="Gradient_28" x1="82.83" y1="147.83" x2="82.83" gradientUnits="userSpaceOnUse"><stop offset="0" stop-color="#ca007c"/><stop offset="1" stop-color="#f2189a"/></linearGradient><filter id="luminosity-noclip-2" x="11.44" y="5.58" width="142.78" height="125.6" filterUnits="userSpaceOnUse" color-interpolation-filters="sRGB"><feFlood flood-color="#fff" result="bg"/><feBlend in="SourceGraphic" in2="bg"/></filter><mask id="mask-2" x="11.44" y="5.58" width="142.78" height="125.6" maskUnits="userSpaceOnUse"><g class="cls-1"><path class="cls-2" d="M84.41,131.18c-4.46,0-8.69-.14-12.56-.41-1.86-.13-3.09-.26-3.86-.37-1.16-1.28-3.76-4.58-8.52-12.49-6-10-12.36-21.39-19-34S27.66,58.57,22,46.34c-5.06-10.93-8.6-19.2-10.56-24.62a16.5,16.5,0,0,1,1.62-1.66A57.28,57.28,0,0,1,27.19,11,61.88,61.88,0,0,1,43.36,5.81c.8-.13,1.44-.2,1.93-.23C50,13.65,54.48,22.32,58.77,31.39c4.87,10.29,9.77,20.49,14.55,30.31a11.09,11.09,0,0,0,10,6.24h.23a11.07,11.07,0,0,0,9.94-6.67c4.7-10.79,9.62-21.78,14.61-32.66,4.24-9.25,8.11-17,11.5-23,.49,0,1.11.1,1.88.23A63.48,63.48,0,0,1,137.87,11a60.14,60.14,0,0,1,14.52,9.18A15.92,15.92,0,0,1,154.22,22c-1.17,3.35-3.7,9.8-9.17,22.2C139.73,56.26,133.81,69,127.44,82S114.93,106.83,109,117.29c-4.73,8.36-7.34,11.85-8.5,13.21-.72.1-1.84.21-3.5.32C93.13,131.06,88.89,131.18,84.41,131.18Z"/></g></mask></defs><title>V</title><g class="cls-3"><g id="Layer_2" data-name="Layer 2"><g id="objects"><path class="cls-4" d="M83.3,62.39Q90.45,46,98,29.54T111.42,3.05Q113.84-1.09,123.21.4a74.5,74.5,0,0,1,19.28,6A70.87,70.87,0,0,1,159.7,17.36q7.29,6.38,5.65,11.89-2,6.57-10.15,25T137.42,92.45q-9.66,19.81-18.75,35.86t-13,17.88q-1.74.87-7.92,1.25c-4.13.26-8.55.39-13.29.39s-9.18-.15-13.34-.44-6.81-.69-8-1.2q-4-1.74-13.14-17T30.68,94.58q-10.11-19.33-18.75-38T.38,29.25q-1.84-5.52,5.26-11.89A68.09,68.09,0,0,1,22.51,6.44,72.58,72.58,0,0,1,41.6.4q9.32-1.5,11.84,2.65,8,13.63,15.36,29.14T83.3,62.39Z"/><g class="cls-5"><path class="cls-6" d="M84.41,131.18c-4.46,0-8.69-.14-12.56-.41-1.86-.13-3.09-.26-3.86-.37-1.16-1.28-3.76-4.58-8.52-12.49-6-10-12.36-21.39-19-34S27.66,58.57,22,46.34c-5.06-10.93-8.6-19.2-10.56-24.62a16.5,16.5,0,0,1,1.62-1.66A57.28,57.28,0,0,1,27.19,11,61.88,61.88,0,0,1,43.36,5.81c.8-.13,1.44-.2,1.93-.23C50,13.65,54.48,22.32,58.77,31.39c4.87,10.29,9.77,20.49,14.55,30.31a11.09,11.09,0,0,0,10,6.24h.23a11.07,11.07,0,0,0,9.94-6.67c4.7-10.79,9.62-21.78,14.61-32.66,4.24-9.25,8.11-17,11.5-23,.49,0,1.11.1,1.88.23A63.48,63.48,0,0,1,137.87,11a60.14,60.14,0,0,1,14.52,9.18A15.92,15.92,0,0,1,154.22,22c-1.17,3.35-3.7,9.8-9.17,22.2C139.73,56.26,133.81,69,127.44,82S114.93,106.83,109,117.29c-4.73,8.36-7.34,11.85-8.5,13.21-.72.1-1.84.21-3.5.32C93.13,131.06,88.89,131.18,84.41,131.18Z"/></g><path class="cls-7" d="M118.73,2.77a26.08,26.08,0,0,1,4,.37A72,72,0,0,1,141.34,9a68.07,68.07,0,0,1,16.53,10.49c3.95,3.45,5.57,6.48,4.83,9-1.32,4.25-4.69,12.56-10,24.68s-11.33,25-17.73,38.12-12.67,25.11-18.67,35.71c-8,14.17-11.06,16.39-11.8,16.73l0,0h0c-.2.11-1.51.64-6.85,1-4,.26-8.46.38-13.12.38s-9.08-.14-13.14-.42c-5.34-.38-6.74-.84-7.06-1-.74-.33-3.78-2.44-11.88-15.9-6.06-10.09-12.52-21.68-19.2-34.46s-13-25.55-18.69-37.91S4.9,34,3,28.37c-.84-2.51.67-5.52,4.49-8.95A65.45,65.45,0,0,1,23.68,9,70.14,70.14,0,0,1,42,3.14a25.74,25.74,0,0,1,4-.37c2.63,0,4.31.58,5,1.69,5.28,9,10.41,18.7,15.25,28.92S76.05,53.85,80.8,63.61L83.44,69l2.4-5.52c4.72-10.85,9.66-21.88,14.67-32.81S110,11.05,113.82,4.45c.65-1.11,2.3-1.68,4.91-1.68m0-2.77c-3.69,0-6.12,1-7.31,3.05Q105.53,13.11,98,29.54T83.3,62.39q-7.15-14.69-14.5-30.2T53.44,3.05q-1.86-3-7.38-3A27.67,27.67,0,0,0,41.6.4a72.58,72.58,0,0,0-19.09,6A68.09,68.09,0,0,0,5.64,17.36Q-1.45,23.74.38,29.25q2.9,8.59,11.55,27.3t18.75,38Q40.77,113.9,50,129.18t13.14,17q1.74.76,8,1.2t13.34.44c4.74,0,9.16-.13,13.29-.39s6.76-.67,7.92-1.25q4-1.84,13-17.88t18.75-35.86q9.66-19.82,17.78-38.22t10.15-25q1.64-5.52-5.65-11.89A70.87,70.87,0,0,0,142.49,6.44a74.5,74.5,0,0,0-19.28-6,28,28,0,0,0-4.48-.4Z"/><path class="cls-8" d="M80.92,65,51.2,12.19c-2.92-5.18-10.92-.53-8,4.67L72.94,69.69C75.86,74.87,83.85,70.22,80.92,65Z"/><path class="cls-8" d="M129.28,7.94c-6,0-6,9.25,0,9.25S135.24,7.94,129.28,7.94Z"/><path class="cls-8" d="M157.23,25.09a14.83,14.83,0,0,0-10.72-11.24c-5.79-1.4-8.25,7.52-2.46,8.92,11.42,2.78-1.81,22-4.55,27.08l-17,31.58c-2.83,5.24,5.16,9.92,8,4.67,7.66-14.22,15.6-28.32,23-42.69C156.36,37.75,158.75,31.52,157.23,25.09Z"/></g></g></g></svg>