<svg xmlns="http://www.w3.org/2000/svg" xmlns:xlink="http://www.w3.org/1999/xlink" viewBox="0 0 177.35 148.47"><defs><style>.cls-1{mask:url(#mask);filter:url(#luminosity-noclip-2);}.cls-2{mix-blend-mode:multiply;fill:url(#linear-gradient);}.cls-3{fill:url(#linear-gradient-2);}.cls-4{mask:url(#mask-2);}.cls-5{fill:url(#linear-gradient-3);}.cls-6{fill:#8affff;}.cls-7{fill:#f8f9f6;}.cls-8{filter:url(#luminosity-noclip);}</style><filter id="luminosity-noclip" x="11.1" y="-10702.93" width="155.15" height="32766" filterUnits="userSpaceOnUse" color-interpolation-filters="sRGB"><feFlood flood-color="#fff" result="bg"/><feBlend in="SourceGraphic" in2="bg"/></filter><mask id="mask" x="11.1" y="-10702.93" width="155.15" height="32766" maskUnits="userSpaceOnUse"><g class="cls-8"/></mask><linearGradient id="linear-gradient" x1="88.68" y1="131.82" x2="88.68" y2="5.55" gradientUnits="userSpaceOnUse"><stop offset="0" stop-color="#fff"/><stop offset="0.54"/><stop offset="0.58" stop-color="#080808"/><stop offset="0.64" stop-color="#1c1c1c"/><stop offset="0.71" stop-color="#3f3f3f"/><stop offset="0.79" stop-color="#6e6e6e"/><stop offset="0.89" stop-color="#ababab"/><stop offset="0.99" stop-color="#f4f4f4"/><stop offset="1" stop-color="#fff"/></linearGradient><linearGradient id="linear-gradient-2" x1="88.68" y1="148.47" x2="88.68" gradientUnits="userSpaceOnUse"><stop offset="0.07" stop-color="#7ff9ff"/><stop offset="1" stop-color="#00bcbf"/></linearGradient><filter id="luminosity-noclip-2" x="11.1" y="5.55" width="155.15" height="126.27" filterUnits="userSpaceOnUse" color-interpolation-filters="sRGB"><feFlood flood-color="#fff" result="bg"/><feBlend in="SourceGraphic" in2="bg"/></filter><mask id="mask-2" x="11.1" y="5.55" width="155.15" height="126.27" maskUnits="userSpaceOnUse"><g class="cls-1"><path class="cls-2" d="M136.53,131.82c-5,0-9.92-.23-14.53-.69a27.16,27.16,0,0,1-5.64-1c-1.14-.91-3.62-3.21-8-8.62-3.89-4.87-6.89-8.72-8.92-11.43a11.1,11.1,0,0,0-8.88-4.44h-.1a11.1,11.1,0,0,0-8.9,4.6q-3.75,5.19-8.47,11.64a54,54,0,0,1-7,8,30.72,30.72,0,0,1-5.8.95c-4.3.41-8.85.62-13.52.62l-3.37,0a119.8,119.8,0,0,1-15.83-1.28c-.57-.09-1.08-.17-1.51-.26a170.72,170.72,0,0,1-7.37-29.36c-2.46-14.23-4.35-28.47-5.64-42.34S11.13,32,11.1,21.38c0-6.46.16-10.35.35-12.62A76.84,76.84,0,0,1,23.54,6.39,109.39,109.39,0,0,1,37,5.55h.68a36.74,36.74,0,0,1,4.68.28,106.37,106.37,0,0,1,3,15C47.48,35.16,49.7,50.4,52,66.16a11.1,11.1,0,0,0,19.09,6c1.88-2,6.18-6.71,13.54-14.8,2.55-2.81,4.49-4.76,5.91-6.1,1.16,1.26,2.65,3,4.56,5.44,6.54,8.32,10.46,13.27,12,15.12A11.09,11.09,0,0,0,126.67,66c1.72-15.84,3.59-31,5.56-45.08a107.79,107.79,0,0,1,2.91-15.09,38.67,38.67,0,0,1,4.3-.24h.66a106.5,106.5,0,0,1,13.15.83,78.93,78.93,0,0,1,12,2.39l.27.08c.25,2.2.53,6.06.65,12.67.19,10.56-.13,23-.95,36.84s-2.18,28.15-4,42.42a231.22,231.22,0,0,1-5.52,29.54l-1,.19a105.06,105.06,0,0,1-15.62,1.29C138.21,131.82,137.36,131.82,136.53,131.82Z"/></g></mask><linearGradient id="linear-gradient-3" x1="88.68" y1="131.82" x2="88.68" y2="5.55" xlink:href="#linear-gradient-2"/></defs><title>W</title><g id="Layer_2" data-name="Layer 2"><g id="objects"><path class="cls-3" d="M165,143.57c-.51,1.42-3.35,2.56-8.5,3.43a115.46,115.46,0,0,1-17.3,1.45,159.92,159.92,0,0,1-18.32-.73q-8.75-.87-11.25-3.19-4-3.09-9.91-10.53t-9.13-11.69Q86.83,127.53,82.1,134a61.67,61.67,0,0,1-9.47,10.53q-2.61,2.13-11.26,2.95a157.52,157.52,0,0,1-18.17.63,130.17,130.17,0,0,1-17.3-1.4c-5.18-.81-8-1.85-8.55-3.14Q11.55,129.84,7.78,108T2,64.8Q.05,43.44,0,27T1.5,7.4C2,6.11,4.21,4.87,8.26,3.67A87.68,87.68,0,0,1,22.18.92,122,122,0,0,1,37.74,0q7.73,0,11.7,1.79,3.77,1.74,6.91,23T63,70.12q2.79-3,13.43-14.69t14.4-12q3.38-.28,13,11.94t11.84,14.93q2.61-24.06,5.6-45.42T128,1.79Q131.78,0,139.36,0a117.39,117.39,0,0,1,15.27.92,87.82,87.82,0,0,1,13.78,2.75q6.08,1.8,6.86,3.73,1.74,3.09,2,19.47t-1,37.69q-1.26,21.32-4.11,43.2T165,143.57Z"/><g class="cls-4"><path class="cls-5" d="M136.53,131.82c-5,0-9.92-.23-14.53-.69a27.16,27.16,0,0,1-5.64-1c-1.14-.91-3.62-3.21-8-8.62-3.89-4.87-6.89-8.72-8.92-11.43a11.1,11.1,0,0,0-8.88-4.44h-.1a11.1,11.1,0,0,0-8.9,4.6q-3.75,5.19-8.47,11.64a54,54,0,0,1-7,8,30.72,30.72,0,0,1-5.8.95c-4.3.41-8.85.62-13.52.62l-3.37,0a119.8,119.8,0,0,1-15.83-1.28c-.57-.09-1.08-.17-1.51-.26a170.72,170.72,0,0,1-7.37-29.36c-2.46-14.23-4.35-28.47-5.64-42.34S11.13,32,11.1,21.38c0-6.46.16-10.35.35-12.62A76.84,76.84,0,0,1,23.54,6.39,109.39,109.39,0,0,1,37,5.55h.68a36.74,36.74,0,0,1,4.68.28,106.37,106.37,0,0,1,3,15C47.48,35.16,49.7,50.4,52,66.16a11.1,11.1,0,0,0,19.09,6c1.88-2,6.18-6.71,13.54-14.8,2.55-2.81,4.49-4.76,5.91-6.1,1.16,1.26,2.65,3,4.56,5.44,6.54,8.32,10.46,13.27,12,15.12A11.09,11.09,0,0,0,126.67,66c1.72-15.84,3.59-31,5.56-45.08a107.79,107.79,0,0,1,2.91-15.09,38.67,38.67,0,0,1,4.3-.24h.66a106.5,106.5,0,0,1,13.15.83,78.93,78.93,0,0,1,12,2.39l.27.08c.25,2.2.53,6.06.65,12.67.19,10.56-.13,23-.95,36.84s-2.18,28.15-4,42.42a231.22,231.22,0,0,1-5.52,29.54l-1,.19a105.06,105.06,0,0,1-15.62,1.29C138.21,131.82,137.36,131.82,136.53,131.82Z"/></g><path class="cls-6" d="M140.09,2.77a115.71,115.71,0,0,1,14.2.9,85.7,85.7,0,0,1,13.33,2.67c3.91,1.15,4.93,2,5.12,2.2l0,.06.09.15c.33.59,1.42,3.62,1.67,18.17.19,10.78-.13,23.39-1,37.48s-2.21,28.54-4.09,43c-1.85,14.19-4.2,26-7,35-.36.27-1.8,1.08-6.42,1.86a113.78,113.78,0,0,1-16.88,1.42l-2.66,0c-5.3,0-10.46-.25-15.34-.74-7.06-.7-9.1-2-9.65-2.46l-.09-.08-.09-.07a64.47,64.47,0,0,1-9.44-10.08c-3.93-4.91-7-8.83-9.08-11.63l-2.27-3-2.2,3.05c-2.47,3.42-5.33,7.35-8.5,11.68a59.41,59.41,0,0,1-9,10c-.62.49-2.79,1.66-9.75,2.32-4.56.43-9.37.65-14.3.65l-3.55,0A129.53,129.53,0,0,1,26.33,144c-4.69-.73-6.15-1.47-6.53-1.72-3.72-8.88-6.84-20.56-9.28-34.72C8,93.1,6.1,78.64,4.79,64.55s-2-26.74-2-37.59c0-14.68.91-17.74,1.2-18.32l.08-.16h0c.22-.21,1.27-1,5-2.13A85.31,85.31,0,0,1,22.52,3.67,120.14,120.14,0,0,1,37,2.77h.72c4.68,0,8.21.53,10.49,1.5C48.73,4.72,51,7.6,53.6,25.2c2.12,14.32,4.34,29.57,6.62,45.32l.83,5.71L65,72c1.85-2,6.26-6.79,13.46-14.72C87.39,47.46,90.36,46.35,91,46.22c.5.15,3.15,1.32,10.67,10.87,6.51,8.28,10.39,13.18,11.87,15l4.19,5.1.72-6.56c1.73-16,3.61-31.21,5.59-45.34,2.48-17.7,4.75-20.56,5.25-21,2.14-1,5.55-1.47,10.14-1.5h.71m0-2.77h-.73Q131.79,0,128,1.79t-6.77,23.1q-3,21.36-5.6,45.42-2.23-2.7-11.84-14.93Q94.4,43.44,91,43.44H90.8q-3.76.3-14.4,12T63,70.12Q59.49,46,56.35,24.79t-6.91-23Q45.47,0,37.74,0H37A121.56,121.56,0,0,0,22.18.92,87.68,87.68,0,0,0,8.26,3.67C4.21,4.87,2,6.11,1.5,7.4Q0,10.49,0,27T2,64.8Q4,86.16,7.78,108t9.57,35.57c.51,1.29,3.37,2.33,8.55,3.14a130.17,130.17,0,0,0,17.3,1.4c1.21,0,2.42,0,3.61,0q7.56,0,14.56-.67,8.66-.81,11.26-2.95A61.67,61.67,0,0,0,82.1,134q4.74-6.48,8.51-11.69,3.18,4.25,9.13,11.69t9.91,10.53q2.5,2.33,11.25,3.19,7.51.75,15.62.75l2.7,0a115.46,115.46,0,0,0,17.3-1.45c5.15-.87,8-2,8.5-3.43q4.35-13.92,7.2-35.81t4.11-43.2q1.26-21.31,1-37.69t-2-19.47q-.78-1.94-6.86-3.73A87.82,87.82,0,0,0,154.63.92,116.94,116.94,0,0,0,140.09,0Z"/><path class="cls-7" d="M57,69.68A284.42,284.42,0,0,0,47.44,9.86C45.89,4.12,37,6.56,38.52,12.32a271.75,271.75,0,0,1,9.19,57.36C48,75.61,57.26,75.64,57,69.68Z"/><path class="cls-7" d="M105.76,64.73,95.54,53.55c-4-4.4-10.55,2.15-6.54,6.54L99.22,71.27C103.24,75.67,109.77,69.12,105.76,64.73Z"/><path class="cls-7" d="M110.55,72.93c-6,0-6,9.25,0,9.25S116.51,72.93,110.55,72.93Z"/><path class="cls-7" d="M168,8.17a4.61,4.61,0,0,0-6.54,0,4.78,4.78,0,0,0-1.35,3.27v.94A4.63,4.63,0,0,0,164.71,17,4.68,4.68,0,0,0,168,15.65a4.8,4.8,0,0,0,1.35-3.27v-.94A4.76,4.76,0,0,0,168,8.17Z"/><path class="cls-7" d="M173.39,22.77c-.28-5.92-9.53-6-9.25,0a270.23,270.23,0,0,1-5.44,68.68c-1.22,5.8,7.69,8.29,8.92,2.46A280.89,280.89,0,0,0,173.39,22.77Z"/></g></g></svg>