<svg xmlns="http://www.w3.org/2000/svg" xmlns:xlink="http://www.w3.org/1999/xlink" viewBox="0 0 148.16 149.66"><defs><style>.cls-1{mask:url(#mask);filter:url(#luminosity-noclip-2);}.cls-2{mix-blend-mode:multiply;fill:url(#linear-gradient);}.cls-3{isolation:isolate;}.cls-4{fill:url(#Gradient_23);}.cls-5{mask:url(#mask-2);}.cls-6{fill:#fff;opacity:0.3;mix-blend-mode:soft-light;}.cls-7{fill:#9362f4;}.cls-8{fill:#f8f9f6;}.cls-9{filter:url(#luminosity-noclip);}</style><filter id="luminosity-noclip" x="11.44" y="-10703.92" width="124.63" height="32766" filterUnits="userSpaceOnUse" color-interpolation-filters="sRGB"><feFlood flood-color="#fff" result="bg"/><feBlend in="SourceGraphic" in2="bg"/></filter><mask id="mask" x="11.44" y="-10703.92" width="124.63" height="32766" maskUnits="userSpaceOnUse"><g class="cls-9"/></mask><linearGradient id="linear-gradient" x1="73.76" y1="132.82" x2="73.76" y2="5.9" gradientUnits="userSpaceOnUse"><stop offset="0" stop-color="#fff"/><stop offset="0.54"/><stop offset="0.58" stop-color="#080808"/><stop offset="0.64" stop-color="#1c1c1c"/><stop offset="0.71" stop-color="#3f3f3f"/><stop offset="0.79" stop-color="#6e6e6e"/><stop offset="0.89" stop-color="#ababab"/><stop offset="0.99" stop-color="#f4f4f4"/><stop offset="1" stop-color="#fff"/></linearGradient><linearGradient id="Gradient_23" x1="74.08" y1="149.66" x2="74.08" gradientUnits="userSpaceOnUse"><stop offset="0" stop-color="#6b45c5"/><stop offset="1" stop-color="#7763ff"/></linearGradient><filter id="luminosity-noclip-2" x="11.44" y="5.9" width="124.63" height="126.93" filterUnits="userSpaceOnUse" color-interpolation-filters="sRGB"><feFlood flood-color="#fff" result="bg"/><feBlend in="SourceGraphic" in2="bg"/></filter><mask id="mask-2" x="11.44" y="5.9" width="124.63" height="126.93" maskUnits="userSpaceOnUse"><g class="cls-1"><path class="cls-2" d="M38.21,132.82a13.66,13.66,0,0,1-2.4-1.13A58,58,0,0,1,22.4,120.88a60.06,60.06,0,0,1-10-14,21.45,21.45,0,0,1-1-2.14c2.88-3.3,6.41-7.14,10.52-11.47,5-5.23,10.53-10.93,16.48-17a11.1,11.1,0,0,0,0-15.58C25.53,47.61,16.82,38.24,12.55,32.88a13.74,13.74,0,0,1,1-2.37A55.65,55.65,0,0,1,23.87,17,59.39,59.39,0,0,1,37.47,6.85a18.59,18.59,0,0,1,2.07-.95c3.44,2.92,7.4,6.49,11.79,10.65,5.33,5.05,11,10.58,16.89,16.46a11.1,11.1,0,0,0,15.27.4c8.88-8,16.8-14.77,23.55-20.15,3.4-2.71,5.66-4.32,7.11-5.28l.29.21a80,80,0,0,1,9.32,8,120.84,120.84,0,0,1,9.42,10.39,46.59,46.59,0,0,1,2.9,4c-.87,1.36-2.31,3.41-4.65,6.38-5.73,7.25-13.06,15.74-21.78,25.21A11.1,11.1,0,0,0,109.49,77c7.93,9,14.62,17,19.86,23.73,2.94,3.78,4.62,6.2,5.56,7.67-.1.17-.22.35-.34.54a84.16,84.16,0,0,1-7.47,9.75,99,99,0,0,1-9.68,9.65c-1.41,1.21-2.56,2.1-3.47,2.74-1.4-.88-3.52-2.32-6.61-4.67a236.77,236.77,0,0,1-23.69-21.18A11.08,11.08,0,0,0,68,105.1c-7.23,7.1-13.77,13.36-19.44,18.62C43.07,128.82,40,131.46,38.21,132.82Z"/></g></mask></defs><title>X</title><g class="cls-3"><g id="Layer_2" data-name="Layer 2"><g id="objects"><path class="cls-4" d="M113.66,1.53c1.42-.33,3.83.74,7.25,3.18a91.4,91.4,0,0,1,10.63,9.09,131.19,131.19,0,0,1,10.29,11.36q4.78,5.94,6.24,10,1,2.9-7.93,14.16T117.82,75.17Q130,89,138.11,99.43t8.6,13.53c.39,1.48-.55,4-2.8,7.49a94.24,94.24,0,0,1-8.46,11.06,109.05,109.05,0,0,1-10.77,10.73q-5.72,4.94-9.67,6.38-2.81,1-14.4-7.88a244.9,244.9,0,0,1-24.84-22.18q-11,10.83-19.66,18.85a156.28,156.28,0,0,1-12.42,10.73q-4.94,3.57-13.39-1.26a69,69,0,0,1-16-12.85A70.83,70.83,0,0,1,2.47,117.45Q-1.83,108.9,1.36,105q4.92-5.79,12.56-13.82t16.62-17.1Q9.38,52.56,3,44.24q-3.76-4.83.77-13.38A66.45,66.45,0,0,1,16.1,14.67,69.69,69.69,0,0,1,32.28,2.59Q40.7-1.85,44.75,1.33,50.84,6.36,59,14t17.1,16.67Q89.7,18.44,100.13,10.13T113.66,1.53Z"/><g class="cls-5"><path class="cls-6" d="M38.21,132.82a13.66,13.66,0,0,1-2.4-1.13A58,58,0,0,1,22.4,120.88a60.06,60.06,0,0,1-10-14,21.45,21.45,0,0,1-1-2.14c2.88-3.3,6.41-7.14,10.52-11.47,5-5.23,10.53-10.93,16.48-17a11.1,11.1,0,0,0,0-15.58C25.53,47.61,16.82,38.24,12.55,32.88a13.74,13.74,0,0,1,1-2.37A55.65,55.65,0,0,1,23.87,17,59.39,59.39,0,0,1,37.47,6.85a18.59,18.59,0,0,1,2.07-.95c3.44,2.92,7.4,6.49,11.79,10.65,5.33,5.05,11,10.58,16.89,16.46a11.1,11.1,0,0,0,15.27.4c8.88-8,16.8-14.77,23.55-20.15,3.4-2.71,5.66-4.32,7.11-5.28l.29.21a80,80,0,0,1,9.32,8,120.84,120.84,0,0,1,9.42,10.39,46.59,46.59,0,0,1,2.9,4c-.87,1.36-2.31,3.41-4.65,6.38-5.73,7.25-13.06,15.74-21.78,25.21A11.1,11.1,0,0,0,109.49,77c7.93,9,14.62,17,19.86,23.73,2.94,3.78,4.62,6.2,5.56,7.67-.1.17-.22.35-.34.54a84.16,84.16,0,0,1-7.47,9.75,99,99,0,0,1-9.68,9.65c-1.41,1.21-2.56,2.1-3.47,2.74-1.4-.88-3.52-2.32-6.61-4.67a236.77,236.77,0,0,1-23.69-21.18A11.08,11.08,0,0,0,68,105.1c-7.23,7.1-13.77,13.36-19.44,18.62C43.07,128.82,40,131.46,38.21,132.82Z"/></g><path class="cls-7" d="M40.6,2.77A3.79,3.79,0,0,1,43,3.5c4,3.29,8.7,7.51,14,12.56s11.12,10.68,17,16.61L76,34.54l2-1.77c9-8.1,17.06-15,23.94-20.47,9.27-7.39,11.67-8,12.06-8l.18,0,.12,0c.21,0,1.52.19,5.07,2.73a88.68,88.68,0,0,1,10.3,8.81A128.53,128.53,0,0,1,139.67,26.9a35.67,35.67,0,0,1,5.71,9c-.06.54-.71,3.22-7.42,11.71C132.1,55,124.63,63.67,115.77,73.29l-1.69,1.84L115.73,77c8,9.14,14.85,17.26,20.19,24.13,7.31,9.39,8,11.86,8.05,12.26l0,.1,0,.14c0,.05.13,1.3-2.44,5.32a93,93,0,0,1-8.22,10.74,106.74,106.74,0,0,1-10.5,10.45c-3.42,3-6.31,4.91-8.59,5.79-.56-.07-3.29-.77-12-7.39a245.49,245.49,0,0,1-24.56-21.93l-1.94-2-2,1.93c-7.28,7.15-13.87,13.47-19.61,18.79a151.24,151.24,0,0,1-12.16,10.52,5.25,5.25,0,0,1-3.2,1,15.25,15.25,0,0,1-7.18-2.41,66.65,66.65,0,0,1-15.35-12.34A68.19,68.19,0,0,1,5,116.2c-1.3-2.59-3.22-7.25-1.48-9.37C6.7,103,10.9,98.42,15.93,93.12s10.61-11,16.59-17.06l1.92-2-1.92-2C18.56,57.94,9.37,48,5.19,42.54c-.66-.85-2.66-3.42,1-10.38A64.08,64.08,0,0,1,18,16.65,67.56,67.56,0,0,1,33.58,5c2.85-1.5,5.21-2.27,7-2.27M40.6,0q-3.42,0-8.32,2.59A69.69,69.69,0,0,0,16.1,14.67,66.45,66.45,0,0,0,3.77,30.86Q-.77,39.41,3,44.24q6.38,8.31,27.54,29.87-9,9.08-16.62,17.1T1.36,105q-3.19,3.87,1.11,12.42A70.83,70.83,0,0,0,14.31,134a69,69,0,0,0,16,12.85q4.86,2.77,8.56,2.78a8,8,0,0,0,4.83-1.52,156.28,156.28,0,0,0,12.42-10.73q8.64-8,19.66-18.85a244.9,244.9,0,0,0,24.84,22.18q10.45,8,13.76,8a2,2,0,0,0,.64-.09q4-1.45,9.67-6.38a109.05,109.05,0,0,0,10.77-10.73,94.24,94.24,0,0,0,8.46-11.06c2.25-3.51,3.19-6,2.8-7.49q-.48-3.09-8.6-13.53T117.82,75.17q13.43-14.6,22.32-25.85t7.93-14.16q-1.45-4.06-6.24-10A131.19,131.19,0,0,0,131.54,13.8a91.4,91.4,0,0,0-10.63-9.09q-4.53-3.24-6.72-3.24a2.2,2.2,0,0,0-.53.06q-3.09.28-13.53,8.6T76.06,30.71q-9-9-17.1-16.67T44.75,1.33A6.49,6.49,0,0,0,40.6,0Z"/><path class="cls-8" d="M62.82,26.18A73.51,73.51,0,0,0,40.9,9.81c-5.33-2.6-10,5.37-4.67,8A66.55,66.55,0,0,1,56.28,32.72C60.31,37.11,66.84,30.56,62.82,26.18Z"/><path class="cls-8" d="M118.25,9.06A4.76,4.76,0,0,0,115,7.71l-.94,0a4.81,4.81,0,0,0-3.27,1.36A4.62,4.62,0,0,0,114,17l.94,0a4.83,4.83,0,0,0,3.27-1.36,4.64,4.64,0,0,0,0-6.54Z"/><path class="cls-8" d="M138.55,35.47a32,32,0,0,0-11.07-16.68c-2-1.53-4.62-1.92-6.54,0-1.59,1.59-2,5,0,6.54a23.92,23.92,0,0,1,8.69,12.6C131.26,43.64,140.19,41.21,138.55,35.47Z"/><path class="cls-8" d="M134.39,112.22a66.64,66.64,0,0,0-14-24.63c-4-4.46-10.48,2.1-6.54,6.54a55.53,55.53,0,0,1,11.59,20.55C127.25,120.34,136.18,117.93,134.39,112.22Z"/><path class="cls-8" d="M130.64,123.16a4.69,4.69,0,0,0-2.77-2.13,5,5,0,0,0-3.56.47l-.63.31a4.63,4.63,0,0,0,1.11,8.46,5.07,5.07,0,0,0,3.56-.47l.63-.32a4.63,4.63,0,0,0,1.66-6.32Z"/></g></g></g></svg>