<svg xmlns="http://www.w3.org/2000/svg" xmlns:xlink="http://www.w3.org/1999/xlink" viewBox="0 0 159.19 152.54"><defs><style>.cls-1{mask:url(#mask);filter:url(#luminosity-noclip-2);}.cls-2{mix-blend-mode:multiply;fill:url(#linear-gradient);}.cls-3{fill:url(#linear-gradient-2);}.cls-4{mask:url(#mask-2);}.cls-5{fill:url(#linear-gradient-3);}.cls-6{fill:#8affff;}.cls-7{fill:#f8f9f6;}.cls-8{filter:url(#luminosity-noclip);}</style><filter id="luminosity-noclip" x="12.04" y="-11123.2" width="135.03" height="32766" filterUnits="userSpaceOnUse" color-interpolation-filters="sRGB"><feFlood flood-color="#fff" result="bg"/><feBlend in="SourceGraphic" in2="bg"/></filter><mask id="mask" x="12.04" y="-11123.2" width="135.03" height="32766" maskUnits="userSpaceOnUse"><g class="cls-8"/></mask><linearGradient id="linear-gradient" x1="79.56" y1="135.22" x2="79.56" y2="6.32" gradientUnits="userSpaceOnUse"><stop offset="0" stop-color="#fff"/><stop offset="0.54"/><stop offset="0.58" stop-color="#080808"/><stop offset="0.64" stop-color="#1c1c1c"/><stop offset="0.71" stop-color="#3f3f3f"/><stop offset="0.79" stop-color="#6e6e6e"/><stop offset="0.89" stop-color="#ababab"/><stop offset="0.99" stop-color="#f4f4f4"/><stop offset="1" stop-color="#fff"/></linearGradient><linearGradient id="linear-gradient-2" x1="79.6" y1="152.54" x2="79.6" gradientUnits="userSpaceOnUse"><stop offset="0.07" stop-color="#7ff9ff"/><stop offset="1" stop-color="#00bcbf"/></linearGradient><filter id="luminosity-noclip-2" x="12.04" y="6.32" width="135.03" height="128.9" filterUnits="userSpaceOnUse" color-interpolation-filters="sRGB"><feFlood flood-color="#fff" result="bg"/><feBlend in="SourceGraphic" in2="bg"/></filter><mask id="mask-2" x="12.04" y="6.32" width="135.03" height="128.9" maskUnits="userSpaceOnUse"><g class="cls-1"><path class="cls-2" d="M75.06,135.22c-2.48,0-4.91,0-7.22-.1l-2-.07a101.26,101.26,0,0,1-2.7-10.45,312.24,312.24,0,0,1-5.27-36.39,11.53,11.53,0,0,0-3.59-7.37,390.31,390.31,0,0,1-31.19-32.6c-7-8.34-9.89-12.63-11-14.6.29-.55.7-1.29,1.29-2.24a98.34,98.34,0,0,1,8.9-12A114.27,114.27,0,0,1,32.86,8.5c.92-.82,1.67-1.43,2.25-1.89A57.36,57.36,0,0,1,45,13.42C53.16,20.06,62.07,28,71.44,37a11.55,11.55,0,0,0,16,0c9.45-9,18.43-17,26.67-23.78a53.65,53.65,0,0,1,10-6.89c.61.45,1.39,1.06,2.39,1.91a117.29,117.29,0,0,1,10.71,10.39A93,93,0,0,1,146.05,30c.44.67.77,1.22,1,1.66-1.16,2-3.93,6.17-10.4,14.11A365.79,365.79,0,0,1,107.1,77.53a11.59,11.59,0,0,0-3.51,7.76,341.05,341.05,0,0,1-3.54,36.64c-1,6.07-1.75,9.86-2.31,12.18l-.67.08c-4.29.49-9.08.81-14.25.93C80.16,135.19,77.55,135.22,75.06,135.22Z"/></g></mask><linearGradient id="linear-gradient-3" x1="79.56" y1="135.22" x2="79.56" y2="6.32" xlink:href="#linear-gradient-2"/></defs><title>Y</title><g id="Layer_2" data-name="Layer 2"><g id="objects"><path class="cls-3" d="M159.06,38.52q-.7,4.63-13.42,20.26a375.29,375.29,0,0,1-30.52,32.83,348.58,348.58,0,0,1-3.67,37.9q-2.65,16.8-4.87,19.71-1.22,1.41-8.2,2.21t-15.28,1q-8.3.19-15.58,0c-4.86-.13-7.8-.5-8.8-1.11q-3.31-1.8-6.89-18.55A321.06,321.06,0,0,1,46.35,95,399.26,399.26,0,0,1,14.23,61.45Q.7,45.36.1,40.53q-.7-2.81,3.42-9.45a110.49,110.49,0,0,1,10-13.42,125.53,125.53,0,0,1,11.72-12Q31.07.42,33.68.22q5.84-.31,18.55,10T79.43,34.4Q94,20.53,106.73,10.07T125.48,0q2.51.21,8.4,5.18A129.9,129.9,0,0,1,145.64,16.6a103.28,103.28,0,0,1,10.05,12.77Q159.86,35.72,159.06,38.52Z"/><g class="cls-4"><path class="cls-5" d="M75.06,135.22c-2.48,0-4.91,0-7.22-.1l-2-.07a101.26,101.26,0,0,1-2.7-10.45,312.24,312.24,0,0,1-5.27-36.39,11.53,11.53,0,0,0-3.59-7.37,390.31,390.31,0,0,1-31.19-32.6c-7-8.34-9.89-12.63-11-14.6.29-.55.7-1.29,1.29-2.24a98.34,98.34,0,0,1,8.9-12A114.27,114.27,0,0,1,32.86,8.5c.92-.82,1.67-1.43,2.25-1.89A57.36,57.36,0,0,1,45,13.42C53.16,20.06,62.07,28,71.44,37a11.55,11.55,0,0,0,16,0c9.45-9,18.43-17,26.67-23.78a53.65,53.65,0,0,1,10-6.89c.61.45,1.39,1.06,2.39,1.91a117.29,117.29,0,0,1,10.71,10.39A93,93,0,0,1,146.05,30c.44.67.77,1.22,1,1.66-1.16,2-3.93,6.17-10.4,14.11A365.79,365.79,0,0,1,107.1,77.53a11.59,11.59,0,0,0-3.51,7.76,341.05,341.05,0,0,1-3.54,36.64c-1,6.07-1.75,9.86-2.31,12.18l-.67.08c-4.29.49-9.08.81-14.25.93C80.16,135.19,77.55,135.22,75.06,135.22Z"/></g><path class="cls-6" d="M125,0V2.89h.22c.06,0,1.66.19,6.76,4.51a126.6,126.6,0,0,1,11.5,11.15A100.9,100.9,0,0,1,153.28,31c3.41,5.17,3,6.75,3,6.77l0,.18,0,.18C156,39.25,154.43,43.4,143.4,57a375.58,375.58,0,0,1-30.28,32.57l-.82.8-.06,1.14a348.39,348.39,0,0,1-3.64,37.59c-2.15,13.57-3.62,17.24-4.18,18.2-.41.21-1.89.79-6.37,1.31s-9.6.85-15,1c-2.73.07-5.41.1-8,.1s-5.07,0-7.46-.1c-5.8-.16-7.22-.63-7.44-.72h0c-.29-.23-2.43-2.35-5.48-16.64a321.19,321.19,0,0,1-5.42-37.41l-.1-1.09-.8-.75A399.9,399.9,0,0,1,16.44,59.59C4.73,45.66,3.12,41.37,3,40.18L3,40l-.05-.16c0-.07-.37-1.7,3.07-7.23a106.84,106.84,0,0,1,9.69-13.07A124.59,124.59,0,0,1,27.11,7.8C32,3.5,33.67,3.13,33.89,3.1H34c1.81,0,6.34,1.22,16.4,9.37,8.38,6.8,17.47,14.88,27,24l2,1.91,2-1.9C91,27.35,100.16,19.21,108.56,12.3c10-8.19,14.59-9.41,16.47-9.41V0m0,0Q119,0,106.73,10.07,94,20.53,79.43,34.4,65,20.53,52.23,10.22,39.87.2,34,.21h-.34q-2.61.19-8.49,5.43a125.53,125.53,0,0,0-11.72,12,110.49,110.49,0,0,0-10,13.42Q-.6,37.72.1,40.53q.6,4.83,14.13,20.92A399.26,399.26,0,0,0,46.35,95a321.06,321.06,0,0,0,5.48,37.75q3.57,16.74,6.89,18.55c1,.61,3.94,1,8.8,1.11q3.65.1,7.54.1c2.59,0,5.28,0,8-.1q8.3-.19,15.28-1t8.2-2.21q2.2-2.91,4.87-19.71a348.58,348.58,0,0,0,3.67-37.9,375.29,375.29,0,0,0,30.52-32.83q12.72-15.63,13.42-20.26.81-2.81-3.37-9.15A103.28,103.28,0,0,0,145.64,16.6,129.9,129.9,0,0,0,133.88,5.19q-5.9-5-8.4-5.18Z"/><path class="cls-7" d="M68.58,35.79A148.44,148.44,0,0,0,37.16,12.84c-5.44-3-10.3,5.34-4.86,8.31A138.43,138.43,0,0,1,61.77,42.59C66.25,46.87,73.07,40.07,68.58,35.79Z"/><path class="cls-7" d="M128.7,11.8a5.22,5.22,0,0,0-2.88-2.21l-1-.33a4.81,4.81,0,0,0-5.43,7.07,5.33,5.33,0,0,0,2.87,2.21l1,.33a4.82,4.82,0,0,0,5.44-7.07Z"/><path class="cls-7" d="M139.61,22.7c-5.39-3.07-10.24,5.24-4.86,8.31,3.72,2.12,8.26,4.45,5.1,9.06-2.19,3.19-5.4,6-8,8.85l-17.17,19c-4.15,4.58,2.63,11.41,6.8,6.81,8.53-9.42,17.59-18.56,25.64-28.39C154.87,36.83,148.73,27.9,139.61,22.7Z"/></g></g></svg>