<svg xmlns="http://www.w3.org/2000/svg" xmlns:xlink="http://www.w3.org/1999/xlink" viewBox="0 0 131.08 148.59"><defs><style>.cls-1{mask:url(#mask);filter:url(#luminosity-noclip-2);}.cls-2{mix-blend-mode:multiply;fill:url(#linear-gradient);}.cls-3{fill:url(#linear-gradient-2);}.cls-4{mask:url(#mask-2);}.cls-5{fill:url(#linear-gradient-3);}.cls-6{fill:#870000;}.cls-7{fill:#f8f9f6;}.cls-8{filter:url(#luminosity-noclip);}</style><filter id="luminosity-noclip" x="11.1" y="-10703.08" width="108.88" height="32766" filterUnits="userSpaceOnUse" color-interpolation-filters="sRGB"><feFlood flood-color="#fff" result="bg"/><feBlend in="SourceGraphic" in2="bg"/></filter><mask id="mask" x="11.1" y="-10703.08" width="108.88" height="32766" maskUnits="userSpaceOnUse"><g class="cls-8"/></mask><linearGradient id="linear-gradient" x1="65.54" y1="131.94" x2="65.54" y2="5.55" gradientUnits="userSpaceOnUse"><stop offset="0" stop-color="#fff"/><stop offset="0.54"/><stop offset="0.58" stop-color="#080808"/><stop offset="0.64" stop-color="#1c1c1c"/><stop offset="0.71" stop-color="#3f3f3f"/><stop offset="0.79" stop-color="#6e6e6e"/><stop offset="0.89" stop-color="#ababab"/><stop offset="0.99" stop-color="#f4f4f4"/><stop offset="1" stop-color="#fff"/></linearGradient><linearGradient id="linear-gradient-2" x1="65.54" y1="148.59" x2="65.54" gradientUnits="userSpaceOnUse"><stop offset="0.07" stop-color="#e90022"/><stop offset="1" stop-color="#a7001d"/></linearGradient><filter id="luminosity-noclip-2" x="11.1" y="5.55" width="108.88" height="126.39" filterUnits="userSpaceOnUse" color-interpolation-filters="sRGB"><feFlood flood-color="#fff" result="bg"/><feBlend in="SourceGraphic" in2="bg"/></filter><mask id="mask-2" x="11.1" y="5.55" width="108.88" height="126.39" maskUnits="userSpaceOnUse"><g class="cls-1"><path class="cls-2" d="M67.73,131.94c-4.75,0-9.55,0-14.26-.09-12.07-.16-22.9-.63-32.17-1.41-4.78-.41-7.75-.83-9.53-1.17a75.83,75.83,0,0,1-.65-9.57c-.21-12.06,1.09-17.14,1.89-19.1l.11-.27c.29-.57,2.48-4.3,14-14.56C37,77,47.7,68,58.93,58.82a11.1,11.1,0,0,0-6.68-19.7,269.17,269.17,0,0,1-27.4-2c-3.77-.51-6.21-1-7.75-1.31v0A87.81,87.81,0,0,1,16,24.16a105.11,105.11,0,0,1,.26-12.95c.12-1.47.27-2.65.42-3.58,1.7-.3,4.33-.65,8.29-1,10-.75,21.36-1.13,33.82-1.13s24.81.27,36.5.81c11.32.52,17.49,1,20.86,1.34l.14.37a40.09,40.09,0,0,1,2.26,11.49,62.7,62.7,0,0,1-.61,13.8c-.67,4.24-1.55,5.93-1.82,6.37l-.12.15c-4,5-9.11,10.87-15.08,17.37s-12.63,13.54-19.5,20.6a11.1,11.1,0,0,0,7.95,18.84h.3c4.78-.12,9.25-.19,13.29-.19,2,0,4,0,5.8.05,4.25.07,7,.22,8.63.36a16.19,16.19,0,0,1,.61,1.76,56.52,56.52,0,0,1,2,15.53,58.73,58.73,0,0,1-1.88,15.44c-.09.33-.18.62-.26.87-7.29.59-16.34,1-27,1.21C83.11,131.86,75.34,131.94,67.73,131.94Zm49.09-36.08-102.36-61"/></g></mask><linearGradient id="linear-gradient-3" x1="65.54" y1="131.94" x2="65.54" y2="5.55" xlink:href="#linear-gradient-2"/></defs><title>Z</title><g id="Layer_2" data-name="Layer 2"><g id="objects"><path class="cls-3" d="M8.82,50c-1.1-.65-2-2.9-2.66-6.77a99.75,99.75,0,0,1-1.3-13.05,115.19,115.19,0,0,1,.29-14.3c.38-4.7,1.12-8.22,2.22-10.53q1.26-3,16.72-4.16T58.74,0q19.18,0,37,.82t24,1.69q4.44.78,6.86,7.2a51.22,51.22,0,0,1,3,14.69,73.79,73.79,0,0,1-.73,16.24q-1.24,8-4.15,11.65l-.1.09Q118.32,60.21,109,70.31T89.33,91.14q11-.3,19.57-.15a99.42,99.42,0,0,1,12.22.73q5,.87,7.49,9.42a66.67,66.67,0,0,1,2.47,18.6,69.32,69.32,0,0,1-2.28,18.37q-2.27,8.31-6.52,8.69-12.07,1.17-31.21,1.55t-37.74.15q-18.61-.24-33-1.45T3.6,143.61q-3.29-2-3.57-18.16T2.73,102q2-5.59,17.06-18.94T51.92,55.76a280.22,280.22,0,0,1-28.55-2.12Q11.13,52,8.82,50Z"/><g class="cls-4"><path class="cls-5" d="M67.73,131.94c-4.75,0-9.55,0-14.26-.09-12.07-.16-22.9-.63-32.17-1.41-4.78-.41-7.75-.83-9.53-1.17a75.83,75.83,0,0,1-.65-9.57c-.21-12.06,1.09-17.14,1.89-19.1l.11-.27c.29-.57,2.48-4.3,14-14.56C37,77,47.7,68,58.93,58.82a11.1,11.1,0,0,0-6.68-19.7,269.17,269.17,0,0,1-27.4-2c-3.77-.51-6.21-1-7.75-1.31v0A87.81,87.81,0,0,1,16,24.16a105.11,105.11,0,0,1,.26-12.95c.12-1.47.27-2.65.42-3.58,1.7-.3,4.33-.65,8.29-1,10-.75,21.36-1.13,33.82-1.13s24.81.27,36.5.81c11.32.52,17.49,1,20.86,1.34l.14.37a40.09,40.09,0,0,1,2.26,11.49,62.7,62.7,0,0,1-.61,13.8c-.67,4.24-1.55,5.93-1.82,6.37l-.12.15c-4,5-9.11,10.87-15.08,17.37s-12.63,13.54-19.5,20.6a11.1,11.1,0,0,0,7.95,18.84h.3c4.78-.12,9.25-.19,13.29-.19,2,0,4,0,5.8.05,4.25.07,7,.22,8.63.36a16.19,16.19,0,0,1,.61,1.76,56.52,56.52,0,0,1,2,15.53,58.73,58.73,0,0,1-1.88,15.44c-.09.33-.18.62-.26.87-7.29.59-16.34,1-27,1.21C83.11,131.86,75.34,131.94,67.73,131.94Z"/></g><path class="cls-6" d="M58.74,2.77c12.67,0,25.08.28,36.88.82s19.68,1.1,23.71,1.66c1.9.36,3.48,2.18,4.7,5.44a48.58,48.58,0,0,1,2.78,13.89,71.33,71.33,0,0,1-.7,15.63c-.74,4.72-1.92,8.16-3.5,10.24l-.08.08-.09.11c-4.15,5.17-9.34,11.15-15.44,17.79S94.25,82.1,87.34,89.2l-4.76,4.89,6.82-.18c4.85-.13,9.39-.19,13.51-.19,2.06,0,4.06,0,5.94,0a97.66,97.66,0,0,1,11.8.68c2.74.47,4.39,4.32,5.3,7.46a64.57,64.57,0,0,1,2.35,17.83,67.32,67.32,0,0,1-2.17,17.64c-1.12,4.1-2.62,6.53-4.11,6.66-8,.77-18.4,1.28-31,1.54-7.78.15-15.61.23-23.26.23-4.8,0-9.64,0-14.39-.09-12.27-.16-23.3-.64-32.76-1.44C8,143.22,5.79,141.84,5.48,141.57l-.19-.18-.2-.12c-.26-.25-2-2.43-2.29-15.87-.19-10.34.66-17.87,2.5-22.39l0-.05,0,0c.82-2.26,4.31-7.18,16.29-17.82,9.94-8.81,20.72-18,32.05-27.17l5.78-4.71L52,53a277.55,277.55,0,0,1-28.27-2.1c-10.85-1.46-12.81-2.77-13.09-3l-.2-.18-.1-.05c-.16-.23-.82-1.3-1.45-4.93A95.75,95.75,0,0,1,7.63,30a115.68,115.68,0,0,1,.28-14c.36-4.29,1-7.48,1.93-9.49.43-.34,2.91-1.8,14.46-2.66,10.19-.77,21.78-1.16,34.44-1.16m0-2.77Q39.56,0,24.09,1.16T7.37,5.32c-1.1,2.31-1.84,5.83-2.22,10.53a115.19,115.19,0,0,0-.29,14.3A99.75,99.75,0,0,0,6.16,43.2c.68,3.87,1.56,6.12,2.66,6.77q2.32,2,14.55,3.67a280.22,280.22,0,0,0,28.55,2.12Q34.82,69.68,19.79,83T2.73,102q-3,7.35-2.7,23.49T3.6,143.61q2.42,2.23,16.77,3.44t33,1.45q7.17.09,14.42.09,11.55,0,23.32-.24,19.13-.39,31.21-1.55,4.26-.37,6.52-8.69a69.32,69.32,0,0,0,2.28-18.37,66.67,66.67,0,0,0-2.47-18.6q-2.46-8.55-7.49-9.42A99.42,99.42,0,0,0,108.9,91c-1.91,0-3.9,0-6,0q-6.25,0-13.58.2Q99.76,80.4,109,70.31T124.6,52.38l.1-.09q2.89-3.67,4.15-11.65a73.79,73.79,0,0,0,.73-16.24,51.22,51.22,0,0,0-3-14.69q-2.41-6.42-6.86-7.2-6.19-.87-24-1.69T58.74,0Z"/><path class="cls-7" d="M106.45,9.88a4.8,4.8,0,0,0-3.27-1.35h-.31A4.78,4.78,0,0,0,99.6,9.88a4.61,4.61,0,0,0,0,6.54,4.79,4.79,0,0,0,3.27,1.36h.31a4.76,4.76,0,0,0,3.27-1.36,4.61,4.61,0,0,0,0-6.54Z"/><path class="cls-7" d="M121.66,13.31c-2.34-5.46-10.31-.75-8,4.66A32.27,32.27,0,0,1,112,46.5c-4.76,8.28-12.53,14.36-19.87,20.24-4.64,3.72,1.94,10.23,6.54,6.54C107.83,66,117.17,58.15,122,47.18S126.32,24.19,121.66,13.31Z"/><path class="cls-7" d="M114.87,101.43c-1.58,6.59-.78,13.09-1.09,19.78-.19,4.26-2.78,15.27-9.61,12.32-5.4-2.33-10.12,5.63-4.66,8,7.86,3.39,16.42,0,20.5-7.5,5.11-9.46,1.39-20.17,3.78-30.13C125.17,98.11,116.25,95.64,114.87,101.43Z"/></g></g></svg>